<svg xmlns="http://www.w3.org/2000/svg" class='three-steps-svg' id='lady-justice-step-1' viewBox="0 0 317 347"><defs><clipPath id="lady-justice-step-1-a"><rect class="a" width="243.91" height="325.425"/></clipPath><filter id="b" x="0" y="0" width="104" height="104" filterUnits="userSpaceOnUse"><feOffset dy="3" input="SourceAlpha"/><feGaussianBlur stdDeviation="3" result="c"/><feFlood flood-opacity="0.161"/><feComposite operator="in" in2="c"/><feComposite in="SourceGraphic"/></filter></defs><g transform="translate(-352 -4785)"><g class="b" transform="translate(425.09 4806.574)"><path class="a" d="M108.936,82.642a1.016,1.016,0,0,1-1.015-1.015V19.762a1.015,1.015,0,0,1,2.03,0V81.627a1.016,1.016,0,0,1-1.015,1.015" transform="translate(-34.877 -6.059)"/><path class="a" d="M111.054,82.617a1.015,1.015,0,0,1-.859-.472L89.632,49.658c-.014-.022-.027-.045-.039-.068-.191-.36-4.624-8.891.946-14.163,5.394-5.109,16.121-2.954,16.575-2.86a1.016,1.016,0,0,1,.763,1.3l-2.975,9.5a1.01,1.01,0,0,1-.255.418l-4.019,3.974A1.015,1.015,0,0,1,99.2,46.318l3.84-3.8,2.551-8.147c-2.759-.386-9.949-.981-13.655,2.527-4.3,4.072-.826,11.185-.563,11.708l20.54,32.449a1.015,1.015,0,0,1-.857,1.559" transform="translate(-28.355 -10.354)"/><path class="a" d="M66.919,114.563q-.249,0-.5-.011c-4.393-.183-8.754-2.785-10.369-6.186A3.9,3.9,0,0,0,53.616,106c-1.83-.453-3.8,1-3.815,1.015a1.016,1.016,0,0,1-1.223-1.622c.11-.084,2.74-2.049,5.512-1.367a5.8,5.8,0,0,1,3.794,3.471c1.31,2.759,4.934,4.875,8.619,5.028a7.837,7.837,0,0,0,7.385-3.894,1.015,1.015,0,0,1,1.6-.2c.26.26,6.463,6.352,13.61,1.964a1.015,1.015,0,0,1,1.063,1.731c-6.78,4.162-12.91.328-15.183-1.462a9.8,9.8,0,0,1-8.057,3.9" transform="translate(-15.569 -33.571)"/><path class="a" d="M131.646,114.563a9.8,9.8,0,0,1-8.057-3.9c-2.271,1.792-8.4,5.626-15.184,1.463a1.015,1.015,0,0,1,1.063-1.731c7.18,4.408,13.546-1.9,13.61-1.964a1.015,1.015,0,0,1,1.6.2,7.834,7.834,0,0,0,7.385,3.894c3.685-.154,7.31-2.269,8.619-5.029a5.8,5.8,0,0,1,3.794-3.47c2.772-.678,5.4,1.283,5.512,1.367a1.016,1.016,0,0,1-1.223,1.622c-.02-.016-1.991-1.466-3.815-1.015a3.9,3.9,0,0,0-2.433,2.366c-1.615,3.4-5.976,6-10.369,6.187q-.253.011-.5.011" transform="translate(-34.877 -33.572)"/><path class="a" d="M146.255,98.22a1.008,1.008,0,0,1-.556-.167L130.3,87.945a.992.992,0,0,1-.261-.246l-9.159-12.442a1.015,1.015,0,0,1,1.635-1.2l9.051,12.3,15.243,10.008a1.015,1.015,0,0,1-.558,1.864" transform="translate(-39.002 -23.798)"/><path class="a" d="M69.554,131.177a13.817,13.817,0,0,1-5.6-1.151c-5.908-2.59-8.211-8.591-8.306-8.845a1.016,1.016,0,0,1,1.9-.713c.02.055,2.119,5.474,7.237,7.706,3.293,1.437,7.154,1.274,11.474-.484,7.082-2.882,12.2-3.52,15.222-1.89a4.136,4.136,0,0,1,2.215,2.634,1.015,1.015,0,1,1-1.992.394,2.342,2.342,0,0,0-1.279-1.289c-1.4-.707-5.009-1.384-13.4,2.033a19.869,19.869,0,0,1-7.468,1.605" transform="translate(-17.962 -38.72)"/><path class="a" d="M86.211,132.086a1.015,1.015,0,0,1-.383-1.956c7.081-2.881,12.2-3.519,15.221-1.89a4.138,4.138,0,0,1,2.215,2.634,1.015,1.015,0,1,1-1.992.394,2.338,2.338,0,0,0-1.279-1.289c-1.4-.707-5.009-1.384-13.4,2.033a1.016,1.016,0,0,1-.382.074" transform="translate(-27.533 -41.159)"/><path class="a" d="M133.08,131.177a19.869,19.869,0,0,1-7.468-1.605c-8.392-3.415-12-2.738-13.4-2.033a2.312,2.312,0,0,0-1.284,1.314,1.032,1.032,0,0,1-1.212.753,1,1,0,0,1-.775-1.173,4.138,4.138,0,0,1,2.215-2.634c3.019-1.628,8.14-.992,15.222,1.891,4.32,1.758,8.183,1.921,11.475.484,5.118-2.233,7.217-7.652,7.237-7.706a1.016,1.016,0,0,1,1.9.713c-.1.254-2.4,6.256-8.306,8.845a13.818,13.818,0,0,1-5.605,1.151" transform="translate(-35.2 -38.72)"/><path class="a" d="M125.993,132.086a1.016,1.016,0,0,1-.382-.074c-8.392-3.415-12-2.738-13.4-2.033a2.314,2.314,0,0,0-1.285,1.314,1.031,1.031,0,0,1-1.211.753,1,1,0,0,1-.775-1.172,4.14,4.14,0,0,1,2.215-2.635c3.019-1.627,8.14-.991,15.221,1.891a1.015,1.015,0,0,1-.383,1.956" transform="translate(-35.2 -41.159)"/><path class="a" d="M46.154,210.964a1.1,1.1,0,0,1-.181-.016,1.017,1.017,0,0,1-.82-1.179l13.892-77.59a1.015,1.015,0,0,1,2,.358L47.153,210.128a1.016,1.016,0,0,1-1,.836" transform="translate(-14.587 -42.447)"/><path class="a" d="M91.745,219.462a1.016,1.016,0,0,1-.975-.734L73.49,158.937a1.015,1.015,0,0,1,1.951-.563l17.28,59.792a1.015,1.015,0,0,1-.976,1.3" transform="translate(-23.737 -50.945)"/><path class="a" d="M57.694,260.8a35.808,35.808,0,0,1-15.452-3.132,1.015,1.015,0,1,1,.872-1.834,33.805,33.805,0,0,0,14.58,2.935c14.513,0,20.5-7.58,22.368-10.758H35.4a1.015,1.015,0,0,1,0-2.03H81.714a1.016,1.016,0,0,1,.95,1.375c-.208.548-5.313,13.443-24.97,13.443" transform="translate(-11.113 -79.494)"/><path class="a" d="M130.47,217.564a.951.951,0,0,1-.163-.014,1.013,1.013,0,0,1-.84-1.163l10.309-63.766a1.015,1.015,0,0,1,2,.324L131.471,216.71a1.015,1.015,0,0,1-1,.853" transform="translate(-41.836 -49.047)"/><path class="a" d="M174.708,212.2a1.016,1.016,0,0,1-.992-.8l-15.927-75a1.015,1.015,0,0,1,1.986-.422l15.927,75a1.016,1.016,0,0,1-.994,1.226" transform="translate(-50.986 -43.684)"/><path class="a" d="M142.01,260.8a35.808,35.808,0,0,1-15.452-3.132,1.015,1.015,0,1,1,.872-1.834,33.805,33.805,0,0,0,14.58,2.935c14.513,0,20.5-7.58,22.368-10.758h-44.66a1.015,1.015,0,0,1,0-2.03H166.03a1.016,1.016,0,0,1,.95,1.375c-.208.548-5.313,13.443-24.97,13.443" transform="translate(-38.362 -79.494)"/><path class="a" d="M165.055,149.269a1.016,1.016,0,0,1-.992-.8c-.82-3.862,2.732-9.319,3.651-10.646-.311-11.238,4.818-17.578,15.252-18.846a7.35,7.35,0,0,0,5.194-2.575,7.531,7.531,0,0,0,1.293-5.084,1.015,1.015,0,0,1,2.009-.3,9.495,9.495,0,0,1-1.676,6.6,9.272,9.272,0,0,1-6.576,3.376c-9.44,1.147-13.842,6.741-13.457,17.1a1.016,1.016,0,0,1-.194.636c-1.182,1.622-4.118,6.46-3.511,9.319a1.015,1.015,0,0,1-.782,1.2,1.071,1.071,0,0,1-.212.022" transform="translate(-52.982 -35.599)"/><path class="a" d="M215.338,173.984a1.008,1.008,0,0,1-.3-.047c-.217-.068-21.9-6.732-42.888-1.313a1.015,1.015,0,1,1-.508-1.965c19.08-4.93,38.681-.138,43.09,1.078l3.356-8.62c-3.514-16.17-28.427-20.986-28.679-21.033a1.015,1.015,0,0,1-.432-.192c-5.12-3.919-7.794-8.057-7.947-12.3a11.442,11.442,0,0,1,2.587-7.483l-10.878-4.585a1.015,1.015,0,0,1,.789-1.871l12.2,5.143a1.014,1.014,0,0,1,.279,1.694,9.825,9.825,0,0,0-2.948,7.055c.139,3.55,2.482,7.112,6.965,10.59a60.677,60.677,0,0,1,13.491,4.617c9.4,4.552,15.146,10.864,16.624,18.254a1.008,1.008,0,0,1-.049.567l-3.8,9.764a1.014,1.014,0,0,1-.946.647" transform="translate(-55.223 -37.35)"/><path class="a" d="M232.626,164.888a1.015,1.015,0,0,1-.67-1.779c1.853-1.626,2.7-3.354,2.583-5.281-.292-4.877-6.625-9.271-6.689-9.314A1.015,1.015,0,0,1,229,146.839c.294.2,7.218,5.01,7.568,10.868.154,2.558-.947,4.889-3.27,6.929a1.012,1.012,0,0,1-.669.252" transform="translate(-73.492 -47.397)"/><path class="a" d="M239.787,177.909a1.015,1.015,0,0,1-.86-1.553c4.586-7.359,10.152-5.856,10.385-5.789a1.015,1.015,0,0,1-.553,1.953c-.2-.048-4.378-1.075-8.11,4.91a1.013,1.013,0,0,1-.862.478" transform="translate(-77.165 -55.068)"/><path class="a" d="M197.323,106.5c-.73,0-1.486-.032-2.27-.1a1.017,1.017,0,0,1-.887-.737l-3.4-12.1a1.015,1.015,0,0,1,1.955-.549l3.2,11.411a19.577,19.577,0,0,0,13.729-4.1,1.015,1.015,0,0,1,1.387,1.483c-.221.206-5.113,4.693-13.721,4.693" transform="translate(-61.639 -29.822)"/><path class="a" d="M194.361,89.776c-1.216,0-1.982-.053-2.082-.06a1.032,1.032,0,0,1-.3-.068c-3.324-1.3-5.322-3.1-5.94-5.344a6.633,6.633,0,0,1,1.133-5.406,1.015,1.015,0,0,1,.334-.279c18.988-9.876,35.714,6.09,35.881,6.253a1.015,1.015,0,0,1-.942,1.715c-.077-.018-7.823-1.8-14.515.856a38.526,38.526,0,0,1-13.574,2.333M192.578,87.7c1.122.06,8.348.336,14.609-2.144a27.1,27.1,0,0,1,11.989-1.493c-5.268-3.813-17.32-10.469-30.506-3.756a4.514,4.514,0,0,0-.664,3.476c.437,1.555,1.974,2.873,4.572,3.917" transform="translate(-60.061 -24.367)"/><path class="a" d="M187.384,71.71a1.008,1.008,0,0,1-.665-.249c-.134-.116-3.268-2.881-2.623-5.853.407-1.875,2.153-3.281,5.191-4.181a1.015,1.015,0,1,1,.576,1.947c-1.561.462-3.483,1.3-3.782,2.661-.326,1.492,1.313,3.318,1.972,3.9a1.016,1.016,0,0,1-.669,1.78" transform="translate(-59.467 -19.838)"/><path class="a" d="M196.479,65.071a1.015,1.015,0,0,1-.8-.39c-.119-.153-2.907-3.777-1.475-6.967,1.041-2.319,3.953-3.648,8.655-3.948a1.015,1.015,0,1,1,.129,2.026c-3.837.245-6.234,1.2-6.932,2.752-.92,2.053,1.2,4.858,1.223,4.885a1.015,1.015,0,0,1-.8,1.641" transform="translate(-62.629 -17.375)"/><path class="a" d="M224.386,67.383a2.857,2.857,0,0,1-.427-.032,1.015,1.015,0,0,1,.308-2.007,1.478,1.478,0,0,0,1.452-.9c.458-1.212-.774-3.616-5.612-6.73-2.847-1.834-5.074-2.422-6.438-1.695-1.765.939-1.847,3.882-1.847,3.911a1.038,1.038,0,0,1-1.034,1,1.014,1.014,0,0,1-1-1.03c0-.169.1-4.156,2.913-5.664,2.081-1.114,4.942-.516,8.5,1.774,6.912,4.449,6.984,7.647,6.411,9.157a3.515,3.515,0,0,1-3.231,2.22" transform="translate(-67.799 -17.35)"/><path class="a" d="M250.486,111.4a1.016,1.016,0,0,1-.964-.7c-.554-1.672-2.857-3.108-5.083-4.5-2.577-1.607-5.241-3.269-5.745-5.679a4.76,4.76,0,0,1,.931-3.718c1.063-1.549,1.415-2.941,1.048-4.139-.608-1.978-3.019-2.973-3.043-2.981a1.016,1.016,0,0,1-.285-1.72,4.682,4.682,0,0,0,2-3.531,5.585,5.585,0,0,0-1.978-3.623,1.015,1.015,0,0,1-.035-1.559c1.886-1.641,2.809-3.339,2.746-5.044-.1-2.814-2.787-4.853-2.814-4.873a1.015,1.015,0,1,1,1.216-1.626c.143.106,3.488,2.652,3.627,6.423a7.936,7.936,0,0,1-2.64,5.9,6.911,6.911,0,0,1,1.908,4.372,5.956,5.956,0,0,1-1.675,4.1,6.792,6.792,0,0,1,2.912,3.568c.558,1.819.117,3.8-1.313,5.884a2.8,2.8,0,0,0-.619,2.154c.326,1.561,2.617,2.99,4.832,4.371,2.532,1.579,5.15,3.212,5.936,5.579a1.015,1.015,0,0,1-.964,1.335" transform="translate(-76.546 -21.818)"/><path class="a" d="M282.658,232.488c-3.591,0-6.787-9.918-8-14.22-.059-.21-5.951-20.933-12.827-26.991-6.487-5.714-7.188-10.552-7.252-11.873L245.907,165.3a1.016,1.016,0,0,1,1.731-1.063l8.813,14.343a1.018,1.018,0,0,1,.149.585c0,.037-.084,4.728,6.569,10.59,7.325,6.454,13.193,27.088,13.44,27.963,2.075,7.33,4.877,12.741,6.022,12.741h.022c2.96-.187,4.805-1.128,5.641-2.877,2.373-4.961-3.819-15.541-6.406-19.2a1.111,1.111,0,0,1-.1-.168L254.834,148.6a1.01,1.01,0,0,1-.087-.5c.791-9.812-8.8-13.674-9.207-13.833L229.767,127.2a1.018,1.018,0,0,1-.513-.516l-3.8-8.59a1.016,1.016,0,1,1,1.858-.822l3.643,8.234,15.37,6.887c.066.024,11.186,4.461,10.466,15.6l26.813,59.3c.886,1.269,9.8,14.318,6.524,21.164-1.166,2.439-3.637,3.794-7.346,4.029-.041,0-.082,0-.122,0" transform="translate(-72.832 -37.702)"/><path class="a" d="M303.74,295.972a1.015,1.015,0,0,1-.677-1.773,3.844,3.844,0,0,0,.986-2.741c-.007-1.656-.876-4.422-4.973-8.2a11.474,11.474,0,0,0-11.581-2.816,16.862,16.862,0,0,0-5.57,2.848,1.015,1.015,0,0,1-1.3-1.556c.1-.087,10.469-8.6,19.831.031,3.756,3.463,5.649,6.749,5.626,9.767a5.839,5.839,0,0,1-1.664,4.179,1.013,1.013,0,0,1-.675.258" transform="translate(-90.572 -89.811)"/><path class="a" d="M223.891,210.763a1.012,1.012,0,0,1-.311-.049,53.409,53.409,0,0,0-29.071-1,1.015,1.015,0,0,1-.6-1.94,54.406,54.406,0,0,1,30.289,1.009,1.015,1.015,0,0,1-.311,1.982" transform="translate(-62.435 -66.612)"/><path class="a" d="M254.761,298.827a1.014,1.014,0,0,1-.62-.212c-11.746-9.077-9.742-22.68-9.65-23.255a1.058,1.058,0,0,1,.05-.192c.1-.283,10.353-28.448,2.168-38.763a79.789,79.789,0,0,1-12.619-23.84,1.015,1.015,0,0,1,1.945-.586A79.206,79.206,0,0,0,248.3,235.143c8.714,10.98-1,38.4-1.815,40.623-.146,1.154-1.405,13.281,8.9,21.242a1.015,1.015,0,0,1-.621,1.819" transform="translate(-75.637 -68.272)"/><path class="a" d="M219.71,383.115a1.015,1.015,0,0,1-.839-.443,45.218,45.218,0,0,1-5.346-11.758c-2.646-9.071-1.714-17.357,2.7-23.964,10.2-15.27,21.116-41.36,21.225-41.622a1.016,1.016,0,0,1,1.875.782c-.111.263-11.108,26.536-21.412,41.968-9.86,14.767,2.51,33.265,2.636,33.45a1.015,1.015,0,0,1-.838,1.587" transform="translate(-68.529 -98.472)"/><path class="a" d="M240.693,366.109a1.013,1.013,0,0,1-.847-.454c-.257-.387-.24-.782-.187-2.091.12-2.942.4-9.833-2.948-15.589-4.69-8.058,1.138-19.976,1.389-20.479a1.015,1.015,0,0,1,1.818.9c-.057.114-5.589,11.445-1.452,18.554,3.648,6.268,3.349,13.574,3.221,16.693-.018.445-.039.942-.028,1.137a1.016,1.016,0,0,1-.967,1.325m.845-1.576h0" transform="translate(-75.911 -105.656)"/><path class="a" d="M197.275,420.019a1.014,1.014,0,0,1-1-1.177l1.9-11.751a1.007,1.007,0,0,1,.107-.317L259.109,293.24a1.015,1.015,0,1,1,1.79.958L200.151,407.583l-1.462,9.037,8.47-6.58L268.268,296a1.015,1.015,0,1,1,1.79.959l-61.21,114.225a1.019,1.019,0,0,1-.273.323L197.9,419.806a1.014,1.014,0,0,1-.623.213" transform="translate(-63.426 -94.594)"/><path class="a" d="M252.186,379.458a1.015,1.015,0,0,1-.711-1.74c5.025-4.929,10.3-5.876,14.958-6.711,4.236-.76,7.581-1.361,9.777-4.694,4.489-6.81-7.662-18.638-7.785-18.757a1.015,1.015,0,1,1,1.408-1.463c.554.532,13.487,13.124,8.073,21.338-2.676,4.061-6.775,4.8-11.114,5.576-4.367.784-9.317,1.673-13.894,6.163a1.014,1.014,0,0,1-.711.29" transform="translate(-81.172 -111.756)"/><path class="a" d="M190.727,382.051a1.015,1.015,0,0,1-.469-.115c-22.474-11.731-21.436-35.433-20.432-58.357.244-5.557.5-11.3.393-16.733-.168-8.906-2.54-15.181-7.05-18.647-5.794-4.455-13.218-2.7-13.293-2.678a1.021,1.021,0,0,1-.594-.034c-4.375-1.612-6.912-5.707-7.337-11.842a32.239,32.239,0,0,1,.633-8.576,1.015,1.015,0,1,1,1.978.46c-.034.146-3.259,14.525,5.159,17.949,1.619-.326,8.785-1.429,14.692,3.111,5.023,3.862,7.662,10.665,7.842,20.219.1,5.494-.149,11.273-.395,16.86-.976,22.289-1.985,45.335,19.343,56.468a1.015,1.015,0,0,1-.47,1.915" transform="translate(-45.852 -85.409)"/><path class="a" d="M138.962,317.579a1,1,0,0,1-.282-.041c-.123-.035-12.188-3.749-8.14-21.057,3.757-16.062,7.529-17.512,8.6-17.574a1.015,1.015,0,0,1,.216,2.016c-.219.083-3.45,1.549-6.834,16.02-3.6,15.374,6.308,18.52,6.732,18.646a1.016,1.016,0,0,1-.287,1.99m.292-36.645h0Zm0,0h0Zm0,0h0Z" transform="translate(-41.919 -90.134)"/><path class="a" d="M146.666,336.008a5.7,5.7,0,0,1-2.594-.566,4.372,4.372,0,0,1-2.282-2.774.916.916,0,0,1-.018-.114c-1.729-17.643,6.456-38.34,6.8-39.213a1.015,1.015,0,1,1,1.885.755c-.083.209-8.324,21.053-6.676,38.181a2.358,2.358,0,0,0,1.234,1.369c.95.46,2.818.669,6.325-.932a1.015,1.015,0,1,1,.843,1.846,13.7,13.7,0,0,1-5.522,1.448" transform="translate(-45.74 -94.594)"/><path class="a" d="M173.531,332.917a1.015,1.015,0,0,1-.768-1.679,37,37,0,0,0,6.881-13.724,1.015,1.015,0,1,1,1.971.488,38.392,38.392,0,0,1-7.316,14.563,1.014,1.014,0,0,1-.768.351" transform="translate(-55.752 -102.362)"/><path class="a" d="M149.586,405.16a21.732,21.732,0,0,1-10.334-2.742,1.017,1.017,0,0,1-.47-.719c-.892-6.25,4.758-9.234,8.193-10.041,2.94-3.988,7.267-10.287,7.726-12.128A14.721,14.721,0,0,0,150.141,366c-5.626-5.449-9.08-14.3-9.224-14.68a1.015,1.015,0,1,1,1.894-.73c.033.088,3.442,8.818,8.743,13.952a16.542,16.542,0,0,1,5.116,15.484c-.718,2.884-7.518,12.11-8.291,13.153a1.021,1.021,0,0,1-.62.391c-.311.062-7.463,1.557-7.019,7.366,2.368,1.293,13.947,6.679,22.934-5.844a1.015,1.015,0,1,1,1.649,1.184c-5.011,6.982-10.855,8.887-15.738,8.887m-2.022-12.59h0Z" transform="translate(-44.82 -113.09)"/><path class="a" d="M200.009,349.767a1.014,1.014,0,0,1-1.008-.9c-.736-6.775,1.1-15.547,5.453-26.07a121.277,121.277,0,0,1,6.743-13.761,1.016,1.016,0,0,1,1.748,1.036c-.136.23-13.6,23.177-11.925,38.576a1.015,1.015,0,0,1-.9,1.119,1.044,1.044,0,0,1-.111.006" transform="translate(-64.261 -99.71)"/><path class="a" d="M196.924,314.352c-.028,0-.056,0-.085,0a1.016,1.016,0,0,1-.929-1.1c.9-10.887.305-26.237-7.6-37.539-4.705-6.726-9.86-8.862-9.911-8.883a1.015,1.015,0,0,1,.753-1.886c.229.091,5.677,2.317,10.731,9.473,4.6,6.517,9.735,18.574,8.054,39a1.015,1.015,0,0,1-1.01.932" transform="translate(-57.447 -85.6)"/><path class="a" d="M201.286,273.942A.988.988,0,0,1,201,273.9a1.013,1.013,0,0,1-.692-1.257c.19-.658,4.778-16.2,14.9-25.688,2.784-2.608,4.175-5.4,4.137-8.305-.065-4.855-4.077-8.477-4.116-8.512a1.015,1.015,0,0,1,1.348-1.517c.193.171,4.722,4.262,4.8,10,.045,3.5-1.562,6.8-4.778,9.813-9.715,9.107-14.289,24.616-14.336,24.771a1.015,1.015,0,0,1-.974.733" transform="translate(-64.722 -73.801)"/><path class="a" d="M320.144,53.8a1.016,1.016,0,0,1-1.015-1.015V1.016a1.015,1.015,0,0,1,2.03,0V52.783a1.016,1.016,0,0,1-1.015,1.015" transform="translate(-103.134 0)"/><path class="a" d="M333.669,40.273H281.9a1.015,1.015,0,0,1,0-2.03h51.768a1.015,1.015,0,0,1,0,2.03" transform="translate(-90.775 -12.359)"/><path class="a" d="M308.593,44.358a1.015,1.015,0,0,1-.718-1.733L323.511,26.99a1.015,1.015,0,0,1,1.436,1.436L309.311,44.061a1.012,1.012,0,0,1-.718.3" transform="translate(-99.401 -8.626)"/><path class="a" d="M324.229,44.358a1.012,1.012,0,0,1-.718-.3L307.876,28.426a1.015,1.015,0,0,1,1.436-1.436l15.636,15.635a1.015,1.015,0,0,1-.718,1.733" transform="translate(-99.401 -8.626)"/><path class="a" d="M39.258,394.867a1.016,1.016,0,0,1-1.015-1.015V342.084a1.015,1.015,0,1,1,2.03,0v51.768a1.016,1.016,0,0,1-1.015,1.015" transform="translate(-12.359 -110.224)"/><path class="a" d="M52.782,381.342H1.015a1.015,1.015,0,1,1,0-2.03H52.782a1.015,1.015,0,1,1,0,2.03" transform="translate(0 -122.583)"/><path class="a" d="M27.707,385.428a1.015,1.015,0,0,1-.718-1.733l15.635-15.635a1.015,1.015,0,1,1,1.436,1.436L28.425,385.131a1.012,1.012,0,0,1-.718.3" transform="translate(-8.626 -118.85)"/><path class="a" d="M43.343,385.428a1.012,1.012,0,0,1-.718-.3L26.99,369.495a1.015,1.015,0,0,1,1.436-1.436l15.635,15.635a1.015,1.015,0,0,1-.718,1.733" transform="translate(-8.626 -118.85)"/></g><g class="e" transform="matrix(1, 0, 0, 1, 352, 4785)"><circle class="c" cx="43" cy="43" r="43" transform="translate(9 6)"/></g><text class="d" transform="translate(404 4846)"><tspan x="-6.204" y="0">1</tspan></text></g></svg>