<svg xmlns="http://www.w3.org/2000/svg" class="front-page-icon" id='profile' viewBox="0 0 47.693 35.77"><path d="M48.785,12.822H45.45v-5l-6.885-.106.036,5.11H17.912l.141-5.11-6.742.106v5.11l-3.407-.106A3.408,3.408,0,0,0,4.5,16.229V40.075a3.408,3.408,0,0,0,3.407,3.407h40.88a3.408,3.408,0,0,0,3.407-3.407V16.229A3.408,3.408,0,0,0,48.785,12.822ZM40.269,9.415h3.407v6.813H40.269Zm-22.143,11.6c2.058,0,3.727,2.192,3.727,4.9s-1.669,4.9-3.727,4.9S14.4,28.62,14.4,25.916,16.068,21.019,18.125,21.019Zm-5.11-11.6h3.407v6.813H13.015ZM10.745,36.58s.4-3.24,1.322-3.851a13.064,13.064,0,0,1,3.56-1.019s1.714,1.831,2.443,1.831S20.51,31.71,20.51,31.71a13.023,13.023,0,0,1,3.562,1.019c1.078.719,1.347,3.851,1.347,3.851H10.745Zm34.634-1.615H30.049v-1.7h15.33Zm0-3.407H30.049v-1.7h15.33Zm0-3.407H30.049v-1.7h15.33Zm0-3.407H30.049v-1.7h15.33Z" transform="translate(-4.499 -7.712)"/></svg>