<svg xmlns="http://www.w3.org/2000/svg" viewBox="0 0 50.769 27.5" id='group-add' class="front-page-icon"><path d="M16.923,18.077H10.577V11.731H6.346v6.346H0v4.231H6.346v6.346h4.231V22.308h6.346Zm21.154,2.115A6.346,6.346,0,1,0,36.152,7.8a10.438,10.438,0,0,1,1.9,6.05,10.643,10.643,0,0,1-1.9,6.05A6.325,6.325,0,0,0,38.077,20.192Zm-10.577,0a6.346,6.346,0,1,0-6.346-6.346A6.32,6.32,0,0,0,27.5,20.192Zm14,4.569a7.827,7.827,0,0,1,2.919,6.008V35h6.346V30.769C50.769,27.512,45.756,25.5,41.5,24.762Zm-14-.338c-4.231,0-12.692,2.115-12.692,6.346V35H40.192V30.769C40.192,26.538,31.731,24.423,27.5,24.423Z" transform="translate(0 -7.5)"/></svg>