<svg xmlns="http://www.w3.org/2000/svg"  viewBox="0 0 36 36" id='search-dollar' class="front-page-icon"><path d="M35.511,31.125,28.5,24.115a1.686,1.686,0,0,0-1.2-.492H26.158a14.622,14.622,0,1,0-2.531,2.531V27.3a1.686,1.686,0,0,0,.492,1.2L31.13,35.5a1.681,1.681,0,0,0,2.384,0l1.99-1.99a1.7,1.7,0,0,0,.007-2.39ZM14.626,24.747A10.124,10.124,0,1,1,24.751,14.624,10.118,10.118,0,0,1,14.626,24.747Zm1.906-10.725-3.165-.949a.918.918,0,0,1-.617-.9.884.884,0,0,1,.83-.927h1.976a1.685,1.685,0,0,1,.9.262.577.577,0,0,0,.712-.051L18,10.672a.563.563,0,0,0-.04-.854,4.026,4.026,0,0,0-2.206-.8V7.875a.562.562,0,0,0-.562-.562H14.064a.562.562,0,0,0-.562.563V9.008a3.131,3.131,0,0,0-3,3.169,3.182,3.182,0,0,0,2.22,3.051l3.165.949a.918.918,0,0,1,.617.9.884.884,0,0,1-.83.927H13.7a1.685,1.685,0,0,1-.9-.262.577.577,0,0,0-.712.051l-.826.788a.563.563,0,0,0,.04.854,4.026,4.026,0,0,0,2.206.8v1.145a.562.562,0,0,0,.563.563H15.19a.562.562,0,0,0,.563-.562V20.242a3.131,3.131,0,0,0,3-3.169,3.182,3.182,0,0,0-2.221-3.051Z"/></svg>