<svg xmlns="http://www.w3.org/2000/svg" id='restroom' class="front-page-icon" viewBox="0 0 42.748 36"><path d="M9,9A4.5,4.5,0,1,0,4.5,4.5,4.5,4.5,0,0,0,9,9ZM36,9a4.5,4.5,0,1,0-4.5-4.5A4.5,4.5,0,0,0,36,9Zm8.951,15.926L41.745,11.862a2.312,2.312,0,0,0-2.1-1.7,6.678,6.678,0,0,1-7.312,0,2.312,2.312,0,0,0-2.1,1.7L27.035,24.926A1.726,1.726,0,0,0,28.772,27h3.853v7.313A1.683,1.683,0,0,0,34.313,36h3.375a1.683,1.683,0,0,0,1.688-1.687V27h3.853A1.71,1.71,0,0,0,44.951,24.926ZM23.625,0h-2.25A1.128,1.128,0,0,0,20.25,1.125v33.75A1.128,1.128,0,0,0,21.375,36h2.25a1.128,1.128,0,0,0,1.125-1.125V1.125A1.128,1.128,0,0,0,23.625,0ZM12.663,10.153a6.666,6.666,0,0,1-7.327,0A3.362,3.362,0,0,0,2.25,13.5v9.563A1.683,1.683,0,0,0,3.938,24.75H4.5v9.563A1.683,1.683,0,0,0,6.188,36h5.625A1.683,1.683,0,0,0,13.5,34.313V24.75h.563a1.683,1.683,0,0,0,1.688-1.687V13.5A3.362,3.362,0,0,0,12.663,10.153Z" transform="translate(-2.25)"/></svg>