<svg xmlns="http://www.w3.org/2000/svg" id='justice' class="front-page-icon" viewBox="0 0 33.572 35.51"><path d="M32.616,9.61,27.744,20.425H26.326l5.2-11.513H23.5V35.733c1.653.061,10.089,2.8,10.089,2.8v1.317H10.913V38.442s8.623-2.71,9.922-2.71V8.912H13.068l5.2,11.513H16.848L11.976,9.61,7.1,20.425H5.686L10.913,8.847V7.512h8.721c0-1.747,1.171-3.174,2.537-3.174,1.445,0,2.537,1.508,2.537,3.174h8.881V8.657l5.315,11.768H37.488L32.616,9.61ZM18.355,21.743c0,3.477-2.412,6.821-6.378,6.821A6.558,6.558,0,0,1,5.6,21.743C5.6,21.749,18.355,21.749,18.355,21.743Zm8.06,0c0,.006,12.757.006,12.757,0,0,3.477-2.412,6.821-6.378,6.821A6.559,6.559,0,0,1,26.415,21.743Z" transform="translate(-5.6 -4.338)"/></svg>