<svg xmlns="http://www.w3.org/2000/svg"  viewBox="0 0 32.15 35.007" id='medical' class="front-page-icon"><path d="M37.559,14.553l-1.5-2.607a1.416,1.416,0,0,0-1.932-.52l-8.986,5.2a.366.366,0,0,1-.547-.319V5.913A1.408,1.408,0,0,0,23.177,4.5H20.17a1.408,1.408,0,0,0-1.413,1.413v10.4a.366.366,0,0,1-.547.319l-8.986-5.2a1.416,1.416,0,0,0-1.932.52l-1.5,2.607a1.4,1.4,0,0,0,.519,1.923l9,5.2a.36.36,0,0,1,0,.629l-9,5.2a1.414,1.414,0,0,0-.52,1.923l1.5,2.607a1.416,1.416,0,0,0,1.932.52l8.986-5.2a.366.366,0,0,1,.547.319v10.4a1.408,1.408,0,0,0,1.413,1.413h3.008a1.408,1.408,0,0,0,1.413-1.413V27.686a.368.368,0,0,1,.547-.319l8.986,5.2a1.416,1.416,0,0,0,1.932-.52l1.5-2.607a1.4,1.4,0,0,0-.52-1.923l-9-5.2a.36.36,0,0,1,0-.629l9-5.2A1.412,1.412,0,0,0,37.559,14.553Z" transform="translate(-5.598 -4.5)"/></svg>