<svg xmlns="http://www.w3.org/2000/svg" class='three-steps-svg' id='hr-inventory' viewBox="0 0 265 216.618"><defs><clipPath id="hr-inventory-a"><rect class="a" width="265" height="216.618"/></clipPath></defs><g class="b"><path class="a" d="M264.039,177.133c-.262-.117-18.4-8.364-33.179-23.264l1.985-7.679c0-.005,0-.011,0-.016s.006-.03.009-.045a1.618,1.618,0,0,0,.033-.234c0-.024,0-.047,0-.071s0-.027,0-.041V48.953h1.939a1.623,1.623,0,0,0,1.623-1.623v-9.5a1.623,1.623,0,0,0-1.623-1.623H232.9V23.584a1.623,1.623,0,0,0-1.623-1.623H217.818a1.623,1.623,0,0,0-1.623,1.623V36.209h-1.544a1.623,1.623,0,0,0-1.623,1.623v9.5a1.623,1.623,0,0,0,1.623,1.623H216.2V133.1q-.622-1.415-1.164-2.87c-7.063-19.054-16.489-30.95-28.816-36.366a41.564,41.564,0,0,0-20.445-3.078l28.913-17.138a1.623,1.623,0,0,0-1.655-2.792L157.041,92.187q-2.819.655-5.745,1.582l-11.64-6.911V82.631L152,89.962a1.622,1.622,0,0,0,1.656,0l41.023-24.316a1.623,1.623,0,0,0-1.655-2.792L152.833,86.68l-13.177-7.824V74.63L152,81.962a1.623,1.623,0,0,0,1.656,0l41.023-24.316a1.623,1.623,0,0,0-1.655-2.791L152.833,78.68l-13.177-7.824V66.629L152,73.961a1.622,1.622,0,0,0,1.656,0l41.023-24.316a1.623,1.623,0,0,0-1.655-2.792L152.833,70.679l-13.177-7.824V58.628L152,65.96a1.622,1.622,0,0,0,1.656,0l41.023-24.316a1.623,1.623,0,0,0-1.655-2.792L152.833,62.678l-13.177-7.824V50.3l12.013,7.335a1.622,1.622,0,0,0,1.673.011L194.682,33.16a1.623,1.623,0,0,0,0-2.791L164.154,12.242a1.622,1.622,0,0,0-1.652,0L139.655,25.7V8.219a1.611,1.611,0,0,0-.021-.247c0-.02-.008-.039-.012-.06a1.624,1.624,0,0,0-.058-.22c-.007-.021-.013-.042-.021-.062a1.621,1.621,0,0,0-.118-.243c-.011-.018-.024-.035-.035-.053a1.65,1.65,0,0,0-.14-.184c-.015-.017-.028-.034-.043-.05a1.675,1.675,0,0,0-.213-.187c-.006,0-.011-.01-.017-.015L129.741.3a1.624,1.624,0,0,0-1.752-.086L.814,73.3A1.623,1.623,0,0,0,0,74.708V176a1.6,1.6,0,0,0,.01.2v0h0a1.567,1.567,0,0,0,.044.234,1.614,1.614,0,0,0,.64.914h0l0,0h0l0,0L9.94,183.7c.015.01.031.017.046.026s.038.028.059.04.043.02.063.031.059.03.089.044.082.033.123.048.062.023.094.032.087.021.131.03.06.013.09.017a1.6,1.6,0,0,0,.187.014l.034,0a1.7,1.7,0,0,0,.2-.013l.062-.011c.045-.008.091-.015.135-.027.024-.006.049-.015.073-.022.041-.012.082-.025.121-.041.024-.009.047-.021.071-.031.04-.018.079-.036.117-.057l.027-.013L43.95,165.212l14.6,9.028a1.623,1.623,0,0,0,1.671.022L106.4,147.349a1.622,1.622,0,0,0,.806-1.4V138.56c0-.011,0-.022,0-.033a1.6,1.6,0,0,0-.026-.254c0-.021-.006-.042-.011-.062a1.642,1.642,0,0,0-.081-.26c-.009-.021-.018-.04-.028-.06a1.625,1.625,0,0,0-.111-.2c-.01-.015-.019-.032-.029-.047a1.647,1.647,0,0,0-.174-.21c-.014-.015-.029-.028-.044-.042a1.571,1.571,0,0,0-.179-.147c-.016-.012-.031-.024-.048-.035l-.022-.016-6.532-4.14,4.837-2.78A36.161,36.161,0,0,1,118,133.215c11.48,5.045,20.338,16.337,27.08,34.523,6,16.187,19.489,28.582,29.748,36.131A125.7,125.7,0,0,0,195.8,216.477a1.622,1.622,0,0,0,1.437-.056l66.913-36.38a1.623,1.623,0,0,0-.113-2.907M139.655,29.466l23.668-13.944,27.35,16.239L152.527,54.357,139.655,46.5Zm79.785-4.26h10.211v11H219.441Zm-3.166,14.248h16.939v1.5H216.275Zm0,4.749h16.939v1.5H216.275ZM229,135.059a1.623,1.623,0,0,0-3.073.1l-1.321,4.354-1.214-4.321a1.623,1.623,0,0,0-3.071-.157l-.881,2.229V48.953h10.211V136.8Zm.575,10.814-2.271,8.784-1.615-1.6a1.622,1.622,0,0,0-1.143-.471h-.007a1.622,1.622,0,0,0-1.146.482l-1.6,1.616-2.273-8.791,2.049-5.187,1.413,5.033a1.624,1.624,0,0,0,1.546,1.184h.017a1.622,1.622,0,0,0,1.553-1.151l1.54-5.077Zm-89.92-55.242,7.613,4.52q-1.474.547-2.973,1.159a47.54,47.54,0,0,1-4.64,1.631ZM9.235,179.279l-5.99-4.107V165.35l5.99,4.107Zm0-13.756-5.99-4.107v-3.15l5.99,4.107ZM10.049,79.9A1.623,1.623,0,0,0,9.235,81.3v77.132l-5.99-4.107V75.647L128.7,3.548l6.331,4.522Zm2.432,99.657V82.244L136.41,11.023V98.74a24.66,24.66,0,0,1-10.051.089V26.424a1.623,1.623,0,0,0-2.431-1.407L23.344,82.822a1.623,1.623,0,0,0-.814,1.407v79.925a1.623,1.623,0,0,0,2.432,1.407l49.2-28.277q2.172-.663,4.446-1.589,2.074-.847,4.094-1.561a1.617,1.617,0,0,0,.213-.077,67.067,67.067,0,0,1,14.866-3.525Zm39.244-44.062a22.528,22.528,0,0,0,13.068,3.433L25.775,161.349V98.639l97.339-55.408V97.808a18.027,18.027,0,0,1-2.722-1.424c-12.3-7.847-13.43-29.04-13.44-29.252a1.623,1.623,0,0,0-3.242.149c.043.938,1.213,23.071,14.926,31.833a23.37,23.37,0,0,0,15.852,3.22L81.637,131.069q-2.1.744-4.254,1.621c-9.717,3.97-17.76,3.994-23.9.073-12.3-7.847-13.43-29.04-13.44-29.253a1.623,1.623,0,0,0-3.242.15c.043.938,1.214,23.071,14.926,31.833M25.775,94.9V85.168l97.339-55.94V39.5Zm78.181,50.111L59.43,170.968l-12.281-7.594,3.514-2.019,7.846,5.206a1.622,1.622,0,0,0,1.708.053l43.74-25.244Zm-1.511-6.52L59.465,163.3l-5.657-3.754,42.929-24.671Zm93.965,74.682c-5.283-2.536-38.162-19.241-48.292-46.568-7.063-19.054-16.489-30.949-28.817-36.366-7.209-3.168-15.45-4.021-24.626-2.569l55.206-30.015c13.624-4.778,25.392-5.06,35.027-.825,11.48,5.045,20.338,16.337,27.079,34.523a58.456,58.456,0,0,0,4.207,8.89v5.537c0,.007,0,.014,0,.021s0,.039,0,.058a1.683,1.683,0,0,0,.028.23c0,.021.007.042.012.063s0,.024.007.035l2.969,11.484-49.741,27.044a1.623,1.623,0,1,0,1.55,2.851l49.029-26.656L222.661,171c-.022.011-.046.017-.068.029l-40.16,21.835a1.623,1.623,0,1,0,1.55,2.851l40.16-21.835a50.426,50.426,0,0,1,1.975-1.663l3.8-14.7a113.256,113.256,0,0,0,11.818,9.975A133.436,133.436,0,0,0,259.83,178.7Z" transform="translate(0 0)"/><path class="a" d="M384.322,252.989a1.623,1.623,0,0,0-2.2-.651l-50.374,27.388a1.623,1.623,0,1,0,1.55,2.851l50.373-27.388a1.623,1.623,0,0,0,.651-2.2" transform="translate(-196.663 -149.855)"/><path class="a" d="M409.274,278.8a1.622,1.622,0,0,0-2.2-.651L356.7,305.541a1.623,1.623,0,1,0,1.55,2.851L408.624,281a1.622,1.622,0,0,0,.651-2.2" transform="translate(-211.493 -165.197)"/><path class="a" d="M421.394,307.764a1.622,1.622,0,0,0-2.2-.651L368.82,334.5a1.623,1.623,0,1,0,1.55,2.852l50.374-27.388a1.623,1.623,0,0,0,.651-2.2" transform="translate(-218.696 -182.409)"/><path class="a" d="M432.72,335.572a1.622,1.622,0,0,0-2.2-.651L380.146,362.31a1.623,1.623,0,1,0,1.55,2.852l50.373-27.388a1.623,1.623,0,0,0,.651-2.2" transform="translate(-225.427 -198.936)"/><path class="a" d="M446.408,364.681a1.623,1.623,0,0,0-2.2-.651l-50.373,27.388a1.623,1.623,0,1,0,1.55,2.851l50.373-27.388a1.623,1.623,0,0,0,.651-2.2" transform="translate(-233.563 -216.236)"/><path class="a" d="M71.868,210.177a2.177,2.177,0,1,0,2.177,2.177,2.177,2.177,0,0,0-2.177-2.177" transform="translate(-41.419 -124.914)"/><path class="a" d="M86.827,202.372A2.177,2.177,0,1,0,89,204.549a2.177,2.177,0,0,0-2.177-2.177" transform="translate(-50.31 -120.275)"/></g></svg>