<svg xmlns="http://www.w3.org/2000/svg" xmlns:xlink="http://www.w3.org/1999/xlink" width="188" height="134.593" viewBox="0 0 188 134.593"><defs><style>.a{fill:none;}.a,.c{stroke:#00ae83;stroke-width:2px;}.b{clip-path:url(#a);}.c{fill:#00ae83;}</style><clipPath id="a"><rect class="a" width="188" height="134.593"/></clipPath></defs><g class="b"><path class="c" d="M187.5,60.634,153.565,1.85A3.692,3.692,0,0,0,148.517.5L132.346,9.833a3.694,3.694,0,0,0-1.352,5.048l1.89,3.275L122.677,22.21l-20.069-7.8a3.694,3.694,0,0,0-1.808-.222L68.2,18.35a3.7,3.7,0,0,0-2.257,1.171c-.251.275-6.121,6.8-3.813,13.929,1.768,5.46,7.6,9.246,17.341,11.253a128.826,128.826,0,0,0,21.094,2.717c6.187.343,8.271.46,13.743,4.612C124.9,60.072,145.6,77.8,145.807,77.975a3.63,3.63,0,0,0,1.419.743,3.708,3.708,0,0,0,.407.406,4.812,4.812,0,0,1-6.084,7.455L130.418,77.5a3.7,3.7,0,0,0-4.673,5.726l1.483,1.21,9.648,7.873a4.812,4.812,0,1,1-6.085,7.455l-11.777-9.61h0L118,89.319a3.7,3.7,0,0,0-4.672,5.726l12.8,10.443a4.812,4.812,0,0,1-6.084,7.456l-8.611-7.028a3.641,3.641,0,0,0-.395-.261l-4.37-3.566a3.7,3.7,0,1,0-4.672,5.726l8.611,7.027a4.812,4.812,0,1,1-6.084,7.455l-8.558-6.984a12.162,12.162,0,0,0-7.769-11.3,12.172,12.172,0,0,0-5.361-16.055l4.016-3.277A12.2,12.2,0,0,0,71.412,65.773l-.261.213a12.2,12.2,0,0,0-19.444-6.093L40.32,69.187c-2.62-4.1-6.82-6.558-10.083-7.942L57.006,14.881a3.694,3.694,0,0,0-1.352-5.048L39.482.5A3.693,3.693,0,0,0,34.435,1.85L.5,60.634a3.693,3.693,0,0,0,1.352,5.047l16.171,9.337a3.691,3.691,0,0,0,1.848.5,3.693,3.693,0,0,0,3.2-1.848L26.5,67.712c2.547.961,6.359,2.9,8.03,6.251a12.185,12.185,0,0,0,6.954,21.006,12.162,12.162,0,0,0,10.757,13.179A12.162,12.162,0,0,0,63,121.328a12.2,12.2,0,0,0,19.862,10.523l8.611-7.028a12.264,12.264,0,0,0,1.959-2.032l6.412,5.232a12.2,12.2,0,0,0,19.692-7.144,12.175,12.175,0,0,0,15.687-12.733,12.162,12.162,0,0,0,10.757-13.179A12.192,12.192,0,0,0,153.3,74.312c1.573-3.585,5.555-5.616,8.193-6.6l3.44,5.958a3.695,3.695,0,0,0,5.048,1.352l16.171-9.337a3.694,3.694,0,0,0,1.352-5.047M18.514,66.771,8.744,61.13,38.987,8.745l9.772,5.64ZM39.146,85.9a4.817,4.817,0,0,1,.685-6.771L56.38,65.619a4.812,4.812,0,0,1,6.084,7.456L45.916,86.58a4.813,4.813,0,0,1-6.77-.684M49.9,99.076a4.818,4.818,0,0,1,.686-6.77L76.085,71.5a4.812,4.812,0,1,1,6.084,7.455l-12.7,10.363h0l-12.8,10.443a4.82,4.82,0,0,1-6.771-.685m10.757,13.181a4.818,4.818,0,0,1,.686-6.77l12.8-10.444a4.812,4.812,0,0,1,6.083,7.458l-4.178,3.408-.008.007-8.611,7.028a4.819,4.819,0,0,1-6.77-.686m27.883,3.6A4.779,4.779,0,0,1,86.8,119.1l-8.611,7.028a4.812,4.812,0,1,1-6.084-7.455l8.616-7.031a4.812,4.812,0,0,1,7.825,4.216M147.4,69.623c-6.294-5.349-20.286-17.151-28.622-23.478-7.274-5.521-11.236-5.741-17.8-6.1a122.162,122.162,0,0,1-20.01-2.577c-6.73-1.386-10.919-3.614-11.8-6.271-.673-2.039.609-4.407,1.491-5.705l30.144-3.85,20.547,7.988a3.7,3.7,0,0,0,2.7-.01l12.563-4.991,21.143,36.622c-3.378,1.432-7.767,4.012-10.36,8.378m22.084-2.852L139.241,14.385l9.771-5.64L179.256,61.13Z" transform="translate(0 0)"/></g></svg>