<svg class='three-steps-svg' id='icon-checklist-step-1' viewBox="0 0 271 273"><defs><filter id="icon-checklist-step-1-a" x="0" y="0" width="104" height="104" filterUnits="userSpaceOnUse"><feOffset dy="3" input="SourceAlpha"/><feGaussianBlur stdDeviation="3" result="b"/><feFlood flood-opacity="0.161"/><feComposite operator="in" in2="b"/><feComposite in="SourceGraphic"/></filter></defs><g transform="translate(81.606 64.191)"><circle class="a" cx="131" cy="131" r="131" transform="translate(-72.606 -53.191)"/><path class="b" d="M46.546,106.9A14.6,14.6,0,1,1,61.137,92.4a14.75,14.75,0,0,1-14.591,14.5m-2.506-5.525a2.676,2.676,0,0,0,2.237-1.309,51.285,51.285,0,0,1,8.906-11.087,2.415,2.415,0,0,0,.151-3.592,2.381,2.381,0,0,0-3.572-.069A49.446,49.446,0,0,0,44.447,93.6c-.616.837-.706.853-1.321-.021-.291-.414-.567-.839-.847-1.26A26.2,26.2,0,0,0,39.8,89.16a2.3,2.3,0,0,0-2.307-.831,2.484,2.484,0,0,0-1.51,3.925c1.3,2.051,2.787,3.977,4.239,5.924a18.93,18.93,0,0,0,1.885,2.375,2.822,2.822,0,0,0,1.936.821" transform="translate(-12.444 -30.28)"/><path class="b" d="M46.538,166.665a14.6,14.6,0,1,1,14.6-14.563,14.742,14.742,0,0,1-14.6,14.563m-2.573-5.533a2.766,2.766,0,0,0,2.495-1.587,48.122,48.122,0,0,1,8.11-10.182,9.81,9.81,0,0,0,.9-.924,2.48,2.48,0,0,0-.162-3.317,2.332,2.332,0,0,0-3.28-.26,14.442,14.442,0,0,0-1.368,1.2,57.442,57.442,0,0,0-6.322,7.46c-.442.618-.608.627-1.06.037-.154-.2-.3-.409-.434-.622A30.1,30.1,0,0,0,39.875,149a2.369,2.369,0,0,0-2.354-.914A2.489,2.489,0,0,0,36,152.056c1.311,2.048,2.791,3.976,4.244,5.923a18.735,18.735,0,0,0,1.941,2.428,2.45,2.45,0,0,0,1.776.725" transform="translate(-12.444 -53.573)"/><path class="c" d="M9.155,165.673l.469-.231c-.046-.15-.188-.143-.3-.162-4.437-.784-8.436-5.1-9.162-9.765A13.715,13.715,0,0,1,0,153.4Q.006,95.733,0,38.065a12.242,12.242,0,0,1,12.23-12.236c3.925-.01,7.851.016,11.776-.017.763-.006,1.019.222,1,.993q-.073,2.695,0,5.393c.02.759-.214,1.01-.989,1-3.773-.034-7.547-.027-11.321-.01a5.022,5.022,0,0,0-5.26,4.217,5.158,5.158,0,0,0-.071.981q0,57.288,0,114.576c0,3.233,1.992,5.242,5.317,5.378.2.009.405,0,.608,0q45.169,0,90.339,0A5.71,5.71,0,0,0,108,156.773a5.278,5.278,0,0,0,1.423-3.353c.016-.176,0-.355,0-.532q0-57.06,0-114.12a5.274,5.274,0,0,0-2.182-4.679,5.658,5.658,0,0,0-3.32-.9c-3.7-.019-7.4-.006-11.093-.009-1.023,0-1.031-.007-1.033-1,0-1.823.018-3.647-.012-5.47-.01-.638.17-.9.856-.9,4.128.026,8.258-.066,12.384.035a12.2,12.2,0,0,1,11.762,12.142q-.013,46.006,0,92.01,0,11.815,0,23.629a12.186,12.186,0,0,1-8.359,11.423c-.359.115-.732.192-1.124.293,0,.225.28.172.336.326Z" transform="translate(0 -10.056)"/><path class="c" d="M78.2,31.032q-12.079,0-24.158,0c-2.332,0-3.23-.889-3.231-3.2q0-6,0-12c0-2.141.968-3.1,3.117-3.1,3.52,0,7.04-.012,10.56.009.6,0,.894-.112.96-.806a12.585,12.585,0,0,1,5.744-9.8,12.811,12.811,0,0,1,18.58,5.107,11.019,11.019,0,0,1,1.186,4.6c.032.771.336.9,1.015.9,3.444-.027,6.888-.014,10.332-.012,2.364,0,3.278.9,3.278,3.235q0,6,0,12c0,2.093-.969,3.06-3.073,3.061q-12.155,0-24.31,0m-.086-12.944a5.079,5.079,0,0,0,5.4-5.218A5.128,5.128,0,0,0,78.365,7.46a5.193,5.193,0,0,0-5.56,5.271,5.132,5.132,0,0,0,5.307,5.356" transform="translate(-19.802)"/><path class="c" d="M70.841,202.154h36.308a2.835,2.835,0,0,1,1.752.363,2.877,2.877,0,0,1,.759,3.063,2.014,2.014,0,0,1-1.978,1.489c-.277.021-.557.012-.835.012H34.685c-2.238-.006-3.034-.885-2.8-3.1a1.883,1.883,0,0,1,1.817-1.809c.326-.03.657-.017.987-.017H70.841" transform="translate(-12.411 -78.787)"/><path class="c" d="M110.879,146.358c6.253,0,12.507.047,18.759-.023,2.541-.029,2.9,1.61,2.53,3.478a1.852,1.852,0,0,1-1.762,1.437,6.448,6.448,0,0,1-.909.033q-18.494,0-36.987,0a6.448,6.448,0,0,1-1.134-.062,1.889,1.889,0,0,1-1.72-2.047c-.005-.3-.009-.608,0-.912a1.8,1.8,0,0,1,1.855-1.891c.986-.035,1.974-.012,2.962-.012h16.4" transform="translate(-34.94 -57.033)"/><path class="c" d="M110.887,96.5q-9.417,0-18.834,0a2.223,2.223,0,0,1-2.037-.778,3.3,3.3,0,0,1-.205-3.057c.311-.919,1.195-1.089,2.071-1.09q9.948-.007,19.9,0c5.924,0,11.848.039,17.77-.018,2.471-.024,2.927,1.459,2.607,3.38a1.932,1.932,0,0,1-2.132,1.56c-2.278.013-4.556,0-6.834,0h-12.3" transform="translate(-34.896 -35.683)"/><path class="c" d="M121.352,118.481q7.1,0,14.2,0c2.174,0,3.262,1.759,2.342,3.755a1.967,1.967,0,0,1-1.6,1.125,5.708,5.708,0,0,1-.909.045q-14.01,0-28.021,0a4.531,4.531,0,0,1-1.281-.114,1.828,1.828,0,0,1-1.481-1.859c0-.026,0-.051,0-.076-.066-2.342.451-2.876,2.782-2.876h13.973" transform="translate(-40.764 -46.177)"/><path class="c" d="M121.265,174.248c4.759,0,9.518.062,14.276-.025,2.613-.048,2.866,1.989,2.379,3.7a1.663,1.663,0,0,1-1.172,1.1,4.212,4.212,0,0,1-1.35.157q-14.01,0-28.021-.006a5.548,5.548,0,0,1-1.2-.1,1.817,1.817,0,0,1-1.571-1.935c0-.127,0-.253,0-.38-.007-1.909.581-2.509,2.467-2.509q7.1,0,14.2,0" transform="translate(-40.766 -67.901)"/><g class="f" transform="matrix(1, 0, 0, 1, -81.61, -64.19)"><circle class="d" cx="43" cy="43" r="43" transform="translate(9 6)"/></g><text class="e" transform="translate(-29.606 -3.191)"><tspan x="-6.204" y="0">1</tspan></text></g></svg>