<svg class='church-icon' id='church' viewBox="0 0 507.13 383.494"><defs><clipPath id="church-a"><rect class="a" width="507.13" height="383.494"/></clipPath></defs><g class="b"><path class="c" d="M507.12,288.52a4.987,4.987,0,0,0-.057-.559c-.019-.144-.029-.289-.06-.429-.036-.161-.1-.314-.146-.471s-.091-.306-.155-.45-.152-.285-.232-.427-.146-.279-.235-.408-.2-.252-.311-.377-.2-.249-.317-.361-.225-.187-.339-.28a4.858,4.858,0,0,0-.444-.338c-.029-.018-.051-.043-.081-.061l-93.3-57.192a5,5,0,0,0-2.613-.737H365.837a4.95,4.95,0,0,0-3.016,1.036l-32.7-18.67a5.016,5.016,0,0,0,.086-.855V128a5,5,0,0,0-2.521-4.342L258.565,84.192V33.456h18.823a5,5,0,0,0,0-10H258.565V5a5,5,0,1,0-10,0V23.456H229.742a5,5,0,0,0,0,10h18.823V84.192L179.44,123.661A5,5,0,0,0,176.92,128v79.938a5.016,5.016,0,0,0,.086.855L146.123,226.43H101a5,5,0,0,0-2.559.705l-96,57.191c-.038.023-.067.054-.1.077a5.144,5.144,0,0,0-.444.329c-.117.093-.237.182-.344.284s-.219.238-.326.362-.215.241-.307.373-.165.271-.244.41-.163.275-.229.422-.11.3-.162.453-.108.307-.145.466c-.033.144-.047.293-.068.442a5.01,5.01,0,0,0-.055.548c0,.044-.013.085-.013.129v75.5a5,5,0,0,0,5,5H116.82v9.37a5,5,0,0,0,5,5h96.511a5,5,0,0,0,5-5V319.77a30.234,30.234,0,0,1,60.468,0v58.724a5,5,0,0,0,5,5H385.31a5,5,0,0,0,5-5v-9.37H502.13a5,5,0,0,0,5-5v-75.5c0-.034-.01-.066-.01-.1M186.92,130.906l66.645-38.053,66.645,38.053v72.229L256.045,166.5a5,5,0,0,0-4.959,0L186.92,203.136ZM10,293.621H116.82v65.5H10Zm370.31,79.873H293.8V319.77a40.234,40.234,0,0,0-80.468,0v53.724H126.82V276.366a5,5,0,0,0-10,0v7.255H23.162l79.215-47.191h26.232L88.4,259.389a5,5,0,0,0,4.959,8.684L253.565,176.6l160.206,91.475a5,5,0,0,0,4.958-8.684L378.521,236.43h28.9l76.986,47.191h-94.1v-9.3a5,5,0,0,0-10,0v99.17Zm116.82-14.37H390.31v-65.5H497.13Z"/><path class="c" d="M279.067,136.741a25.136,25.136,0,1,0-25.136,25.136,25.165,25.165,0,0,0,25.136-25.136m-40.272,0a15.136,15.136,0,1,1,15.136,15.136,15.153,15.153,0,0,1-15.136-15.136" transform="translate(0 0)"/></g></svg>