<svg class='icon' id='status-quo-sign' viewBox="0 0 243.825 361.177"><defs><clipPath id="status-quo-sign-a"><rect class="a" width="243.825" height="361.177"/></clipPath></defs><g class="b"><path class="c" d="M243.616,129.011a3.449,3.449,0,0,0-3.24-2.267H137.367V112.97h65.167a3.45,3.45,0,0,0,2.221-.81L242.6,80.312a3.45,3.45,0,0,0,0-5.279L204.756,43.186a3.45,3.45,0,0,0-2.221-.81H137.367V3.445A3.449,3.449,0,0,0,133.918,0h-24.01a3.449,3.449,0,0,0-3.449,3.449v38.93H3.449a3.45,3.45,0,0,0-2.221,6.089L35.934,77.673,1.228,106.882a3.45,3.45,0,0,0,2.221,6.089H106.458v13.773H41.291a3.449,3.449,0,0,0-2.221.81L1.228,159.4a3.45,3.45,0,0,0,0,5.279L39.07,196.528a3.451,3.451,0,0,0,2.221.81h65.167v41.651c-12.022,3.435-30.634,11.067-38.252,26.564-5.34,10.864-4.354,23.595,2.922,37.878-.519,1.619-.991,3.193-1.414,4.7-1.229,4.388-2.152,8.513-2.846,12.209-.892-1.912-1.881-3.806-2.939-5.669,2.454-19.9-1.16-34.313-10.759-42.845-14.131-12.56-35.589-7.25-36.5-7.018a3.449,3.449,0,0,0-2.591,3.208c-.8,20.568,4.067,35.315,14.459,43.83,7.805,6.4,17,7.819,23.635,7.819a45.873,45.873,0,0,0,6.4-.445c3.105,5.659,5.391,11.507,6.058,17.123a80.3,80.3,0,0,0-26.3,3.941c-16.7,5.449-26.255,14.573-26.654,14.959a3.449,3.449,0,1,0,4.8,4.956c.086-.083,8.788-8.4,23.994-13.356,20.5-6.688,42.167-4.2,64.388,7.394a3.45,3.45,0,0,0,4.164-.755,18.617,18.617,0,0,1,3.1-2.531,20.04,20.04,0,0,1,4.7-2.329c5.183-1.741,10.487-.954,15.818,2.329a32.2,32.2,0,0,1,3.571,2.571c.118.1.236.192.353.292a3.45,3.45,0,0,0,4.451-5.271,40.491,40.491,0,0,0-3.649-2.75V197.338H240.376a3.449,3.449,0,0,0,2.221-6.088l-34.706-29.209L242.6,132.833a3.45,3.45,0,0,0,1.019-3.822M32.869,306.475c-8.165-6.723-12.185-18.648-11.963-35.469,5.5-.874,18.772-1.94,27.681,5.979,6.44,5.724,9.511,15.164,9.173,28.127a167.5,167.5,0,0,0-23.243-25.657,3.449,3.449,0,0,0-4.534,5.2c.218.19,14.407,12.687,24.614,28.019-5.5.32-14.535-.277-21.727-6.2M200.313,159.4a3.45,3.45,0,0,0,0,5.279l30.607,25.759H42.549l-33.743-28.4,33.743-28.4H230.921Zm-156.8-79.09a3.45,3.45,0,0,0,0-5.279L12.9,49.274H201.276l33.743,28.4-33.743,28.4H12.9ZM113.357,6.895h17.112V42.375H113.357Zm0,106.076h17.112v13.774H113.357ZM74.39,268.61c6.054-12.335,21.241-19.044,32.068-22.386,1.211-.374,2.366-.705,3.449-1,1.259-.34,2.418-.628,3.449-.868.741-.172,1.418-.321,2.015-.446,3.694,14.259,3.014,26.166-2.015,35.492a33.208,33.208,0,0,1-1.928,3.151c-.485.7-1,1.367-1.521,2.015a35.676,35.676,0,0,1-3.449,3.692c-8.94,8.3-21,11.375-27.1,12.452,4.673-12.709,12.582-27.506,25.832-38.494a3.449,3.449,0,1,0-4.4-5.31c-12.908,10.7-21.1,24.612-26.263,37.2-3.656-9.669-3.706-18.22-.131-25.5m-2.662,68.158a131.709,131.709,0,0,1,4.679-26.949c.163-.58.337-1.173.515-1.772,3.793-.4,17.68-2.41,29.536-10.884v49.386c-.2.16-.4.317-.578.467a99.477,99.477,0,0,0-34.152-10.248m42.9,5.316c-.435.146-.857.3-1.269.467V291.128a41.6,41.6,0,0,0,3.714-4.6c8.435-12.147,9.811-28.15,4.088-47.562a3.449,3.449,0,0,0-3.809-2.437c-.282.041-1.738.264-3.993.742v-39.93h17.112V342.28a23.873,23.873,0,0,0-15.842-.2" transform="translate(0 0.004)"/><path class="c" d="M167.617,211.126A6,6,0,0,0,166,210.112a9.127,9.127,0,0,0-1.932-.586q-.792-.158-1.536-.38a7.67,7.67,0,0,1-1.33-.523,3.465,3.465,0,0,1-.934-.665,1.14,1.14,0,0,1-.348-.807,1.632,1.632,0,0,1,.649-1.3,2.375,2.375,0,0,1,1.567-.538,2.712,2.712,0,0,1,1.789.617,1.92,1.92,0,0,1,.744,1.536h3.8a4.5,4.5,0,0,0-.507-2.09,5.615,5.615,0,0,0-1.362-1.71,6.6,6.6,0,0,0-2.011-1.156,7.021,7.021,0,0,0-2.454-.427,6.769,6.769,0,0,0-2.375.411,6.037,6.037,0,0,0-1.916,1.124,5.235,5.235,0,0,0-1.267,1.663,4.6,4.6,0,0,0-.459,2.026,3.354,3.354,0,0,0,.523,1.837,5.365,5.365,0,0,0,1.425,1.473,8.77,8.77,0,0,0,2.106,1.092,15.659,15.659,0,0,0,2.565.7,4.3,4.3,0,0,1,1.9.839,1.786,1.786,0,0,1,.7,1.409,2.054,2.054,0,0,1-.823,1.631,3.073,3.073,0,0,1-2.026.681,3.029,3.029,0,0,1-2.027-.7,2.126,2.126,0,0,1-.823-1.678h-3.8a4.7,4.7,0,0,0,.523,2.185,5.732,5.732,0,0,0,1.425,1.773,6.937,6.937,0,0,0,2.122,1.2,7.781,7.781,0,0,0,5.177,0,6.8,6.8,0,0,0,2.106-1.219,5.8,5.8,0,0,0,1.425-1.821,4.888,4.888,0,0,0,.523-2.217,4.3,4.3,0,0,0-.412-1.916,4.691,4.691,0,0,0-1.108-1.457" transform="translate(-102.084 -132.378)"/><path class="c" d="M204.436,187.029h-3.8V202.1a8.017,8.017,0,0,0,.65,3.214,8.2,8.2,0,0,0,4.37,4.37,8.031,8.031,0,0,0,3.214.648h.475v-3.42h-.158a4.583,4.583,0,0,1-1.853-.38,4.741,4.741,0,0,1-2.517-2.517,4.581,4.581,0,0,1-.38-1.853v-6.143h4.908v-3.293h-4.908Z" transform="translate(-131.43 -122.515)"/><path class="c" d="M245.727,204.745a9.437,9.437,0,0,0-2.961-1.947,9.581,9.581,0,0,0-7.252,0,9.429,9.429,0,0,0-2.961,1.947,9.157,9.157,0,0,0-2,2.882,8.848,8.848,0,0,0,0,7.03,9.15,9.15,0,0,0,2,2.881,9.425,9.425,0,0,0,2.961,1.948,9.262,9.262,0,0,0,3.626.712,7.03,7.03,0,0,0,3.214-.744,7.279,7.279,0,0,0,2.486-2.043v2.28h3.61v-8.55a8.6,8.6,0,0,0-.728-3.515,9.179,9.179,0,0,0-2-2.882m-1.393,8.6a5.656,5.656,0,0,1-2.977,2.993,5.452,5.452,0,0,1-4.306,0,5.656,5.656,0,0,1-2.977-2.993,5.686,5.686,0,0,1,0-4.4,5.657,5.657,0,0,1,2.977-2.992,5.452,5.452,0,0,1,4.306,0,5.657,5.657,0,0,1,2.977,2.992,5.686,5.686,0,0,1,0,4.4" transform="translate(-150.555 -132.378)"/><path class="c" d="M299.206,210.336h.475v-3.42h-.158a4.578,4.578,0,0,1-1.853-.38,5.176,5.176,0,0,1-.605-.318,4.681,4.681,0,0,1-.9-.7,4.83,4.83,0,0,1-1.013-1.5,4.585,4.585,0,0,1-.38-1.853v-6.143h4.908V192.73h-4.908v-5.7h-3.8V202.1a8.021,8.021,0,0,0,.649,3.214,8.2,8.2,0,0,0,4.37,4.37,7.816,7.816,0,0,0,1.073.372,8.218,8.218,0,0,0,2.141.277" transform="translate(-190.607 -122.516)"/><path class="c" d="M325.012,218.067c.177.216.364.425.562.623a8.6,8.6,0,0,0,2.66,1.8,8.335,8.335,0,0,0,6.523,0,8.544,8.544,0,0,0,4.465-4.465,8.049,8.049,0,0,0,.665-3.262v-9.215h-3.8v9.373a4.979,4.979,0,0,1-1.346,3.4,4.62,4.62,0,0,1-1.457,1.03,4.4,4.4,0,0,1-3.578,0,4.616,4.616,0,0,1-1.457-1.03,4.977,4.977,0,0,1-1.346-3.4v-9.373h-3.8v9.215a8.049,8.049,0,0,0,.665,3.262,8.683,8.683,0,0,0,1.243,2.037" transform="translate(-211.655 -133.34)"/><path class="c" d="M378.524,216.778a5.742,5.742,0,0,0,1.425,1.774,6.709,6.709,0,0,0,1.586.984c.173.078.351.152.536.219a7.5,7.5,0,0,0,2.581.443c.113,0,.222-.009.333-.013a7.352,7.352,0,0,0,2.264-.43,6.8,6.8,0,0,0,2.106-1.219,5.8,5.8,0,0,0,1.425-1.821,4.888,4.888,0,0,0,.523-2.216,4.3,4.3,0,0,0-.411-1.916,4.7,4.7,0,0,0-1.108-1.457,5.994,5.994,0,0,0-1.615-1.013,9.108,9.108,0,0,0-1.932-.586c-.428-.086-.843-.189-1.25-.3-.095-.027-.192-.05-.285-.078a7.671,7.671,0,0,1-1.33-.523,3.47,3.47,0,0,1-.934-.665,1.142,1.142,0,0,1-.348-.807,1.633,1.633,0,0,1,.649-1.3,2.375,2.375,0,0,1,1.567-.538,3.055,3.055,0,0,1,.681.082,2.606,2.606,0,0,1,1.108.535,1.918,1.918,0,0,1,.744,1.536h3.8a4.5,4.5,0,0,0-.507-2.09,5.612,5.612,0,0,0-1.361-1.71,6.6,6.6,0,0,0-2.011-1.156,6.868,6.868,0,0,0-1.773-.4c-.224-.02-.451-.032-.681-.032a6.77,6.77,0,0,0-2.375.412c-.136.05-.264.108-.393.165a5.889,5.889,0,0,0-1.523.959,5.229,5.229,0,0,0-1.267,1.663,4.6,4.6,0,0,0-.459,2.026,3.35,3.35,0,0,0,.523,1.836,5.351,5.351,0,0,0,1.425,1.473,8.178,8.178,0,0,0,1.3.752c.257.121.523.236.805.34a15.7,15.7,0,0,0,2.565.7c.028.006.052.014.079.021a4.23,4.23,0,0,1,1.821.819,1.784,1.784,0,0,1,.7,1.409,2.054,2.054,0,0,1-.823,1.631,2.979,2.979,0,0,1-1.694.666c-.109.009-.219.015-.333.015a3.028,3.028,0,0,1-2.026-.7,2.125,2.125,0,0,1-.823-1.678H378a4.876,4.876,0,0,0,.084.867,4.636,4.636,0,0,0,.438,1.318" transform="translate(-247.616 -132.378)"/><path class="c" d="M447.189,217.538a9.432,9.432,0,0,0,2.961,1.947,9.255,9.255,0,0,0,3.626.713,7.178,7.178,0,0,0,3.072-.665,7.641,7.641,0,0,0,2.438-1.773v7.631h3.8V211.142a8.594,8.594,0,0,0-.729-3.515,9.175,9.175,0,0,0-1.995-2.882A9.439,9.439,0,0,0,457.4,202.8a9.584,9.584,0,0,0-7.252,0,9.432,9.432,0,0,0-2.961,1.947,9.163,9.163,0,0,0-1.995,2.882,8.844,8.844,0,0,0,0,7.03,9.152,9.152,0,0,0,1.995,2.882m1.52-8.6a5.651,5.651,0,0,1,2.976-2.992,5.453,5.453,0,0,1,4.307,0,5.654,5.654,0,0,1,2.977,2.992,5.686,5.686,0,0,1,0,4.4,5.656,5.656,0,0,1-2.977,2.993,5.453,5.453,0,0,1-4.307,0,5.654,5.654,0,0,1-2.976-2.993,5.682,5.682,0,0,1,0-4.4" transform="translate(-291.155 -132.378)"/><path class="c" d="M507.343,218.691a8.592,8.592,0,0,0,2.66,1.8,8.331,8.331,0,0,0,6.523,0,8.545,8.545,0,0,0,4.465-4.465,8.041,8.041,0,0,0,.665-3.262v-9.215h-3.8v9.373a4.981,4.981,0,0,1-1.346,3.4,4.619,4.619,0,0,1-1.457,1.029,4.4,4.4,0,0,1-3.578,0,4.62,4.62,0,0,1-1.457-1.029,4.981,4.981,0,0,1-1.346-3.4v-9.373h-3.8v9.215a8.042,8.042,0,0,0,.665,3.262,8.592,8.592,0,0,0,1.805,2.66" transform="translate(-330.726 -133.34)"/><path class="c" d="M562.494,217.538a9.537,9.537,0,0,0,13.236,0,9.171,9.171,0,0,0,2-2.882,8.844,8.844,0,0,0,0-7.03,9.183,9.183,0,0,0-2-2.882,9.537,9.537,0,0,0-13.236,0,9.164,9.164,0,0,0-2,2.882,8.848,8.848,0,0,0,0,7.03,9.152,9.152,0,0,0,2,2.882m1.5-8.6a5.478,5.478,0,0,1,1.187-1.789,5.74,5.74,0,0,1,1.773-1.2,5.453,5.453,0,0,1,4.307,0,5.744,5.744,0,0,1,1.773,1.2,5.478,5.478,0,0,1,1.188,1.789,5.88,5.88,0,0,1,0,4.4,5.467,5.467,0,0,1-1.188,1.789,5.733,5.733,0,0,1-1.773,1.2,5.453,5.453,0,0,1-4.307,0,5.729,5.729,0,0,1-1.773-1.2A5.467,5.467,0,0,1,564,213.342a5.876,5.876,0,0,1,0-4.4" transform="translate(-366.688 -132.378)"/><path class="c" d="M226.8,439.107a8.547,8.547,0,0,0-2.676-1.8,8.158,8.158,0,0,0-3.278-.665,6.717,6.717,0,0,0-2.518.475,7.053,7.053,0,0,0-2.106,1.3v-6.966h-3.8v22.8h3.8v-9.4a4.757,4.757,0,0,1,.364-1.853,4.954,4.954,0,0,1,.982-1.52,4.576,4.576,0,0,1,1.473-1.029,4.48,4.48,0,0,1,3.61,0,4.58,4.58,0,0,1,1.473,1.029,4.967,4.967,0,0,1,.982,1.52,4.763,4.763,0,0,1,.364,1.853v9.4h3.8v-9.183a8.164,8.164,0,0,0-.665-3.278,8.55,8.55,0,0,0-1.805-2.676" transform="translate(-139.149 -282.624)"/><path class="c" d="M285.14,451.28a8.993,8.993,0,0,0-1.63-2.12,9.476,9.476,0,0,0-1.82-1.36,10.08,10.08,0,0,0-1.157-.587,9.441,9.441,0,0,0-12.286,4.829,8.675,8.675,0,0,0,0,7.03,9.414,9.414,0,0,0,8.629,5.542,9.619,9.619,0,0,0,4.815-1.275q.291-.168.569-.356a9.5,9.5,0,0,0,2.011-1.837,9.28,9.28,0,0,0,1.378-2.327h-4.212a5.362,5.362,0,0,1-1.932,1.726,5.448,5.448,0,0,1-2.628.649,5.281,5.281,0,0,1-1.868-.333,5.591,5.591,0,0,1-1.6-.918,5.848,5.848,0,0,1-1.219-1.377,5.524,5.524,0,0,1-.728-1.742h14.693a8.755,8.755,0,0,0-.634-4.782c-.116-.262-.244-.515-.381-.761m-3.449,2.693H271.525a5.4,5.4,0,0,1,.776-1.631,5.883,5.883,0,0,1,1.219-1.282,5.515,5.515,0,0,1,1.551-.839,5.568,5.568,0,0,1,3.61,0,5.761,5.761,0,0,1,1.567.839,5.434,5.434,0,0,1,1.219,1.282c.079.117.153.237.223.358a5.675,5.675,0,0,1,.537,1.273Z" transform="translate(-175.233 -292.486)"/><path class="c" d="M344.79,451.489a9.12,9.12,0,0,0-1.719-2.329,9.437,9.437,0,0,0-2.961-1.947,9.581,9.581,0,0,0-7.252,0,9.429,9.429,0,0,0-2.961,1.947,9.157,9.157,0,0,0-2,2.882c-.083.187-.156.378-.225.57a8.873,8.873,0,0,0,0,5.891c.069.191.142.382.225.569a9.15,9.15,0,0,0,2,2.881,9.425,9.425,0,0,0,2.961,1.948,9.263,9.263,0,0,0,3.626.712,7.03,7.03,0,0,0,3.214-.744,7.28,7.28,0,0,0,2.486-2.043v2.28h3.61v-8.55a8.6,8.6,0,0,0-.728-3.515c-.084-.19-.181-.371-.276-.553m-3.112,6.268a5.656,5.656,0,0,1-2.977,2.993,5.452,5.452,0,0,1-4.306,0,5.656,5.656,0,0,1-2.977-2.993,5.686,5.686,0,0,1,0-4.4,5.657,5.657,0,0,1,2.977-2.992,5.452,5.452,0,0,1,4.306,0,5.657,5.657,0,0,1,2.977,2.992,5.686,5.686,0,0,1,0,4.4" transform="translate(-214.322 -292.486)"/><path class="c" d="M389.876,431.444v22.8h3.8v-22.8h-3.8Z" transform="translate(-255.395 -282.624)"/><path class="c" d="M412.3,452.344a8.3,8.3,0,0,0,2.613,1.757,8.026,8.026,0,0,0,3.214.649h.475v-3.42h-.158a4.584,4.584,0,0,1-1.853-.38,4.741,4.741,0,0,1-2.517-2.517,4.58,4.58,0,0,1-.38-1.853v-6.143H418.6v-3.293H413.69v-5.7h-3.8v15.073a8.021,8.021,0,0,0,.649,3.214,8.3,8.3,0,0,0,1.757,2.613" transform="translate(-268.506 -282.624)"/><path class="c" d="M447.2,444.839a4.756,4.756,0,0,1,.364-1.853,4.951,4.951,0,0,1,.982-1.52,4.582,4.582,0,0,1,1.473-1.029,4.479,4.479,0,0,1,3.61,0,4.582,4.582,0,0,1,1.473,1.029,4.957,4.957,0,0,1,.982,1.52,4.763,4.763,0,0,1,.364,1.853v9.405h3.8v-9.183a8.162,8.162,0,0,0-.665-3.277A8.461,8.461,0,0,0,455.1,437.3a8.167,8.167,0,0,0-3.277-.665,6.709,6.709,0,0,0-2.518.475,7.027,7.027,0,0,0-2.106,1.3v-6.966h-3.8v22.8h3.8Z" transform="translate(-290.456 -282.624)"/></g></svg>