<svg class='church-icon' id='closed' viewBox="0 0 267.236 197.376"><defs><clipPath id="closed-a"><rect class="a" width="267.236" height="197.376"/></clipPath></defs><g class="b"><path class="c" d="M1.961,7.7A14.118,14.118,0,0,1,7.414,2.019,15.672,15.672,0,0,1,15.4,0,15.6,15.6,0,0,1,25.01,2.827,13.347,13.347,0,0,1,30,10.674H24.347A8.129,8.129,0,0,0,21.2,6.115a9.715,9.715,0,0,0-5.8-1.673A9.3,9.3,0,0,0,8.135,7.529q-2.769,3.087-2.77,8.74,0,5.714,2.77,8.828A9.26,9.26,0,0,0,15.4,28.213a9.814,9.814,0,0,0,5.77-1.616,8.2,8.2,0,0,0,3.173-4.616H30a13.9,13.9,0,0,1-5.077,7.76,15.206,15.206,0,0,1-9.52,2.914,15.662,15.662,0,0,1-7.99-2.019,14.063,14.063,0,0,1-5.453-5.712A18.181,18.181,0,0,1,0,16.269,17.886,17.886,0,0,1,1.961,7.7" transform="translate(37.047 139.787)"/><rect class="c" width="5.251" height="42.693" transform="translate(74.028 129.23)"/><path class="c" d="M7.7,30.636A14.371,14.371,0,0,1,2.048,24.9,17.612,17.612,0,0,1,0,16.27,17.084,17.084,0,0,1,2.107,7.7,14.5,14.5,0,0,1,7.847,1.99,16.654,16.654,0,0,1,15.982,0a16.657,16.657,0,0,1,8.135,1.99,14.569,14.569,0,0,1,5.74,5.684,17.05,17.05,0,0,1,2.105,8.6A16.848,16.848,0,0,1,29.8,24.9a15,15,0,0,1-5.856,5.74,16.779,16.779,0,0,1-8.192,2.019A16.171,16.171,0,0,1,7.7,30.636m13.355-3.923a10.106,10.106,0,0,0,4.01-3.981A12.752,12.752,0,0,0,26.6,16.27a12.953,12.953,0,0,0-1.5-6.462,9.821,9.821,0,0,0-3.923-3.951,10.932,10.932,0,0,0-5.251-1.3,10.874,10.874,0,0,0-5.278,1.3A9.507,9.507,0,0,0,6.808,9.808,13.381,13.381,0,0,0,5.366,16.27a13.717,13.717,0,0,0,1.413,6.519,9.392,9.392,0,0,0,3.779,3.952,10.61,10.61,0,0,0,5.193,1.3,11.08,11.08,0,0,0,5.307-1.326" transform="translate(86.258 139.787)"/><path class="c" d="M6.4,31.415a11,11,0,0,1-4.559-3.462A9.209,9.209,0,0,1,0,22.847H5.423a5.318,5.318,0,0,0,2.221,3.866,8.45,8.45,0,0,0,5.221,1.5A7.6,7.6,0,0,0,17.6,26.886a4.055,4.055,0,0,0,1.731-3.347,3.3,3.3,0,0,0-1.847-3.086,25.888,25.888,0,0,0-5.711-1.991,41.653,41.653,0,0,1-5.74-1.875A10.183,10.183,0,0,1,2.22,13.76,7.374,7.374,0,0,1,.634,8.827,7.478,7.478,0,0,1,2.076,4.385a9.777,9.777,0,0,1,4.1-3.2A14.725,14.725,0,0,1,12.23,0a12.948,12.948,0,0,1,8.482,2.654,9.572,9.572,0,0,1,3.462,7.27h-5.25a5.434,5.434,0,0,0-1.991-3.982,7.428,7.428,0,0,0-4.876-1.5,7.527,7.527,0,0,0-4.5,1.212A3.744,3.744,0,0,0,5.884,8.827a3.471,3.471,0,0,0,1.01,2.567A7.355,7.355,0,0,0,9.432,13.01a43.6,43.6,0,0,0,4.242,1.356,45.679,45.679,0,0,1,5.538,1.818,9.7,9.7,0,0,1,3.663,2.682,7.174,7.174,0,0,1,1.587,4.673,8.008,8.008,0,0,1-1.443,4.674,9.615,9.615,0,0,1-4.067,3.26,14.565,14.565,0,0,1-6.028,1.182,16.366,16.366,0,0,1-6.52-1.24" transform="translate(123.414 139.787)"/><path class="c" d="M30.636,18.289H5.366a10.218,10.218,0,0,0,3.2,7.3,10.183,10.183,0,0,0,7.067,2.625,9.713,9.713,0,0,0,5.684-1.586,8.4,8.4,0,0,0,3.2-4.241h5.654A13.585,13.585,0,0,1,25.1,29.8a15.316,15.316,0,0,1-9.462,2.857,15.974,15.974,0,0,1-8.048-2.02A14.278,14.278,0,0,1,2.02,24.9,17.785,17.785,0,0,1,0,16.269a18.069,18.069,0,0,1,1.961-8.6A13.773,13.773,0,0,1,7.471,1.99,16.4,16.4,0,0,1,15.635,0,15.876,15.876,0,0,1,23.6,1.961a13.588,13.588,0,0,1,5.337,5.4,15.919,15.919,0,0,1,1.875,7.76,31.016,31.016,0,0,1-.173,3.173M24.059,8.856a8.64,8.64,0,0,0-3.6-3.289A11.259,11.259,0,0,0,15.4,4.442a9.734,9.734,0,0,0-6.78,2.539,10.337,10.337,0,0,0-3.2,7.038H25.385a9.68,9.68,0,0,0-1.326-5.163" transform="translate(153.298 139.788)"/><path class="c" d="M1.962,18.26a14.225,14.225,0,0,1,5.394-5.683,14.911,14.911,0,0,1,7.7-2.019,14.319,14.319,0,0,1,6.867,1.7,12.305,12.305,0,0,1,4.846,4.471V0h5.308V42.694H26.77V36.751A12.3,12.3,0,0,1,22.154,41.4,13.744,13.744,0,0,1,15,43.213a14.382,14.382,0,0,1-13.039-7.9A18.132,18.132,0,0,1,0,26.77a17.746,17.746,0,0,1,1.962-8.51M25.327,20.6a10.179,10.179,0,0,0-3.895-4.067,10.6,10.6,0,0,0-5.393-1.414A10.623,10.623,0,0,0,10.673,16.5a10.048,10.048,0,0,0-3.866,4.039A12.875,12.875,0,0,0,5.365,26.77a13.163,13.163,0,0,0,1.442,6.317,10.194,10.194,0,0,0,3.866,4.1A10.446,10.446,0,0,0,16.039,38.6a10.594,10.594,0,0,0,5.393-1.413,10.133,10.133,0,0,0,3.895-4.1,13.025,13.025,0,0,0,1.443-6.26,12.863,12.863,0,0,0-1.443-6.23" transform="translate(189.069 129.229)"/><path class="c" d="M262.236,103.973h-45.38L143.979,31.1a17.49,17.49,0,1,0-21.927,0L49.175,103.973H5a5,5,0,0,0-5,5v83.4a5,5,0,0,0,5,5H262.236a5,5,0,0,0,5-5v-83.4a5,5,0,0,0-5-5M125.526,17.489a7.49,7.49,0,1,1,11.289,6.443l-.265-.264a5,5,0,0,0-7.07,0l-.264.264a7.487,7.487,0,0,1-3.69-6.443m6.819,17.456c.224.009.444.034.67.034s.446-.025.67-.034l69.029,69.028H63.317ZM257.236,187.376H10v-73.4H257.236Z"/></g></svg>