<svg class='three-steps-svg' id='icon-growth-step-3' viewBox="0 0 271 273"><defs><clipPath id="icon-growth-step-3-a"><rect class="a" width="156" height="144.987"/></clipPath><filter id="icon-growth-step-3-b" x="0" y="0" width="104" height="104" filterUnits="userSpaceOnUse"><feOffset dy="3" input="SourceAlpha"/><feGaussianBlur stdDeviation="3" result="c"/><feFlood flood-opacity="0.161"/><feComposite operator="in" in2="c"/><feComposite in="SourceGraphic"/></filter></defs><g transform="translate(62 75.296)"><circle class="b" cx="131" cy="131" r="131" transform="translate(-53 -64.296)"/><g class="c"><path class="d" d="M154.678,133.3c-11.49-11.771-23.426-12.441-31.418-10.931a38.39,38.39,0,0,0-12,4.521c-15-7.778-28.981-11.158-41.4-11.955C70.944,109.2,73.2,98.39,76.8,86.314c8.384-.785,29.975-4.477,43.709-21.83,11.592-14.648,14.553-35.12,8.8-60.85A4.649,4.649,0,0,0,124.12.047c-1.893.269-46.53,6.927-60.407,35.209-6.624,13.5-5.093,29.345,4.543,47.121-1.887,6.2-3.425,12.08-4.643,17.214q-1.049-2.3-2.233-4.56c3.465-23.189-.453-40.416-11.662-51.213C32.637,27.367,5.413,32.6,4.263,32.831a4.646,4.646,0,0,0-3.711,4.11c-2.291,23.726,2.561,41.306,14.42,52.251,10.863,10.025,24.871,11.881,33.754,11.881,2.038,0,3.8-.1,5.2-.217a63.158,63.158,0,0,1,5.206,14.013A92.6,92.6,0,0,0,34.8,119.441c-19.374,6.417-30.895,17.06-31.376,17.51a4.647,4.647,0,0,0,6.343,6.793A83.453,83.453,0,0,1,38.1,128.14c23.334-7.61,47.274-4.846,71.155,8.214a4.679,4.679,0,0,0,5.042-.377c.706-.532,17.48-12.828,33.728,3.818a4.647,4.647,0,1,0,6.651-6.493M72.048,39.368C81.487,20.1,110.2,12.352,121.141,10.049c3.866,20.732,1.224,37.07-7.874,48.609C103.59,70.931,88.576,75.1,79.95,76.513c7.886-22.779,17.434-38,27.749-44.153a4.647,4.647,0,1,0-4.763-7.981C89.257,32.542,79.359,51.153,72.529,69.643c-4.531-11.505-4.7-21.658-.481-30.275M21.226,82.316c-9-8.343-12.937-22.072-11.718-40.842,7.018-.715,23.274-1.064,33.763,9.039,7.058,6.8,10.406,17.3,10.013,31.319a184.116,184.116,0,0,0-26.047-29.4A4.647,4.647,0,0,0,21.084,59.4c.238.21,16.19,14.443,27.64,32.354-7.329-.014-18.924-1.485-27.5-9.434" transform="translate(0 0)"/></g><g class="g" transform="matrix(1, 0, 0, 1, -62, -75.3)"><circle class="e" cx="43" cy="43" r="43" transform="translate(9 6)"/></g><text class="f" transform="translate(-10 -14.296)"><tspan x="-9.983" y="0">3</tspan></text></g></svg>