<svg xmlns="http://www.w3.org/2000/svg" class='three-steps-svg' id='icon-checklist-step-2' viewBox="0 0 260.82 275"><defs><clipPath id="icon-checklist-step-2-a"><rect class="a" width="137.82" height="183.644"/></clipPath><filter id="icon-checklist-step-2-b" x="0" y="0" width="104" height="104" filterUnits="userSpaceOnUse"><feOffset dy="3" input="SourceAlpha"/><feGaussianBlur stdDeviation="3" result="c"/><feFlood flood-opacity="0.161"/><feComposite operator="in" in2="c"/><feComposite in="SourceGraphic"/></filter></defs><g transform="translate(-352 -4785)"><g class="b" transform="translate(475 4876.356)"><path class="c" d="M10.8,190.864l.554-.272c-.054-.177-.222-.169-.35-.192C5.772,189.475,1.053,184.385.2,178.877a16.185,16.185,0,0,1-.2-2.5Q.008,108.328.005,40.273a14.447,14.447,0,0,1,14.432-14.44c4.632-.012,9.265.019,13.9-.02.9-.007,1.2.261,1.177,1.172q-.086,3.18,0,6.365c.023.9-.252,1.192-1.167,1.183-4.453-.04-8.906-.032-13.36-.012A5.926,5.926,0,0,0,8.777,39.5a6.088,6.088,0,0,0-.084,1.157q-.005,67.606,0,135.211c0,3.815,2.351,6.186,6.275,6.346.239.01.478.006.717.006q53.3,0,106.609,0a6.739,6.739,0,0,0,5.156-1.857,6.228,6.228,0,0,0,1.679-3.957c.019-.207.005-.418.005-.627q0-67.337,0-134.673a6.224,6.224,0,0,0-2.575-5.522,6.677,6.677,0,0,0-3.918-1.059c-4.364-.022-8.727-.007-13.091-.01-1.208,0-1.216-.009-1.219-1.182,0-2.152.022-4.3-.014-6.455-.012-.753.2-1.064,1.01-1.06,4.871.031,9.745-.078,14.614.041a14.4,14.4,0,0,1,13.88,14.329q-.015,54.291,0,108.581,0,13.943,0,27.885a14.381,14.381,0,0,1-9.865,13.48c-.424.136-.863.226-1.327.346,0,.266.33.2.4.385Z" transform="translate(0 -7.22)"/><path class="c" d="M83.132,36.621q-14.255,0-28.509,0c-2.752,0-3.812-1.049-3.813-3.773q0-7.083,0-14.165c0-2.526,1.142-3.656,3.678-3.657,4.154,0,8.308-.014,12.462.011.712,0,1.055-.132,1.133-.951A14.851,14.851,0,0,1,74.862,2.519C82.559-2.544,92.542.3,96.788,8.546a13,13,0,0,1,1.4,5.433c.038.91.4,1.067,1.2,1.06,4.064-.032,8.129-.017,12.193-.014,2.789,0,3.868,1.067,3.869,3.818q0,7.082,0,14.165c0,2.47-1.144,3.612-3.626,3.612q-14.345.005-28.689,0m-.1-15.276A5.993,5.993,0,0,0,89.4,15.187,6.052,6.052,0,0,0,83.328,8.8a6.129,6.129,0,0,0-6.561,6.221,6.056,6.056,0,0,0,6.263,6.321" transform="translate(-14.217 0)"/><path class="c" d="M49.179,112.157A17.232,17.232,0,1,1,66.4,95.051a17.407,17.407,0,0,1-17.219,17.106m-2.957-6.52a3.158,3.158,0,0,0,2.64-1.545A60.521,60.521,0,0,1,59.371,91.009a2.85,2.85,0,0,0,.178-4.239,2.809,2.809,0,0,0-4.215-.081A58.351,58.351,0,0,0,46.7,96.466c-.727.988-.833,1.006-1.558-.025-.344-.488-.669-.99-1-1.486a30.918,30.918,0,0,0-2.929-3.73,2.714,2.714,0,0,0-2.723-.981,2.931,2.931,0,0,0-1.782,4.631c1.539,2.42,3.289,4.693,5,6.991a22.34,22.34,0,0,0,2.225,2.8,3.331,3.331,0,0,0,2.284.969" transform="translate(-8.935 -21.741)"/><path class="c" d="M49.169,171.926A17.234,17.234,0,1,1,66.4,154.74a17.4,17.4,0,0,1-17.229,17.186M46.132,165.4a3.264,3.264,0,0,0,2.944-1.873,56.789,56.789,0,0,1,9.57-12.016,11.573,11.573,0,0,0,1.062-1.09,2.927,2.927,0,0,0-.191-3.915,2.752,2.752,0,0,0-3.87-.307,17.048,17.048,0,0,0-1.615,1.417,67.786,67.786,0,0,0-7.461,8.8c-.521.73-.717.74-1.251.043-.181-.237-.353-.483-.512-.735a35.52,35.52,0,0,0-3.5-4.644A2.8,2.8,0,0,0,38.528,150a2.938,2.938,0,0,0-1.791,4.683c1.547,2.417,3.294,4.692,5.009,6.99a22.107,22.107,0,0,0,2.29,2.866,2.892,2.892,0,0,0,2.1.856" transform="translate(-8.935 -38.465)"/><path class="c" d="M77.865,202.154h42.847a3.346,3.346,0,0,1,2.068.428,3.4,3.4,0,0,1,.9,3.615,2.376,2.376,0,0,1-2.335,1.757c-.327.025-.657.014-.986.014H35.2c-2.642-.007-3.58-1.044-3.308-3.658a2.222,2.222,0,0,1,2.144-2.135c.385-.035.776-.02,1.165-.02H77.865" transform="translate(-8.911 -56.568)"/><path class="c" d="M114.7,146.362c7.379,0,14.759.055,22.137-.027,3-.034,3.424,1.9,2.985,4.1a2.186,2.186,0,0,1-2.079,1.7,7.61,7.61,0,0,1-1.073.039q-21.824,0-43.648,0a7.611,7.611,0,0,1-1.339-.073,2.229,2.229,0,0,1-2.029-2.416c-.006-.359-.011-.717,0-1.076a2.127,2.127,0,0,1,2.189-2.232c1.163-.041,2.33-.014,3.495-.014H114.7" transform="translate(-25.087 -40.949)"/><path class="c" d="M114.732,97.392q-11.113,0-22.226,0a2.624,2.624,0,0,1-2.4-.918,3.888,3.888,0,0,1-.242-3.608c.367-1.085,1.41-1.285,2.444-1.286q11.74-.009,23.48-.005c6.991,0,13.981.046,20.971-.022,2.916-.029,3.455,1.722,3.077,3.988a2.28,2.28,0,0,1-2.516,1.841c-2.688.016-5.377.006-8.065.006H114.732" transform="translate(-25.055 -25.62)"/><path class="c" d="M124.371,118.482q8.378,0,16.758,0c2.565,0,3.85,2.076,2.763,4.431A2.321,2.321,0,0,1,142,124.242a6.735,6.735,0,0,1-1.072.053q-16.533,0-33.067,0a5.347,5.347,0,0,1-1.512-.135,2.157,2.157,0,0,1-1.748-2.194c0-.03,0-.06,0-.09-.078-2.763.532-3.394,3.283-3.394h16.489" transform="translate(-29.268 -33.154)"/><path class="c" d="M124.267,174.252c5.616,0,11.232.073,16.847-.03,3.083-.056,3.382,2.348,2.807,4.361a1.962,1.962,0,0,1-1.383,1.3,4.971,4.971,0,0,1-1.593.185q-16.533,0-33.067-.006a6.547,6.547,0,0,1-1.422-.115,2.144,2.144,0,0,1-1.854-2.284c-.005-.15,0-.3,0-.448-.008-2.253.686-2.961,2.912-2.961q8.378,0,16.758,0" transform="translate(-29.27 -48.752)"/></g><g class="e" transform="matrix(1, 0, 0, 1, 352, 4785)"><circle class="c" cx="43" cy="43" r="43" transform="translate(9 6)"/></g><text class="d" transform="translate(404 4846)"><tspan x="-9.422" y="0">2</tspan></text></g></svg>