<svg xmlns="http://www.w3.org/2000/svg" id='icon-healthy-growth' viewBox="0 0 143.78 133.629"><defs><clipPath id="icon-healthy-growth-a"><rect class="a" width="143.78" height="133.629"/></clipPath></defs><g class="b"><path class="c" d="M142.561,122.86c-10.59-10.849-21.591-11.466-28.957-10.074a35.383,35.383,0,0,0-11.058,4.167,95.7,95.7,0,0,0-38.157-11.018c1-5.285,3.078-15.25,6.4-26.381,7.727-.724,27.627-4.127,40.285-20.12,10.684-13.5,13.413-32.369,8.111-56.083A4.285,4.285,0,0,0,114.4.043c-1.745.248-42.885,6.384-55.675,32.45-6.105,12.442-4.694,27.046,4.187,43.43-1.74,5.71-3.157,11.134-4.28,15.866q-.966-2.122-2.058-4.2c3.193-21.372-.417-37.25-10.748-47.2C30.08,25.223,4.989,30.046,3.929,30.259A4.282,4.282,0,0,0,.508,34.047C-1.6,55.914,2.869,72.117,13.8,82.2c10.012,9.24,22.922,10.95,31.11,10.95,1.878,0,3.5-.09,4.792-.2a58.211,58.211,0,0,1,4.8,12.915,85.347,85.347,0,0,0-22.423,4.215C14.22,116,3.6,125.809,3.158,126.223A4.283,4.283,0,0,0,9,132.484,76.916,76.916,0,0,1,35.117,118.1c21.506-7.014,43.571-4.466,65.582,7.57a4.312,4.312,0,0,0,4.647-.348c.651-.49,16.11-11.823,31.086,3.519a4.283,4.283,0,1,0,6.13-5.984M66.4,36.284c8.7-17.759,35.164-24.9,45.247-27.022,3.564,19.108,1.128,34.166-7.257,44.8C95.476,65.374,81.637,69.218,73.687,70.519c7.268-21,16.068-35.021,25.575-40.694a4.283,4.283,0,1,0-4.39-7.356c-12.607,7.524-21.73,24.677-28.025,41.718-4.176-10.6-4.334-19.962-.443-27.9M19.563,75.868c-8.3-7.69-11.923-20.343-10.8-37.643,6.468-.659,21.451-.981,31.118,8.331,6.5,6.265,9.591,15.949,9.229,28.866A169.693,169.693,0,0,0,25.1,48.322a4.283,4.283,0,0,0-5.67,6.421c.219.193,14.922,13.312,25.475,29.819-6.755-.013-17.441-1.369-25.344-8.695" transform="translate(0 0)"/></g></svg>