<svg id='leaves-2' viewBox="0 0 99.528 148.077"><g transform="translate(3.178 4.181)"><path class="a" d="M55.408,32.4c11.175,24.413-4.392,54.661-4.392,54.661S15.024,80.418,3.848,56C-4.255,38.3,2.308,16.83,6.529,6.36h0L9.394,0S44.233,7.99,55.408,32.4Z" transform="translate(0 53.832)"/><path class="a" d="M6.76,22.818C4.042,18.084,0,5.382,0,5.382S23.866-4.6,38.561,2.62c8.827,4.335,14.331,12.855,17.546,19.866a59.368,59.368,0,0,1,3.875,11.119,62.159,62.159,0,0,1-9.429,3.945c-7.927,2.619-19.478,4.789-29.161.034C14.8,34.347,10.07,28.584,6.76,22.818Z" transform="translate(19.841 33.541) rotate(-34)"/></g></svg>