<svg xmlns="http://www.w3.org/2000/svg" class='marcom-icon' id='unclear-communication' viewBox="0 0 80.406 84.112"><defs><clipPath id="unclear-communication-a"><rect class="a" width="80.406" height="84.112"/></clipPath></defs><g class="b"><path class="c" d="M2.039,39.381c1.537-.028,1.939-1.184,1.941-2.527,0-2.6.008-15.035.01-17.632,0-3.842,0-3.842,3.726-4.062a4.514,4.514,0,0,0,.756-.075c1.661-.386,2.324.26,2.305,1.962-.037,3.23.076,16.3.07,19.53,0,1.5.348,2.8,2.074,2.8,1.761,0,2.042-1.4,2.044-2.842.005-2.978,0-15.795.006-18.773.008-2.507.068-2.55,2.545-2.58,1.583-.02,3.165-.036,4.748-.058v21.93a1.845,1.845,0,1,0,3.69,0v-22c.479-.012.959-.022,1.438-.037a1.85,1.85,0,0,0,1.972-2.082,1.945,1.945,0,0,0-2.144-1.943c-.507-.014-1.014-.013-1.52-.013-6.526,0-13.052.006-19.578-.014-.717,0-1.573.243-2.014-.659-1.231-2.514.73-6.037,3.5-6.056,8.933-.063,17.867-.017,26.8-.045,1.288,0,1.845.5,1.819,1.8-.042,2.09-.03,14.021.014,16.111,0,.205.015.41.035.612a1.891,1.891,0,0,0-.013.209,1.836,1.836,0,0,0,.478,1.236,1.712,1.712,0,0,0,1.48.642,3.037,3.037,0,0,0,.439-.034h5.473v24.7a1.845,1.845,0,1,0,3.69,0V22.931a1.845,1.845,0,0,0-1.845-1.845H40.425c0-3.492.071-12.978-.024-14.715-.092-1.683.585-2.2,2.215-2.185,6.082.065,12.165-.005,18.247.033,5.237.033,4.411-.7,4.576,4.518.056,1.781-.594,2.3-2.305,2.266-4.37-.09-8.743-.029-13.115-.027-1.4,0-2.655.394-2.7,2-.047,1.63,1.247,2.023,2.6,2.157a7.59,7.59,0,0,0,.759.036c4.181-.007,8.366.071,12.543-.07,1.707-.058,2.255.479,2.207,2.132-.087,2.975-.031,15.794-.02,18.772.009,2.425.641,3.52,2.06,3.387,2.086-.2,1.923-1.816,1.921-3.292q0-2.091,0-4.182c0-5.322.031-20.484-.018-25.805-.013-1.37.441-1.9,1.857-1.93C75.085,4.117,76.39,5.306,76.4,9.2c.012,9.187,0,28.213.006,37.4,0,.633-.007,1.268.037,1.9A1.632,1.632,0,0,0,78.1,50.212a1.833,1.833,0,0,0,2.14-1.452,9.7,9.7,0,0,0,.131-2.078c.008-9.25.008-28.34,0-37.59,0-6.236-2.825-9.082-9.035-9.087Q55.756-.008,40.17,0q-15.3,0-30.6.011a21.4,21.4,0,0,0-3.4.237A7.113,7.113,0,0,0,.028,7.372C-.028,13.9.02,30.263,0,36.788c0,1.441.379,2.623,2.037,2.592" transform="translate(0 0)"/><path class="c" d="M80.373,206.193c0-1.31-.593-2.243-2.008-2.265-1.466-.023-1.948.931-1.945,2.255,0,2.28-.043,4.561.007,6.84.027,1.232-.481,1.7-1.69,1.681-2.153-.042-4.307,0-6.46,0-1.479,0-2.754.379-2.761,2.132-.006,1.723,1.383,1.959,2.688,2.006,2.151.078,4.306.034,6.459.063.617.008,1.307-.087,1.654.64,1.185,2.481-.841,6.03-3.6,6.094-4.115.1-8.233.01-12.35.044-1.2.01-1.727-.461-1.72-1.681.028-4.75.043-9.5,0-14.251-.014-1.452.656-1.862,1.977-1.827,2.025.053,4.053.023,6.08,0,1.369-.018,2.6-.33,2.654-2.029s-1.141-2.134-2.527-2.139q-10.261-.035-20.521,0c-1.353.005-2.621.339-2.59,2.07.03,1.637,1.123,2.112,2.573,2.107,2.154-.008,4.307.034,6.46,0,1.206-.02,1.712.481,1.706,1.695q-.042,7.22,0,14.441c0,1.1-.42,1.616-1.571,1.613q-12.73-.029-25.461,0c-.949,0-1.395-.339-1.374-1.333.023-1.074-.085-2.151-.089-3.226-.015-4.687.006-9.374-.027-14.061-.01-1.51-.185-3.162-2.142-3.225-3.6-.116-7.214-.049-10.82.03a2.052,2.052,0,0,0-2.127,2.222c-.033,3.481-.028,6.963.041,10.443.023,1.177.566,2.1,1.947,2.113,1.448.011,2.029-.9,2.106-2.181.076-1.263.026-2.532.05-3.8.1-5.386-.918-4.646,4.926-4.741,1.438-.023,1.86.605,1.846,1.947-.046,4.56-.053,9.121,0,13.68.019,1.558-.61,2.16-2.141,2.137-3.293-.05-6.587-.01-9.88-.011-4.726,0-5.73-.989-5.731-5.642q0-11.591,0-23.181c0-.633.016-1.27-.038-1.9a1.841,1.841,0,0,0-1.934-1.918A1.825,1.825,0,0,0,.062,194.9c-.054.566-.039,1.139-.039,1.709q0,12.256,0,24.512c0,5.735,2.766,8.529,8.478,8.533q15.866.012,31.732,0c10.831,0,21.661.015,32.492-.013,4.2-.011,7.457-2.841,7.6-6.926.187-5.5.066-11.018.056-16.528" transform="translate(-0.015 -145.552)"/><path class="c" d="M66.329,171.128c.007,2.36.483,2.986,2.843,3.086,3.224.136,6.459.1,9.687.04,1.326-.024,2.4-.641,2.334-2.177-.062-1.423-1.1-1.914-2.364-1.937-2.153-.039-4.31-.094-6.46,0-1.577.07-2.105-.515-2.083-2.086.073-5.193.028-10.388.028-15.582q-.008-7.887,0-15.773c0-1.456-.251-2.813-2.048-2.791-1.68.02-1.941,1.331-1.94,2.708,0,3.167-.08,6.337.028,9.5.058,1.708-.443,2.351-2.242,2.311-4.875-.108-9.754-.041-14.632-.034a27.5,27.5,0,0,0-3.225.084,1.919,1.919,0,0,0-.06,3.8,10.533,10.533,0,0,0,1.892.1c5.321.007,10.643.058,15.962-.028,1.708-.028,2.342.462,2.31,2.251-.1,5.509-.046,11.021-.029,16.532" transform="translate(-33.617 -100.97)"/><path class="c" d="M221.343,145.428a2.241,2.241,0,0,0,2.6,2.508c3.287-.047,6.575-.008,9.863-.016,1.328,0,2.463-.336,2.414-1.972-.046-1.553-1.1-1.992-2.461-2-2.087-.006-4.175-.071-6.259.008-1.486.057-2.02-.53-1.993-2,.062-3.286.027-6.575,0-9.863-.011-1.386-.4-2.613-2.088-2.568-1.621.044-2.083,1.2-2.091,2.619-.012,2.15,0,4.3,0,6.449h.008c0,2.276-.02,4.553.007,6.828" transform="translate(-166.884 -97.669)"/></g></svg>