<svg xmlns="http://www.w3.org/2000/svg" class='marcom-icon' id='ignored' viewBox="0 0 82.227 82.219"><defs><clipPath id="ignored-a"><rect class="a" width="82.227" height="82.219"/></clipPath></defs><g class="b"><path class="c" d="M248.38,40.689A18.762,18.762,0,1,0,235.1,35.2a18.719,18.719,0,0,0,13.278,5.491m0-33.848A15.079,15.079,0,0,1,260.272,31.2L239.1,10.03a15.052,15.052,0,0,1,9.281-3.19m-11.891,5.8,21.172,21.172a15.083,15.083,0,0,1-21.172-21.172" transform="translate(-187.54 -2.574)"/><path class="c" d="M79.515,61.681c-2.029-1.22-3.952-2.617-5.93-3.925q-4.87-3.221-9.751-6.427a5,5,0,0,0-3.351-.863,7.774,7.774,0,0,0-2.625.769c-2.481,1.232-4.871,2.632-7.254,4.039a1.353,1.353,0,0,1-1.746-.11,72.534,72.534,0,0,1-7.205-6.1c-3.309-3.148-6.6-6.314-9.654-9.721a69.175,69.175,0,0,1-5.12-6.266.919.919,0,0,1-.069-1.135q1.01-1.694,1.955-3.426a42.8,42.8,0,0,0,2.532-4.82,5.632,5.632,0,0,0-.635-5.7c-1.382-1.946-2.635-3.982-3.951-5.975C24.547,8.746,22.4,5.458,20.2,2.2A4.761,4.761,0,0,0,15.358.049a7.066,7.066,0,0,0-3.386,1.343,53.367,53.367,0,0,0-9.89,9.053C.89,11.9-.289,13.393.063,15.322A12.731,12.731,0,0,0,.2,17.86a39.8,39.8,0,0,0,3.909,11.5A79.905,79.905,0,0,0,12.7,42.63,149.47,149.47,0,0,0,24.092,55.547,146.924,146.924,0,0,0,42.943,72.031,62.607,62.607,0,0,0,57.1,80.006a27.79,27.79,0,0,0,10.386,2.212,4.45,4.45,0,0,0,2.269-.616A15.826,15.826,0,0,0,71.6,80.336a50.494,50.494,0,0,0,7.453-7.712A18.2,18.2,0,0,0,81.5,69.217c1.316-2.706.969-5.763-1.98-7.536M78.4,66.934a4.762,4.762,0,0,1-.938,1.719,61.679,61.679,0,0,1-6.538,7.37,14.422,14.422,0,0,1-2.6,2.055,2.508,2.508,0,0,1-1.558.451,27.012,27.012,0,0,1-8.592-2.071A65.062,65.062,0,0,1,43.49,67.839,122.183,122.183,0,0,1,32.6,58.62c-4-3.778-7.9-7.66-11.566-11.771A95.759,95.759,0,0,1,8.518,29.755a39.311,39.311,0,0,1-4.391-10.94,28.247,28.247,0,0,1-.454-3.6,1.668,1.668,0,0,1,.228-.789A10.893,10.893,0,0,1,6.149,11.4a56.872,56.872,0,0,1,7.9-6.954,2.948,2.948,0,0,1,2.028-.657,1.518,1.518,0,0,1,1.218.683C20.746,9.7,24.233,14.9,27.641,20.155a2.43,2.43,0,0,1,.179,2.085,13.041,13.041,0,0,1-1.484,3.076q-1.856,3.333-3.782,6.626a1.158,1.158,0,0,0,.036,1.374A56.387,56.387,0,0,0,27.5,39.749a134.427,134.427,0,0,0,10.569,11,84.514,84.514,0,0,0,9.692,8.135c.455.314.934.593,1.4.9a.824.824,0,0,0,.961.007q3.941-2.257,7.9-4.48A6.793,6.793,0,0,1,60.608,54.3a2.165,2.165,0,0,1,1.532.3q7.75,5.173,15.514,10.325a1.679,1.679,0,0,1,.748,2.012" transform="translate(0 -0.001)"/></g></svg>