<svg xmlns="http://www.w3.org/2000/svg" class='marcom-icon' id='stat-51' viewBox="0 0 229.985 229.984"><defs><clipPath id="stat-51-a"><rect class="a" width="229.985" height="229.984"/></clipPath></defs><g class="b"><path class="c" d="M114.992,229.984A114.992,114.992,0,1,1,229.985,114.992,115.123,115.123,0,0,1,114.992,229.984m0-197.9a82.909,82.909,0,1,0,82.91,82.91,83,83,0,0,0-82.91-82.91"/><path class="d" d="M167.38,225.661a106.533,106.533,0,0,1-15.72-1.166,6.417,6.417,0,0,1,1.9-12.692,93.634,93.634,0,0,0,13.821,1.025,92.534,92.534,0,1,0,0-185.069,6.417,6.417,0,0,1,0-12.833,105.367,105.367,0,1,1,0,210.735" transform="translate(-52.388 -5.349)"/></g><text class="e" transform="translate(53.785 128.893)"><tspan x="0" y="0">51.2%</tspan></text></svg>