<svg xmlns="http://www.w3.org/2000/svg" class='three-steps-svg' id='marcom-assessment' viewBox="0 0 333.48 307.924"><defs><clipPath id="marcom-assessment-a"><rect class="a" width="281.48" height="230.089"/></clipPath><filter id="marcom-assessment-b" x="0" y="0" width="104" height="104" filterUnits="userSpaceOnUse"><feOffset dy="3" input="SourceAlpha"/><feGaussianBlur stdDeviation="3" result="c"/><feFlood flood-opacity="0.161"/><feComposite operator="in" in2="c"/><feComposite in="SourceGraphic"/></filter></defs><g transform="translate(-352 -4785)"><g class="b" transform="translate(404 4862.834)"><path class="a" d="M280.459,188.149c-.279-.125-19.547-8.884-35.242-24.711l2.109-8.156c0-.006,0-.012,0-.017s.006-.032.009-.048a1.718,1.718,0,0,0,.035-.248c0-.025,0-.05,0-.075s0-.029,0-.044V52h2.06a1.724,1.724,0,0,0,1.724-1.724V40.185a1.724,1.724,0,0,0-1.724-1.724h-2.06V25.051a1.724,1.724,0,0,0-1.724-1.724H231.364a1.724,1.724,0,0,0-1.724,1.724v13.41H228a1.724,1.724,0,0,0-1.724,1.724V50.274A1.724,1.724,0,0,0,228,52h1.64v89.379q-.661-1.5-1.237-3.048C220.9,118.09,210.889,105.454,197.8,99.7a44.149,44.149,0,0,0-21.716-3.269l30.711-18.2a1.724,1.724,0,0,0-1.758-2.965L166.807,97.92q-2.994.7-6.1,1.68L148.34,92.259v-4.49l13.116,7.788a1.723,1.723,0,0,0,1.759,0l43.574-25.829a1.724,1.724,0,0,0-1.758-2.965L162.337,92.071l-14-8.311V79.271l13.116,7.788a1.724,1.724,0,0,0,1.759,0l43.574-25.829a1.723,1.723,0,0,0-1.758-2.965L162.337,83.573l-14-8.311v-4.49l13.116,7.788a1.723,1.723,0,0,0,1.759,0l43.574-25.829a1.724,1.724,0,0,0-1.758-2.965L162.337,75.074l-14-8.311V62.274l13.116,7.788a1.723,1.723,0,0,0,1.759,0l43.574-25.829a1.724,1.724,0,0,0-1.758-2.965L162.337,66.576l-14-8.311V53.429l12.76,7.791a1.723,1.723,0,0,0,1.777.012l43.912-26.009a1.724,1.724,0,0,0,0-2.965L174.363,13a1.723,1.723,0,0,0-1.755,0L148.34,27.3V8.73a1.712,1.712,0,0,0-.022-.262c0-.021-.009-.042-.013-.063a1.725,1.725,0,0,0-.062-.234c-.008-.022-.014-.044-.023-.066a1.721,1.721,0,0,0-.125-.258c-.012-.019-.025-.037-.038-.056a1.753,1.753,0,0,0-.149-.2c-.016-.018-.03-.036-.046-.053a1.778,1.778,0,0,0-.226-.2c-.007,0-.012-.011-.018-.016L137.809.32a1.725,1.725,0,0,0-1.861-.092L.865,77.86A1.724,1.724,0,0,0,0,79.354V186.949a1.7,1.7,0,0,0,.011.215v0h0a1.664,1.664,0,0,0,.047.249,1.714,1.714,0,0,0,.68.971h0l0,0h0l.005,0,9.809,6.726c.016.011.033.018.049.028s.041.029.062.042.045.022.067.033.062.032.095.047.087.035.131.051.066.024.1.034.093.022.14.031c.032.006.063.014.1.019a1.705,1.705,0,0,0,.2.015l.036,0a1.8,1.8,0,0,0,.215-.014l.066-.012c.048-.008.1-.016.144-.028.026-.006.052-.016.078-.024.044-.013.087-.027.129-.043.025-.01.05-.022.075-.033.042-.019.084-.038.125-.061l.029-.014,34.292-19.707,15.51,9.59a1.724,1.724,0,0,0,1.774.023l49.045-28.587a1.723,1.723,0,0,0,.856-1.489v-7.847c0-.012,0-.023,0-.035a1.7,1.7,0,0,0-.027-.27c0-.022-.007-.044-.012-.066a1.743,1.743,0,0,0-.086-.277c-.009-.022-.019-.042-.029-.064a1.728,1.728,0,0,0-.118-.217c-.011-.016-.02-.034-.031-.05a1.75,1.75,0,0,0-.184-.223c-.015-.016-.031-.029-.047-.044a1.668,1.668,0,0,0-.19-.156c-.017-.012-.033-.025-.051-.037l-.023-.017-6.938-4.4,5.138-2.953a38.41,38.41,0,0,1,14.067,3.128c12.194,5.358,21.6,17.353,28.764,36.67,6.373,17.193,20.7,30.36,31.6,38.378a133.514,133.514,0,0,0,22.284,13.392,1.723,1.723,0,0,0,1.526-.059l71.074-38.643a1.724,1.724,0,0,0-.12-3.088M148.34,31.3l25.14-14.811,29.051,17.249-40.519,24L148.34,49.39Zm84.747-4.524h10.846V38.461H233.088Zm-3.363,15.134h17.992v1.6H229.724Zm0,5.045h17.992v1.6H229.724Zm13.517,96.506a1.724,1.724,0,0,0-3.264.1l-1.4,4.624-1.289-4.59a1.724,1.724,0,0,0-3.262-.167l-.935,2.368V52h10.846V145.31Zm.611,11.486-2.412,9.33-1.715-1.7a1.723,1.723,0,0,0-1.214-.5H238.5a1.723,1.723,0,0,0-1.217.512l-1.7,1.717-2.414-9.338,2.176-5.51,1.5,5.346a1.725,1.725,0,0,0,1.642,1.258h.018a1.723,1.723,0,0,0,1.649-1.223l1.636-5.393ZM148.34,96.268l8.086,4.8q-1.565.581-3.158,1.231a50.5,50.5,0,0,1-4.929,1.733ZM9.809,190.428l-6.362-4.362V175.633L9.809,180Zm0-14.612-6.362-4.362v-3.346l6.362,4.362Zm.864-90.95a1.724,1.724,0,0,0-.864,1.494V168.29l-6.362-4.362V80.352L136.707,3.769l6.725,4.8Zm2.583,105.855V87.358l131.637-75.65V104.88a26.193,26.193,0,0,1-10.676.095V28.067a1.723,1.723,0,0,0-2.582-1.494L24.8,87.972a1.724,1.724,0,0,0-.865,1.494v84.895a1.724,1.724,0,0,0,2.583,1.495l52.263-30.035q2.307-.7,4.722-1.688,2.2-.9,4.349-1.659a1.718,1.718,0,0,0,.227-.081,71.239,71.239,0,0,1,15.791-3.745Zm41.685-46.8a23.929,23.929,0,0,0,13.881,3.647L27.378,171.383v-66.61L130.771,45.919V103.89a19.148,19.148,0,0,1-2.891-1.513c-13.061-8.335-14.265-30.846-14.276-31.071a1.723,1.723,0,0,0-3.443.158c.046,1,1.289,24.506,15.855,33.812,4.791,3.061,10.428,4.2,16.838,3.42L86.714,139.22q-2.232.791-4.518,1.722c-10.322,4.216-18.864,4.242-25.389.078-13.061-8.335-14.265-30.846-14.276-31.072a1.723,1.723,0,0,0-3.443.159c.046,1,1.289,24.506,15.855,33.812M27.378,100.807V90.464L130.771,31.046V41.953Zm83.043,53.227L63.126,181.6l-13.045-8.066,3.732-2.145,8.334,5.53a1.723,1.723,0,0,0,1.815.056l46.46-26.814Zm-1.6-6.926L63.163,173.456l-6.009-3.987,45.6-26.2Zm99.809,79.327c-5.612-2.694-40.536-20.437-51.3-49.464-7.5-20.238-17.515-32.874-30.609-38.628-7.657-3.364-16.411-4.272-26.158-2.729L159.2,103.732c14.472-5.075,26.971-5.374,37.206-.876,12.194,5.359,21.6,17.353,28.763,36.67a62.09,62.09,0,0,0,4.469,9.443v5.881c0,.007,0,.015,0,.022s0,.041,0,.061a1.787,1.787,0,0,0,.03.244c0,.022.008.044.013.066s0,.025.007.037l3.154,12.2-52.835,28.726a1.723,1.723,0,1,0,1.646,3.028l52.078-28.314,2.769,10.71c-.024.012-.049.018-.072.031l-42.658,23.193a1.724,1.724,0,1,0,1.647,3.028l42.657-23.193a53.549,53.549,0,0,1,2.1-1.767l4.037-15.614a120.3,120.3,0,0,0,12.553,10.6,141.735,141.735,0,0,0,19.219,11.9Z" transform="translate(0 0)"/><path class="a" d="M387.644,253.042a1.723,1.723,0,0,0-2.338-.691L331.8,281.442a1.724,1.724,0,1,0,1.646,3.029l53.506-29.091a1.724,1.724,0,0,0,.691-2.338" transform="translate(-188.315 -143.494)"/><path class="a" d="M412.6,278.856a1.723,1.723,0,0,0-2.337-.691l-53.506,29.091a1.724,1.724,0,1,0,1.646,3.029l53.506-29.091a1.723,1.723,0,0,0,.691-2.338" transform="translate(-202.516 -158.184)"/><path class="a" d="M424.716,307.817a1.723,1.723,0,0,0-2.338-.691l-53.506,29.091a1.724,1.724,0,1,0,1.646,3.029l53.506-29.091a1.724,1.724,0,0,0,.691-2.338" transform="translate(-209.413 -174.666)"/><path class="a" d="M436.042,335.625a1.723,1.723,0,0,0-2.338-.691L380.2,364.025a1.724,1.724,0,1,0,1.646,3.029l53.506-29.091a1.724,1.724,0,0,0,.691-2.338" transform="translate(-215.858 -190.492)"/><path class="a" d="M449.73,364.734a1.723,1.723,0,0,0-2.338-.691l-53.506,29.091a1.724,1.724,0,1,0,1.646,3.029l53.506-29.091a1.724,1.724,0,0,0,.691-2.338" transform="translate(-223.648 -207.058)"/><path class="a" d="M72,210.177a2.312,2.312,0,1,0,2.312,2.312A2.312,2.312,0,0,0,72,210.177" transform="translate(-39.661 -119.612)"/><path class="a" d="M86.962,202.372a2.312,2.312,0,1,0,2.312,2.312,2.312,2.312,0,0,0-2.312-2.312" transform="translate(-48.174 -115.17)"/></g><g class="d" transform="matrix(1, 0, 0, 1, 352, 4785)"><circle class="a" cx="43" cy="43" r="43" transform="translate(9 6)"/></g><text class="c" transform="translate(404 4846)"><tspan x="-6.204" y="0">1</tspan></text></g></svg>