<svg xmlns="http://www.w3.org/2000/svg" class='marcom-icon' id='last-minute-changes' viewBox="0 0 86.452 87.866"><defs><clipPath id="last-minute-changes-a"><rect class="a" width="86.452" height="87.866"/></clipPath></defs><g class="b"><path class="c" d="M156.948,152.393a7.052,7.052,0,0,0-7.044-7.044H122.511a7.052,7.052,0,0,0-7.044,7.044v18.819a7.052,7.052,0,0,0,7.044,7.044h2.252a3.719,3.719,0,0,1-1.665,2.866,2.463,2.463,0,0,0,.88,4.608,6.709,6.709,0,0,0,.794.04c2.226,0,7.8-.746,12.408-7.515H149.9a7.052,7.052,0,0,0,7.044-7.044Zm-36.553,18.819V152.393a2.119,2.119,0,0,1,2.117-2.117H149.9a2.119,2.119,0,0,1,2.117,2.117v18.819a2.119,2.119,0,0,1-2.117,2.117H135.832a2.476,2.476,0,0,0-2.113,1.2,14.88,14.88,0,0,1-4.1,4.605,10.239,10.239,0,0,0-.271-3.954,2.464,2.464,0,0,0-2.385-1.848h-4.456a2.119,2.119,0,0,1-2.117-2.117" transform="translate(-87.065 -109.597)"/><path class="c" d="M22.3,117.95a2.464,2.464,0,1,0,0-4.927H20.365a2.476,2.476,0,0,0-2.113,1.2,14.885,14.885,0,0,1-4.1,4.606,10.237,10.237,0,0,0-.271-3.954,2.463,2.463,0,0,0-2.385-1.848H7.044a2.119,2.119,0,0,1-2.117-2.117V92.087A2.119,2.119,0,0,1,7.044,89.97H34.437a2.119,2.119,0,0,1,2.117,2.117v1.792a2.464,2.464,0,0,0,4.927,0V92.087a7.052,7.052,0,0,0-7.044-7.044H7.044A7.052,7.052,0,0,0,0,92.087v18.819a7.052,7.052,0,0,0,7.044,7.044H9.3a3.72,3.72,0,0,1-1.665,2.866,2.464,2.464,0,0,0,.88,4.608,6.762,6.762,0,0,0,.794.04c2.226,0,7.8-.746,12.408-7.514Z" transform="translate(0 -64.124)"/><path class="c" d="M78.881,0A43.675,43.675,0,0,0,55.343,6.831l.188-.931A2.829,2.829,0,1,0,49.986,4.78l-1.7,8.406a2.829,2.829,0,0,0,2.369,3.361l8.61,1.239a2.829,2.829,0,1,0,.807-5.6l-2.122-.306a38.287,38.287,0,0,1,59.211,32.057,2.829,2.829,0,1,0,5.657,0A43.987,43.987,0,0,0,78.881,0" transform="translate(-36.367)"/><path class="c" d="M306.681,256.671h0a2.832,2.832,0,0,0-3.9.884l-.123.193a2.829,2.829,0,1,0,4.768,3.046l.141-.222a2.829,2.829,0,0,0-.886-3.9" transform="translate(-227.875 -193.209)"/><path class="c" d="M247.013,312.445a2.807,2.807,0,0,0-2.146.274l-.2.113a2.829,2.829,0,1,0,2.781,4.927l.229-.13a2.829,2.829,0,0,0-.663-5.184" transform="translate(-183.398 -235.515)"/><path class="c" d="M279.216,287.888a2.815,2.815,0,0,0-2.016.784l-.165.156a2.829,2.829,0,0,0-.116,4,2.829,2.829,0,0,0,4,.115l.191-.182a2.829,2.829,0,0,0-1.895-4.871" transform="translate(-208.221 -217.074)"/><path class="c" d="M323.643,219.392a2.828,2.828,0,0,0-3.567,1.806l-.072.217a2.829,2.829,0,1,0,5.365,1.794l.083-.249a2.829,2.829,0,0,0-1.809-3.568" transform="translate(-241.179 -165.32)"/><path class="c" d="M168.006,334.19h-.08l-.225.005a2.829,2.829,0,0,0-2.77,2.886,2.843,2.843,0,0,0,2.827,2.771l.329-.007a2.829,2.829,0,0,0-.081-5.656" transform="translate(-124.362 -251.987)"/><path class="c" d="M90.106,316.655l-.213-.107a2.829,2.829,0,1,0-2.554,5.048l.226.114a2.829,2.829,0,0,0,2.541-5.054" transform="translate(-64.685 -238.456)"/><path class="c" d="M127.924,330.241l-.232-.052a2.829,2.829,0,1,0-1.245,5.519l.246.055a2.829,2.829,0,0,0,1.23-5.522" transform="translate(-93.68 -248.918)"/><path class="c" d="M207.7,328.22l-.217.06a2.829,2.829,0,0,0,.741,5.559,2.844,2.844,0,0,0,.746-.1l.26-.072a2.829,2.829,0,0,0-1.53-5.447" transform="translate(-154.87 -247.407)"/><path class="c" d="M56.717,294.252l-.171-.148a2.829,2.829,0,1,0-3.711,4.27l.2.172a2.829,2.829,0,0,0,3.683-4.295" transform="translate(-39.103 -221.238)"/></g></svg>