<svg xmlns="http://www.w3.org/2000/svg" class='marcom-icon' id='social-media' viewBox="0 0 95.326 107.884"><defs><clipPath id="social-media-a"><rect class="a" width="95.326" height="107.884"/></clipPath></defs><g class="b"><path class="c" d="M138.542,475.976a1.729,1.729,0,0,0-1.067-1.3,2.371,2.371,0,0,0-2.844.6c-.044.052-.09.106-.167.091-.1-.019-.114-.1-.124-.179a.873.873,0,0,1-.008-.2c.033-.3-.116-.393-.4-.379a9.676,9.676,0,0,1-1.009,0c-.312-.018-.409.11-.4.413.014.93.005,1.86.005,2.791s.006,1.883,0,2.825c0,.263.092.361.353.352.4-.014.807-.016,1.21,0,.285.012.368-.106.365-.377-.011-.941,0-1.883-.005-2.825a3.169,3.169,0,0,1,.085-.766,1.165,1.165,0,0,1,1.3-.88,1.016,1.016,0,0,1,.93,1.019c.015.156.013.314.013.47,0,1,.009,2,0,2.993,0,.282.1.376.373.366.4-.016.807-.015,1.21,0,.267.009.351-.1.35-.36-.009-1.211,0-2.421-.007-3.632a3.91,3.91,0,0,0-.148-1.029" transform="translate(-106.82 -382.442)"/><path class="c" d="M348.526,292.656a.837.837,0,1,0-.056,1.67.79.79,0,0,0,.844-.813.77.77,0,0,0-.788-.857" transform="translate(-280.198 -235.896)"/><path class="c" d="M314.564,298.732a3.817,3.817,0,0,0-3.888,4,3.867,3.867,0,0,0,7.73-.157,3.805,3.805,0,0,0-3.842-3.842m-.058,6.42a2.57,2.57,0,0,1-2.574-2.577,2.6,2.6,0,0,1,2.643-2.564,2.646,2.646,0,0,1,2.553,2.57,2.578,2.578,0,0,1-2.623,2.571" transform="translate(-250.419 -240.793)"/><path class="c" d="M117.139,475.249c-.4.005-.807.016-1.21,0-.317-.016-.4.12-.4.418.014.93.005,1.86.005,2.79s.01,1.86-.006,2.79c-.005.3.1.4.389.384.414-.019.829-.01,1.244,0,.216,0,.3-.092.3-.3q0-2.874,0-5.748c0-.227-.1-.326-.324-.323" transform="translate(-93.124 -383.071)"/><path class="c" d="M116.191,458.9a.987.987,0,0,0-1.1,1.069,1.078,1.078,0,0,0,1.065,1.137,1.089,1.089,0,0,0,1.094-1.121,1.013,1.013,0,0,0-1.061-1.085" transform="translate(-92.771 -369.899)"/><path class="c" d="M63.795,44.233A17.34,17.34,0,0,0,53.371,47.7L43.276,38.144a23.958,23.958,0,1,0-4.086,4.318l10.1,9.553A17.421,17.421,0,0,0,48.912,70.7L35.257,82.629a14.007,14.007,0,1,0,3.911,4.477L52.826,75.176A17.416,17.416,0,1,0,63.795,44.233M33.269,41.85A18.63,18.63,0,0,1,28.246,43.6c-.939.195-.993.127-.994-.822q0-3.057,0-6.114c0-2.081,0-4.161,0-6.242,0-.777.074-.847.848-.851,1.073-.006,2.145-.014,3.218,0,.435.007.651-.115.714-.6.184-1.4.388-2.8.656-4.185.13-.671-.133-.773-.695-.764-1.287.022-2.574.01-3.861.005-.767,0-.9-.1-.872-.839a22.541,22.541,0,0,1,.135-3.846,2.943,2.943,0,0,1,3.07-2.387c.662-.043,1.33-.02,1.994-.009.4.007.588-.157.585-.57-.009-1.2,0-2.4,0-3.6,0-.273-.036-.525-.374-.578-2.381-.368-4.763-.709-7.109.19-2.719,1.041-3.936,3.156-4.222,5.928a42.81,42.81,0,0,0-.1,4.885c.007.605-.207.854-.824.839-1.179-.027-2.36.007-3.539-.013-.494-.009-.69.168-.682.674.022,1.394.026,2.789,0,4.182-.011.556.226.7.732.689,1.2-.022,2.4,0,3.6-.008.526,0,.828.2.777.76-.158,1.756-.066,3.515-.066,5.273,0,2.423-.062,4.847.038,7.27.031.757-.108.883-.85.744A19.484,19.484,0,0,1,12.68,40.3a19.754,19.754,0,0,1-5.51-5.866,20.5,20.5,0,0,1-2.6-6.668,19.75,19.75,0,0,1-.215-6.583A19.231,19.231,0,0,1,6.28,14.949,19.923,19.923,0,0,1,17.435,5.011,19.428,19.428,0,0,1,25.775,3.9,19.738,19.738,0,0,1,39.1,10.355a19.361,19.361,0,0,1,4.377,7.633,18.207,18.207,0,0,1,.881,6.4c-.441,7.871-4.1,13.735-11.087,17.463m-6.533,62.734A10.5,10.5,0,1,1,37.249,94.1a10.448,10.448,0,0,1-10.513,10.479M63.891,75.573a13.759,13.759,0,1,1,13.9-13.594,13.687,13.687,0,0,1-13.9,13.594" transform="translate(0 0)"/><path class="c" d="M300.283,277.733c-1.966,0-3.932,0-5.9,0a6.044,6.044,0,0,0-1.4.145,4.662,4.662,0,0,0-3.566,4.564c-.01,2.113-.007,4.226,0,6.339a4.662,4.662,0,0,0,4.779,4.794c1.057.008,2.113,0,3.169,0,1.012,0,2.025,0,3.037,0a4.667,4.667,0,0,0,4.841-4.826q.013-3.037,0-6.074a4.715,4.715,0,0,0-4.964-4.94m3.651,10.926a3.5,3.5,0,0,1-3.646,3.591c-1,0-2,0-3.224,0a30.983,30.983,0,0,1-3.375-.07,3.4,3.4,0,0,1-2.948-3.376c-.029-2.128-.058-4.258.009-6.384a3.37,3.37,0,0,1,2.777-3.249,9.377,9.377,0,0,1,1.574-.129c1.688,0,3.376-.014,5.064.009a3.883,3.883,0,0,1,2.137.573,3.469,3.469,0,0,1,1.629,3c.03,2.01.026,4.022,0,6.033" transform="translate(-233.284 -223.865)"/><path class="c" d="M325.735,11.7c-.3.088-.664.206-.84-.164-.148-.31.167-.5.354-.683a7.489,7.489,0,0,0,2.057-3.088,13.007,13.007,0,0,0-2.733,1.048,3.04,3.04,0,0,1-3.4-.371,7.5,7.5,0,0,0-7.867-.9,7.766,7.766,0,0,0-5.1,7.823c.009,1.522-.159,1.633-1.662,1.37a25.515,25.515,0,0,1-14.628-7.523c-.735-.776-1.088-.533-1.358.33a8.44,8.44,0,0,0,1.789,8.522c.266.309.882.561.593,1.033-.315.515-.856.037-1.3,0a1.017,1.017,0,0,1-.224-.078c-1.244-.431-1.525-.224-1.21,1.06a8.6,8.6,0,0,0,4.345,5.674c.387.215,1.134.245,1.006.786-.125.524-.826.223-1.272.3a.467.467,0,0,1-.119,0c-1.106-.1-1.075.345-.63,1.152a8.569,8.569,0,0,0,5.686,4.143c.332.088.795.109.894.492.123.475-.353.678-.662.877a19.13,19.13,0,0,1-5.383,2.141,23.785,23.785,0,0,1-5.3.366,21.6,21.6,0,0,0,9.816,3.317A26.65,26.65,0,0,0,309.157,38.3,20.667,20.667,0,0,0,321.3,28.638c2.272-3.965,2.82-8.36,3.2-12.791a2.311,2.311,0,0,1,.9-1.695,9.9,9.9,0,0,0,2.691-3.165c-.934.283-1.644.5-2.359.712" transform="translate(-232.767 -5.509)"/></g></svg>