<svg xmlns="http://www.w3.org/2000/svg" class='marcom-icon' id='stat-21' viewBox="0 0 229.984 229.984"><defs><clipPath id="stat-21-a"><rect class="a" width="229.984" height="229.984"/></clipPath></defs><g class="b"><path class="c" d="M114.992,229.984A114.992,114.992,0,1,1,229.984,114.992,115.123,115.123,0,0,1,114.992,229.984m0-197.9a82.909,82.909,0,1,0,82.909,82.91,83,83,0,0,0-82.909-82.91"/><path class="d" d="M274.58,126.71a6.417,6.417,0,0,1-6.417-6.417A92.639,92.639,0,0,0,175.63,27.759a6.417,6.417,0,1,1,0-12.833A105.487,105.487,0,0,1,281,120.293a6.417,6.417,0,0,1-6.417,6.417" transform="translate(-60.637 -5.349)"/></g><text class="e" transform="translate(73.217 128.893)"><tspan x="0" y="0">21%</tspan></text></svg>