<svg xmlns="http://www.w3.org/2000/svg" class='marcom-icon' id='stat-47'viewBox="0 0 229.984 229.985"><defs><clipPath id="stat-47-a"><rect class="a" width="229.984" height="229.985"/></clipPath></defs><g class="b"><path class="c" d="M114.992,229.985A114.992,114.992,0,1,1,229.984,114.992,115.123,115.123,0,0,1,114.992,229.985m0-197.9a82.91,82.91,0,1,0,82.909,82.91,83,83,0,0,0-82.909-82.91"/><path class="d" d="M191.458,224.4a6.417,6.417,0,0,1-1.011-12.753A92.542,92.542,0,0,0,175.63,27.76a6.417,6.417,0,1,1,0-12.833A105.376,105.376,0,0,1,192.486,224.32a6.437,6.437,0,0,1-1.027.083" transform="translate(-60.637 -5.349)"/></g><text class="e" transform="translate(66.664 128.894)"><tspan x="0" y="0">47%</tspan></text></svg>