<svg xmlns="http://www.w3.org/2000/svg" class='marcom-icon' id='stat-88' viewBox="0 0 229.985 229.985"><defs><clipPath id="stat-88-a"><rect class="a" width="229.985" height="229.985"/></clipPath></defs><g class="b"><path class="c" d="M114.992,229.985A114.992,114.992,0,1,1,229.985,114.992,115.123,115.123,0,0,1,114.992,229.985m0-197.9a82.91,82.91,0,1,0,82.91,82.91,83,83,0,0,0-82.91-82.91"/><path class="d" d="M120.368,225.661A105.375,105.375,0,0,1,61.4,32.959a6.416,6.416,0,1,1,7.19,10.63A92.548,92.548,0,1,0,120.368,27.76a6.417,6.417,0,1,1,0-12.833,105.367,105.367,0,1,1,0,210.734" transform="translate(-5.375 -5.349)"/></g><text class="e" transform="translate(66.309 128.894)"><tspan class="f" x="0" y="0">8</tspan><tspan y="0">8%</tspan></text></svg>