<svg xmlns="http://www.w3.org/2000/svg" class='three-steps-svg' id='rocket' viewBox="0 0 289 219.563"><defs><clipPath id="rocket-a"><rect class="a" width="289" height="219.563"/></clipPath></defs><g class="b"><path class="a" d="M388.374,211.965c-8.114,3.482-10.337,9.09-10.72,13.35a1.618,1.618,0,0,0-1.149-.477,11.323,11.323,0,0,0-9.067,18.112,11.327,11.327,0,1,0,11.93,17.286,1.653,1.653,0,0,0,.251.025h15.624a11.325,11.325,0,0,0,21.874-2.058,11.321,11.321,0,0,0,9.418-19.648,11.326,11.326,0,0,0-16.16-15.693,11.331,11.331,0,0,0-2.55-4.215,11.326,11.326,0,1,0-19.452-6.683m11.264-9.219a8.078,8.078,0,0,1,5.712,13.79c-.032.032-.055.069-.084.1a11.254,11.254,0,0,0-5.628-1.5,1.625,1.625,0,1,0,0,3.25,8.078,8.078,0,1,1-8.078,8.078,1.625,1.625,0,1,0-3.25,0,11.328,11.328,0,0,0,22.656,0c0-.05,0-.1,0-.151a1.608,1.608,0,0,0,.949-.457A8.075,8.075,0,0,1,423.8,236.765a11.258,11.258,0,0,0-4.756-1.05,1.625,1.625,0,0,0,0,3.25,8.078,8.078,0,1,1-8.078,8.077,1.625,1.625,0,0,0-3.25,0,11.338,11.338,0,0,0,6.254,10.124,8.077,8.077,0,1,1-13.532-6.607,1.625,1.625,0,0,0-2.207-2.386,11.3,11.3,0,0,0-3.616,8.838H380.835a11.306,11.306,0,0,0,.409-3.01,1.625,1.625,0,1,0-3.25,0,8.078,8.078,0,1,1-8.078-8.078,1.618,1.618,0,0,0,.631-.127,11.259,11.259,0,0,0,5.957,1.7,1.625,1.625,0,0,0,0-3.25,8.078,8.078,0,1,1,0-16.156,1.616,1.616,0,0,0,1.105-.44,14.713,14.713,0,0,0,.573,3.521,1.625,1.625,0,0,0,3.078-1.043c-.141-.416-3.2-9.888,7.915-14.963a11.263,11.263,0,0,0,2.452,3.671,1.625,1.625,0,1,0,2.3-2.3,8.078,8.078,0,0,1,5.712-13.79" transform="translate(-212.897 -118.442)"/><path class="a" d="M341.961,63.418a1.625,1.625,0,0,0-.521,1.557l3.337,15.941a1.625,1.625,0,0,0,2.642.907l9.324-7.906a1.625,1.625,0,1,0-2.1-2.479L347.4,77.578,344.815,65.24l9-7.863a1.625,1.625,0,0,0,.542-1.435c-2.95-22.52.216-35.735,3.391-42.855,2.506-5.62,5.405-8.4,6.763-9.482,2.487,1.931,9.87,9.137,9.87,26.581a1.625,1.625,0,0,0,3.25,0C377.632,7.44,365.81.5,365.307.211A1.627,1.627,0,0,0,363.724.2c-.755.415-18.314,10.608-12.7,55.3Z" transform="translate(-202.695 0)"/><path class="a" d="M407.455,133.666a1.624,1.624,0,0,0,.137,2.294l8.9,7.9-2.843,12.295-7.416-5.721a1.625,1.625,0,0,0-.993-.338h-7.852a1.625,1.625,0,1,0,0,3.25h3.086V168.8a1.625,1.625,0,1,0,3.25,0V153.344h.962l8.983,6.93a1.626,1.626,0,0,0,2.577-.92l3.631-15.7a1.624,1.624,0,0,0-.505-1.581l-9.618-8.539a1.625,1.625,0,0,0-2.294.136" transform="translate(-234.965 -79.035)"/><path class="a" d="M395.89,222.339a1.625,1.625,0,0,0,1.625-1.625V203.833a1.625,1.625,0,1,0-3.25,0v16.881a1.625,1.625,0,0,0,1.625,1.625" transform="translate(-234.079 -120.053)"/><path class="a" d="M381.742,199.038v8.327a1.625,1.625,0,1,0,3.25,0v-8.327a1.625,1.625,0,1,0-3.25,0" transform="translate(-226.643 -117.206)"/><path class="a" d="M395.39,55.364a6.163,6.163,0,1,0-6.163,6.163,6.17,6.17,0,0,0,6.163-6.163m-9.075,0a2.912,2.912,0,1,1,2.912,2.912,2.915,2.915,0,0,1-2.912-2.912" transform="translate(-227.429 -29.212)"/><path class="a" d="M403.913,220.607c-1.075-.689-26.56-16.79-47.411-9.264a31.038,31.038,0,0,0-15.742,12.951l-2.769-1.632C336.99,214,334.285,204,327.3,200.7c-5.061-2.388-11.5-.9-19.216,4.415l-7.946-4.681c-.317-1.62-.682-3.308-1.1-5.016-3.1-12.633-7.557-19.727-13.234-21.087-4.677-1.12-9.7,1.593-15.22,8.253l-7.15-4.212c-2.688-8.391-6.825-18.618-12.391-24.814V104.31H253.3a1.625,1.625,0,1,0,0-3.25h-2.256V88.581h4.5a1.625,1.625,0,0,0,0-3.25h-4.5v-19.6l6.925,4.227a1.625,1.625,0,1,0,1.693-2.774l-9.373-5.721-.049-.03L232.494,50.6a1.7,1.7,0,0,0-.155-.081l-.031-.016a1.594,1.594,0,0,0-.261-.088c-.023-.006-.045-.01-.068-.015a1.647,1.647,0,0,0-.231-.031c-.017,0-.034,0-.052,0a1.63,1.63,0,0,0-.271.015l-.074.013a1.58,1.58,0,0,0-.222.058c-.019.007-.039.011-.058.018a1.647,1.647,0,0,0-.22.1c-.013.007-.025.017-.038.025s-.015.007-.022.011l-19.5,12.082a1.626,1.626,0,0,0-.769,1.382V99.837l-1.8-1.1a1.535,1.535,0,0,0-.154-.08l-.033-.017a1.619,1.619,0,0,0-.26-.088l-.069-.015a1.684,1.684,0,0,0-.229-.031c-.018,0-.035,0-.053,0a1.63,1.63,0,0,0-.271.015l-.074.013a1.593,1.593,0,0,0-.222.058c-.02.007-.039.011-.058.018a1.652,1.652,0,0,0-.22.1c-.013.007-.025.017-.038.025s-.015.007-.022.011l-11.437,7.085a1.625,1.625,0,0,0-.769,1.381v61.673a1.625,1.625,0,0,0,.791,1.395l11.437,6.837.019.01.018.012c.03.017.062.03.093.045s.056.029.085.041.07.025.105.036.065.024.1.033.062.013.093.019.076.017.114.022.059,0,.089.006.078.008.117.008a1.628,1.628,0,0,0,.214-.014c.024,0,.048-.01.072-.014.046-.008.091-.016.136-.028.028-.007.054-.017.081-.026s.083-.027.123-.043c.025-.01.049-.023.073-.035.042-.02.084-.041.124-.064l.022-.011,6.657-4.047,15.439,9.231.019.009.018.012c.03.017.062.03.093.044s.057.029.086.041.07.025.1.037.066.024.1.032.062.013.093.019.076.017.114.022.059,0,.089.006.078.008.117.008a1.634,1.634,0,0,0,.214-.015c.024,0,.048-.01.072-.014.046-.008.091-.016.136-.028.027-.007.054-.018.081-.026s.082-.027.123-.043c.025-.011.049-.023.073-.035.042-.02.084-.041.124-.064l.022-.011,17.772-10.8a1.624,1.624,0,0,0,.781-1.389V158.808c3.769,5.508,6.89,13.193,9.178,20.218l-17.206,10.216a1.625,1.625,0,0,0,0,2.8L268.109,206.9a1.624,1.624,0,0,0,1.675-.011l18.336-11.195a1.625,1.625,0,0,0-.022-2.787l-14.67-8.643c4.433-5.223,8.379-7.544,11.619-6.768,5.717,1.368,9.393,11.783,11.511,21.6a1.584,1.584,0,0,0-.189.1l-18.529,11a1.625,1.625,0,0,0,0,2.8l25.091,14.862a1.625,1.625,0,0,0,1.675-.011l18.336-11.195a1.625,1.625,0,0,0-.022-2.787l-11.757-6.927c6.07-3.942,11.011-5.053,14.748-3.29,4.9,2.309,7.352,9.538,8.5,16.913a1.624,1.624,0,0,0-1.617.022l-18.529,11a1.625,1.625,0,0,0,0,2.8l25.091,14.862a1.625,1.625,0,0,0,1.675-.011l18.336-11.195a1.625,1.625,0,0,0-.022-2.787l-15.78-9.3A27.877,27.877,0,0,1,357.6,214.4c19.335-6.987,44.313,8.78,44.563,8.94a1.625,1.625,0,0,0,1.754-2.737M206.247,172.855l-8.186-4.894V108.115l8.186-5.071Zm10.422-4.383L209.5,172.83V103.021l7.172,4.377Zm13.352,9.561-11.507-6.879.624-.379a1.625,1.625,0,0,0,.781-1.389v-62.9a1.625,1.625,0,0,0-.778-1.387l-5.372-3.278V64.974l16.252-10.068Zm17.772-27.471a13.321,13.321,0,0,0-4.55-2.248,1.625,1.625,0,1,0-.814,3.147,12.133,12.133,0,0,1,5.364,3.36v14.361l-14.521,8.826V54.883l14.521,8.864Zm20.771,34.61q-1.13,1.525-2.289,3.259c-.369-1.5-.854-3.365-1.453-5.463Zm15.55,9.161-15.189,9.274-21.893-12.967,14.188-8.424c1.267,4.22,2.2,8.013,2.749,10.683a1.625,1.625,0,0,0,2.976.523q2.281-3.715,4.44-6.588Zm21.122,12.88q-1.745,1.358-3.568,2.954c-.176-1.471-.428-3.364-.774-5.512Zm13.7,8.073-15.19,9.274-21.893-12.967L297.2,202.48l.036.021c.811,4.4,1.3,8.431,1.525,11.153a1.625,1.625,0,0,0,2.731,1.055,82.588,82.588,0,0,1,6.748-5.726ZM339.111,227.1c-.226.42-.45.842-.667,1.276-.026-.559-.058-1.136-.1-1.726Zm16.25,9.573-15.189,9.274-21.893-12.968,15.346-9.111,1.292.761a80.934,80.934,0,0,1,.268,12.087,1.626,1.626,0,0,0,1.322,1.7,1.65,1.65,0,0,0,.3.028,1.625,1.625,0,0,0,1.548-1.133,50.494,50.494,0,0,1,3.56-8.559Z" transform="translate(-115.661 -29.901)"/><path class="a" d="M305.834,426.427l-125.55-72.675a1.625,1.625,0,0,0-1.628,2.813L304.206,429.24a1.625,1.625,0,1,0,1.628-2.813" transform="translate(-105.588 -209.895)"/><path class="a" d="M127.989,373.8,2.439,301.12a1.625,1.625,0,0,0-1.628,2.813l125.55,72.675a1.625,1.625,0,0,0,1.628-2.813" transform="translate(0 -178.648)"/></g></svg>