<svg xmlns="http://www.w3.org/2000/svg" class='services-icon' id='worship' viewBox="0 0 93.091 62.49"><defs><clipPath id="worship-a"><rect class="a" width="93.091" height="62.49"/></clipPath></defs><g class="b"><path class="a" d="M318.272,41.5c.065,0,.121.009.187.009a3.318,3.318,0,0,0,.177-6.631c-.065,0-.121-.009-.187-.009a3.318,3.318,0,0,0-.177,6.631" transform="translate(-262.955 -29.094)"/><path class="a" d="M463.116,134.128c-.065,0-.121-.009-.187-.009a3.323,3.323,0,0,0-.177,6.641c.065,0,.121.009.187.009a3.323,3.323,0,0,0,.177-6.641" transform="translate(-383.512 -111.912)"/><path class="a" d="M465.46,85.6a3.281,3.281,0,0,0-2.285-1.1c-.065,0-.121-.009-.187-.009a3.318,3.318,0,0,0-.177,6.631c.065,0,.121.009.186.009A3.316,3.316,0,0,0,466.308,88a3.357,3.357,0,0,0-.849-2.4" transform="translate(-383.561 -70.503)"/><path class="a" d="M240.687,98.466a3.3,3.3,0,0,0,2.136.933c.065,0,.121.009.186.009a3.323,3.323,0,0,0,.177-6.641h-.177a3.285,3.285,0,0,0-1.819.55.882.882,0,0,1-.438-.261,2.741,2.741,0,0,1-.149-1.091,1.621,1.621,0,0,1,.261-1.073,3.317,3.317,0,0,1,2.257-.559h6.631a3.277,3.277,0,0,0,2.043.849c.065,0,.121.009.187.009a3.318,3.318,0,0,0,.177-6.631c-.065,0-.121-.009-.186-.009A3.288,3.288,0,0,0,250,85.2h-6.883c-2.817,0-4.915.821-6.24,2.453a6.752,6.752,0,0,0-1.418,4.318c.009,3.591,1.809,5.82,5.232,6.491m2.425-11.64h7.527a1.675,1.675,0,0,1,1.334-.653h.093a1.689,1.689,0,0,1-.093,3.376h-.093a1.672,1.672,0,0,1-1.371-.849h-7.4c-3.721,0-4.16,1.865-4.16,3.264,0,1.492.233,2.77,2.686,3.124A1.7,1.7,0,0,1,243,94.4h.093A1.689,1.689,0,0,1,243,97.775h-.093a1.674,1.674,0,0,1-1.352-.821c-3.031-.392-4.458-2.005-4.458-4.99,0-1.921.774-5.139,6.016-5.139" transform="translate(-196.469 -70.55)"/><path class="a" d="M376.117,48.68c.028.644.056,1.2.056,2.294a5.688,5.688,0,0,0,1.8,4.421,7.378,7.378,0,0,0,4.066,1.67,3.3,3.3,0,0,0,2.015.83c.065,0,.121.009.187.009a3.323,3.323,0,0,0,.177-6.641c-.056,0-.121-.009-.177-.009a3.329,3.329,0,0,0-1.977.653,1.651,1.651,0,0,1-.849-.336,1.044,1.044,0,0,1-.112-.606c0-1.175-.028-1.791-.056-2.5v-.028c-.009-.224-.019-.457-.028-.718a3.333,3.333,0,0,0,2.845,1.949c.065,0,.121.009.187.009a3.319,3.319,0,0,0,2.472-5.531,3.281,3.281,0,0,0-2.285-1.1c-.065,0-.121-.009-.187-.009a3.316,3.316,0,0,0-3.068,2.061V44.016c0-1.427.242-2.369.727-2.789a3.839,3.839,0,0,1,2.444-.532h6.771a3.254,3.254,0,0,0,1.921.746c.065,0,.121.009.187.009a3.318,3.318,0,0,0,.177-6.631c-.056,0-.121-.009-.177-.009a3.27,3.27,0,0,0-2.1.755h-6.771c-2.761,0-4.794.709-6.212,2.154s-2.1,3.5-2.1,6.3c0,2.621.047,3.684.084,4.617ZM384.334,37.2H391.8a1.688,1.688,0,0,1,1.4-.756h.093a1.689,1.689,0,0,1-.093,3.376h-.093a1.676,1.676,0,0,1-1.306-.755h-7.471c-2.966,0-4.813.83-4.813,4.953,0,2.584.047,3.609.084,4.514.028.7.056,1.3.056,2.444,0,1.259.42,2.434,3.18,2.667a1.7,1.7,0,0,1,1.4-.746h.093a1.689,1.689,0,0,1-.093,3.376h-.093a1.664,1.664,0,0,1-1.315-.765c-3.33-.252-5.027-1.772-5.027-4.533,0-1.11-.028-1.688-.056-2.36-.037-.923-.084-1.968-.084-4.589-.009-4.654,2.117-6.827,6.669-6.827" transform="translate(-313.786 -29.047)"/><path class="a" d="M264.138,41.452c.065,0,.121.009.186.009a3.323,3.323,0,0,0,.177-6.641c-.065,0-.121-.009-.187-.009a3.326,3.326,0,0,0-2.472,5.54,3.283,3.283,0,0,0,2.294,1.1" transform="translate(-217.784 -29.047)"/><path class="a" d="M318.688,134.128c-.065,0-.121-.009-.187-.009a3.323,3.323,0,0,0-.177,6.641c.065,0,.131.009.187.009a3.323,3.323,0,0,0,.177-6.641" transform="translate(-262.998 -111.912)"/><path class="a" d="M47.132,121.183c.1.009.215.009.317.009a5.639,5.639,0,0,0,5.633-5.335,5.644,5.644,0,0,0-5.326-5.951c-.1-.009-.205-.009-.317-.009a5.647,5.647,0,0,0-.308,11.285" transform="translate(-34.877 -91.701)"/><path class="a" d="M90.1,0H2.985A2.981,2.981,0,0,0,0,2.985V59.5A2.981,2.981,0,0,0,2.985,62.49H90.106A2.981,2.981,0,0,0,93.091,59.5V2.985A3,3,0,0,0,90.1,0m1.362,59.5a1.353,1.353,0,0,1-1.352,1.352H2.985A1.354,1.354,0,0,1,1.632,59.5V2.985A1.353,1.353,0,0,1,2.985,1.632H90.106a1.353,1.353,0,0,1,1.352,1.352Z"/><path class="a" d="M108.9,208.941a3.2,3.2,0,0,0-.765-2.36,3.245,3.245,0,0,0-2.36-.755H26.782a3.128,3.128,0,0,0-2.36.755,3.218,3.218,0,0,0-.765,2.36v18.29a3.2,3.2,0,0,0,.765,2.36,3.113,3.113,0,0,0,2.369.755H105.8a2.728,2.728,0,0,0,3.125-3.124V227.2l-.028-1.427Zm-3.115,19.782h-79c-1.24,0-1.492-.252-1.492-1.492v-18.29c0-1.241.252-1.492,1.492-1.492h2.826v13.757a.748.748,0,0,0,.746.746h1.688a.748.748,0,0,0,.746-.746V207.449h3.526v13.757a.748.748,0,0,0,.746.746h1.688a.748.748,0,0,0,.746-.746V207.449h6.864v13.757a.748.748,0,0,0,.746.746h1.688a.748.748,0,0,0,.746-.746V207.449h3.525v13.757a.748.748,0,0,0,.746.746H55.5a.748.748,0,0,0,.746-.746V207.449h3.516v13.757a.748.748,0,0,0,.746.746h1.679a.748.748,0,0,0,.746-.746V207.449h6.725v13.757a.748.748,0,0,0,.746.746h1.688a.748.748,0,0,0,.746-.746V207.449h3.525v13.757a.748.748,0,0,0,.746.746H78.8a.748.748,0,0,0,.746-.746V207.449h6.864v13.757a.748.748,0,0,0,.746.746h1.688a.748.748,0,0,0,.746-.746V207.449h3.525v13.757a.748.748,0,0,0,.746.746h1.688a.748.748,0,0,0,.746-.746V207.449h3.516v13.757a.748.748,0,0,0,.746.746h1.688a.748.748,0,0,0,.746-.746V207.449h2.789c1.241,0,1.492.252,1.492,1.492v16.835l.009,1.446c-.009,1.241-.261,1.5-1.5,1.5" transform="translate(-19.741 -171.746)"/><path class="a" d="M122.782,44.519c.1.009.215.009.317.009a5.647,5.647,0,0,0,.308-11.285c-.1-.009-.215-.009-.317-.009a5.647,5.647,0,0,0-.308,11.285" transform="translate(-98.001 -27.731)"/><path class="a" d="M122.782,121.183c.1.009.215.009.317.009a5.647,5.647,0,0,0,.308-11.285c-.1-.009-.205-.009-.317-.009a5.647,5.647,0,0,0-.308,11.285" transform="translate(-98.001 -91.701)"/><path class="a" d="M47.132,44.519c.1.009.215.009.317.009a5.639,5.639,0,0,0,5.633-5.335,5.644,5.644,0,0,0-5.326-5.951c-.1-.009-.215-.009-.317-.009a5.647,5.647,0,0,0-.308,11.285" transform="translate(-34.877 -27.731)"/></g></svg>