<svg xmlns="http://www.w3.org/2000/svg" class='services-icon' id='hr' viewBox="0 0 96.701 113.878"><defs><clipPath id="hr-a"><rect class="a" width="96.701" height="113.878"/></clipPath></defs><g class="b"><path class="c" d="M125.778,185.707a3.153,3.153,0,0,0,.79-6.2,20.208,20.208,0,0,1-5.724-2.5l-.069-.034a20.189,20.189,0,1,1,21.738.011.344.344,0,0,0-.08.057,19.954,19.954,0,0,1-2.587,1.385,3.157,3.157,0,1,0,2.564,5.769c.561-.252,1.122-.527,1.66-.813a24.288,24.288,0,0,1,9.638,10.829,3.156,3.156,0,0,0,2.873,1.866,3.247,3.247,0,0,0,1.294-.275,3.139,3.139,0,0,0,1.58-4.167,30.575,30.575,0,0,0-9.89-12.157,26.471,26.471,0,1,0-35.852.011,30.755,30.755,0,0,0-9.329,11,3.143,3.143,0,0,0,1.408,4.224,3.1,3.1,0,0,0,1.408.332,3.177,3.177,0,0,0,2.827-1.74,24.381,24.381,0,0,1,9.226-9.947,26.307,26.307,0,0,0,5.735,2.244,3.184,3.184,0,0,0,.79.1" transform="translate(-83.554 -107.2)"/><path class="c" d="M198.943,283.127A13.627,13.627,0,0,0,207,285.783a13.075,13.075,0,0,0,7.75-2.576,3.15,3.15,0,1,0-3.675-5.117,6.927,6.927,0,0,1-8.253.069,3.152,3.152,0,0,0-3.88,4.968" transform="translate(-158.79 -222.832)"/><path class="c" d="M200.68,227.651a3.566,3.566,0,1,0-3.56,3.56,3.556,3.556,0,0,0,3.56-3.56" transform="translate(-155.423 -179.948)"/><path class="c" d="M265.88,227.651a3.566,3.566,0,1,0-3.56,3.56,3.564,3.564,0,0,0,3.56-3.56" transform="translate(-207.779 -179.948)"/><path class="c" d="M32.712,95.036a42.025,42.025,0,0,1,13.484-81l-2.93,3.136a3.15,3.15,0,0,0,4.6,4.3l7.818-8.356a3.149,3.149,0,0,0-.149-4.453L47.181.85a3.15,3.15,0,0,0-4.3,4.6l2.484,2.324A48.281,48.281,0,0,0,.18,51.881a48.1,48.1,0,0,0,30.186,49,3.26,3.26,0,0,0,1.168.229,3.153,3.153,0,0,0,1.179-6.078" transform="translate(0 0)"/><path class="c" d="M228.856,54.521a3.149,3.149,0,0,0-2.278,5.872,42.022,42.022,0,0,1-12.065,81.079l3.56-3a3.152,3.152,0,1,0-4.064-4.819L204.1,142.01a3.155,3.155,0,0,0-.378,4.441l8.356,9.913a3.155,3.155,0,0,0,2.415,1.122,3.1,3.1,0,0,0,2.026-.744,3.155,3.155,0,0,0,.378-4.441l-3.743-4.441a48.321,48.321,0,0,0,15.705-93.339" transform="translate(-162.993 -43.608)"/></g></svg>