<svg xmlns="http://www.w3.org/2000/svg" class='services-icon' id='staffing' viewBox="0 0 114.377 114.121"><defs><clipPath id="staffing-a"><rect class="a" width="114.377" height="114.121" transform="translate(0)"/></clipPath></defs><g class="b" transform="translate(0)"><path class="a" d="M85.594,0A28.46,28.46,0,0,0,59.047,39.037L44.486,47.622A25.534,25.534,0,0,0,0,64.576a25.2,25.2,0,0,0,10.28,20.445l.63.481a25.553,25.553,0,0,0,29.282,0,3.868,3.868,0,0,0,.63-.515A23.308,23.308,0,0,0,45.894,80l12.489,7.613a19.6,19.6,0,1,0,3.011-5.231L48.9,74.753a25.09,25.09,0,0,0-.836-22.311l13.863-8.208a29.023,29.023,0,0,0,5.4,6.01A28.534,28.534,0,1,0,85.594,0m-48.5,80.281a1.879,1.879,0,0,1-.424.3,19.8,19.8,0,0,1-22.288,0l-.572-.389a15.472,15.472,0,0,1-1.8-1.442A13.482,13.482,0,0,1,20.355,67.06a7.433,7.433,0,0,1-2.347-5.495,7.51,7.51,0,1,1,15.019,0,7.384,7.384,0,0,1-2.4,5.495,13.533,13.533,0,0,1,4.442,3,13.392,13.392,0,0,1,3.961,8.654,17.254,17.254,0,0,1-1.935,1.568m31.984,23.33a7.514,7.514,0,0,1,7.509-7.51,4.51,4.51,0,1,1,4.51-4.51,4.512,4.512,0,0,1-4.51,4.51,7.487,7.487,0,0,1,7.51,7.452v2.255a12.826,12.826,0,0,1-1.385.813,13.3,13.3,0,0,1-12.283,0c-.481-.24-.9-.538-1.351-.813Zm31-57.844a22.473,22.473,0,0,1-28.985,0l-1.2-1.11a16.5,16.5,0,0,1,9.765-10.486,10.4,10.4,0,0,1-4.568-8.654,10.509,10.509,0,0,1,21.017,0,10.393,10.393,0,0,1-4.568,8.62A16.244,16.244,0,0,1,101.3,44.589a11.942,11.942,0,0,1-1.225,1.179" transform="translate(-0.001 0)"/></g></svg>