<svg xmlns="http://www.w3.org/2000/svg" class='services-icon' id='video' viewBox="0 0 92.529 75.651"><defs><clipPath id="video-a"><rect class="a" width="92.529" height="75.651"/></clipPath></defs><g class="b"><path class="a" d="M85.3,0H7.232A7.231,7.231,0,0,0,0,7.232V61.807a7.231,7.231,0,0,0,7.232,7.232H85.3a7.231,7.231,0,0,0,7.232-7.232V7.223A7.229,7.229,0,0,0,85.3,0m3.57,58.875a6.56,6.56,0,0,1-6.659,6.455H10.321a6.554,6.554,0,0,1-6.659-6.455V10.155A6.56,6.56,0,0,1,10.321,3.7H82.208a6.554,6.554,0,0,1,6.659,6.455Z"/><path class="a" d="M136.551,439.467H69.418a1.443,1.443,0,1,0,0,2.885h67.133a1.443,1.443,0,0,0,0-2.885" transform="translate(-56.72 -366.701)"/><path class="a" d="M132.088,310.413H81.519a4.49,4.49,0,0,0-4.227-2.987,4.7,4.7,0,0,0-1.489.25,4.484,4.484,0,0,0-2.386,1.97,4.679,4.679,0,0,0-.351.758H63.059a1.563,1.563,0,1,0,0,3.126H73.1a4.186,4.186,0,0,0,.314.647,4.489,4.489,0,0,0,2.469,2,4.432,4.432,0,0,0,1.406.222,4.508,4.508,0,0,0,4.19-2.867h50.607a1.558,1.558,0,1,0,0-3.117" transform="translate(-51.314 -256.523)"/><path class="a" d="M187.059,101.005a18.33,18.33,0,1,0-17.812-22.649v.019a18.342,18.342,0,0,0,17.812,22.631m0-33.544a15.213,15.213,0,1,1-15.213,15.213,15.231,15.231,0,0,1,15.213-15.213" transform="translate(-140.799 -53.691)"/><path class="a" d="M237.192,128.244a1.534,1.534,0,0,0,.749.194,1.612,1.612,0,0,0,.842-.241l15.685-10a1.555,1.555,0,0,0,.721-1.313,1.571,1.571,0,0,0-.721-1.323l-15.685-10a1.562,1.562,0,0,0-2.4,1.313v19.995a1.573,1.573,0,0,0,.814,1.369m2.312-18.515,11.218,7.149L239.5,124.027Z" transform="translate(-197.239 -87.884)"/></g></svg>