<svg xmlns="http://www.w3.org/2000/svg" class='services-icon' id='it' viewBox="0 0 82.725 82.855"><defs><clipPath id="it-a"><rect class="a" width="82.725" height="82.855"/></clipPath></defs><g class="b"><path class="a" d="M61.848,258.028H68.81l12.609-10.349L73.513,242H53.9v15.043a5.013,5.013,0,0,1,3.618-1.54,5.065,5.065,0,0,1,4.33,2.525" transform="translate(-44.975 -201.93)"/><path class="a" d="M269.8,247.381l14.695,10.6h7.269a5.086,5.086,0,0,1,4.338-2.525,5.006,5.006,0,0,1,2.956.96V241.95H276.423Z" transform="translate(-225.127 -201.889)"/><path class="a" d="M111.537,306.836H103.49a2.1,2.1,0,0,1-.786-.141,1.294,1.294,0,0,1-.927-.522L85.566,294.5,71.219,306.306l-.323.265h-.108a1.322,1.322,0,0,1-.538.133,2.011,2.011,0,0,1-.712.132H61.756a5.086,5.086,0,0,1-4.338,2.525,4.985,4.985,0,0,1-3.618-1.54v11.839H77.146v-6.474a5.094,5.094,0,0,1-2.533-4.338,5.034,5.034,0,1,1,10.067,0,5.114,5.114,0,0,1-2.525,4.338v6.342h9.107v-6.342a5.094,5.094,0,0,1-2.533-4.338,5.034,5.034,0,1,1,10.067,0,5.114,5.114,0,0,1-2.525,4.338v6.342h22.552V308.408a5.006,5.006,0,0,1-2.956.96,5.08,5.08,0,0,1-4.33-2.533" transform="translate(-44.892 -245.737)"/><path class="a" d="M105.676,66.682h3.146a5.094,5.094,0,0,1,4.338-2.533,5.034,5.034,0,0,1,0,10.067,5.114,5.114,0,0,1-4.338-2.525h-5.646a2.418,2.418,0,0,1-2.5-2.5V53.858H96.23v7.807A5.1,5.1,0,0,1,98.763,66,5.034,5.034,0,0,1,88.7,66a5.114,5.114,0,0,1,2.525-4.338V53.858H82.247v7.807A5.1,5.1,0,0,1,84.772,66,5.034,5.034,0,0,1,74.7,66a5.1,5.1,0,0,1,2.533-4.338V53.858H72.262V69.191a2.418,2.418,0,0,1-2.5,2.5H64.513a5.038,5.038,0,1,1,0-5.009h2.749V53.85H53.9V79.995H74.291a2.914,2.914,0,0,1,1.325.389l.083.041.075.058,9.653,6.929,8.353-6.88.1-.083.116-.058A2.914,2.914,0,0,1,95.319,80h23.586V53.85h-13.23Z" transform="translate(-44.975 -44.934)"/><path class="a" d="M81.505,1.407A4.5,4.5,0,0,0,78.3,0H4.553A4.616,4.616,0,0,0,0,4.553V78.169a4.521,4.521,0,0,0,4.553,4.686H78.169A4.509,4.509,0,0,0,82.722,78.3V4.5a4.254,4.254,0,0,0-1.217-3.1M78.939,76.439a2.418,2.418,0,0,1-2.5,2.5H6.416a2.425,2.425,0,0,1-2.508-2.5V6.416a2.42,2.42,0,0,1,2.508-2.5H76.3a2.425,2.425,0,0,1,2.508,2.5V75.263h.132Z"/><path class="a" d="M468.85,461.6h0Z" transform="translate(-391.219 -385.17)"/><path class="a" d="M81.924,134.751a1.946,1.946,0,1,1-1.872,2.017,1.946,1.946,0,0,1,1.872-2.017" transform="translate(-66.796 -112.438)"/><path class="a" d="M200.158,115.4a1.946,1.946,0,1,1-1.9,1.985,1.946,1.946,0,0,1,1.9-1.985" transform="translate(-165.426 -96.294)"/><path class="a" d="M284.684,115.536a1.946,1.946,0,1,1-1.126,2.51,1.945,1.945,0,0,1,1.126-2.51" transform="translate(-236.501 -96.299)"/><path class="a" d="M401.969,134.75a1.946,1.946,0,1,1-1.918,1.973,1.946,1.946,0,0,1,1.918-1.973" transform="translate(-333.812 -112.438)"/><path class="a" d="M421.341,343.087a1.946,1.946,0,1,0-1.946,1.946,1.942,1.942,0,0,0,1.946-1.946" transform="translate(-348.33 -284.663)"/><path class="a" d="M284.4,369.064a1.946,1.946,0,1,1-.951,2.582,1.945,1.945,0,0,1,.951-2.582" transform="translate(-236.365 -307.806)"/><path class="a" d="M199.289,369.022a1.946,1.946,0,1,1-1.126,2.51,1.945,1.945,0,0,1,1.126-2.51" transform="translate(-165.246 -307.814)"/><path class="a" d="M64,343.087a1.946,1.946,0,1,0,1.946-1.937A1.943,1.943,0,0,0,64,343.087" transform="translate(-53.403 -284.663)"/></g></svg>