<svg xmlns="http://www.w3.org/2000/svg" class='services-icon' id='online' viewBox="0 0 98.004 70.006"><defs><clipPath id="online-a"><rect class="a" width="98.004" height="70.006"/></clipPath></defs><g class="b"><path class="a" d="M94.5,57.753H91V1.746A1.744,1.744,0,0,0,89.254,0H8.751A1.744,1.744,0,0,0,7,1.746V57.753H3.5a3.5,3.5,0,0,0-3.5,3.5,8.746,8.746,0,0,0,8.751,8.751h80.5A8.746,8.746,0,0,0,98,61.255a3.5,3.5,0,0,0-3.5-3.5M10.5,3.5h77v49H40.251v-3.12A5.216,5.216,0,0,0,42,45.5V36.749a8.75,8.75,0,0,0-5.759-8.192,8.752,8.752,0,1,0-12.989,0,8.75,8.75,0,0,0-5.759,8.192V45.5a5.287,5.287,0,0,0,1.746,3.885V52.5H10.487V3.5ZM22.75,50.758h14V52.5h-14ZM29.745,28a5.248,5.248,0,1,1,5.249-5.248A5.248,5.248,0,0,1,29.745,28m-3.492,3.5h7a5.248,5.248,0,0,1,5.249,5.248V45.5a1.744,1.744,0,0,1-1.746,1.746,4.315,4.315,0,0,0,.088-.873,4.4,4.4,0,0,0-1.746-3.5V36.749a1.746,1.746,0,1,0-3.492,0V42H28.018V36.749a1.746,1.746,0,0,0-3.493,0v7A1.744,1.744,0,0,0,26.272,45.5h6.122a.873.873,0,0,1,0,1.746H22.769A1.744,1.744,0,0,1,21.023,45.5V36.749A5.219,5.219,0,0,1,26.252,31.5M10.5,56.007h77v1.746H61.255a1.759,1.759,0,0,0-1.246.51l-2.972,2.992H40.968L38,58.263a1.785,1.785,0,0,0-1.246-.51H10.5ZM89.254,66.5H8.751A5.248,5.248,0,0,1,3.5,61.255H36.033l2.972,2.992a1.785,1.785,0,0,0,1.246.51h17.5A1.76,1.76,0,0,0,59,64.247l2.972-2.992H94.5A5.254,5.254,0,0,1,89.254,66.5" transform="translate(0 0)"/><path class="a" d="M276.542,87.951h3.5V93.2a1.764,1.764,0,0,0,2.992,1.246l6.475-6.494h18.532a1.744,1.744,0,0,0,1.746-1.746v-21a1.744,1.744,0,0,0-1.746-1.746h-31.5A1.744,1.744,0,0,0,274.8,65.2v21a1.75,1.75,0,0,0,1.746,1.746m1.756-21h28v17.5H288.8a1.759,1.759,0,0,0-1.246.51l-4.012,4.022V86.2a1.744,1.744,0,0,0-1.746-1.746H278.3Z" transform="translate(-229.296 -52.948)"/><path class="a" d="M318.846,109.252h10.5a1.746,1.746,0,1,0,0-3.493h-10.5a1.746,1.746,0,0,0,0,3.493" transform="translate(-264.596 -88.248)"/><path class="a" d="M318.846,151.5h17.5a1.746,1.746,0,0,0,0-3.493h-17.5a1.746,1.746,0,0,0,0,3.493" transform="translate(-264.596 -123.497)"/></g></svg>