<svg xmlns="http://www.w3.org/2000/svg" class='services-icon' id='marcom' viewBox="0 0 94.237 87.836"><defs><clipPath id="marcom-a"><rect class="a" width="94.237" height="87.836"/></clipPath></defs><g class="b"><path class="a" d="M78.548,57.62l-2.13-7.982-1.192-4.472a12.807,12.807,0,0,0,4.648-4.883,13.32,13.32,0,0,0,1.146-9.639c-.014-.053-.032-.1-.049-.155a13.344,13.344,0,0,0-5.746-7.628A12.787,12.787,0,0,0,68.78,20.94q-.414-1.553-.827-3.105c-.738-2.784-1.486-5.586-2.234-8.37-.426-1.61-.862-3.238-1.3-4.848-.057-.208-.114-.426-.17-.634a2.725,2.725,0,0,0-.149-.411A5.494,5.494,0,0,0,59.422.025,5.206,5.206,0,0,0,55.1,1.777c-.331.388-.634.786-.956,1.174-1.808,2.215-3.617,4.45-5.425,6.675Q45.163,14,41.6,18.375c-1.761,2.178-3.532,4.346-5.312,6.533-.139.167-.278.338-.415.509q-2.472.66-4.944,1.318c-4.081,1.089-8.152,2.178-12.242,3.257Q13.293,31.426,7.9,32.87l-2.452.653A7.2,7.2,0,0,0,.019,40.748a19.472,19.472,0,0,0,.8,3.664c.492,1.846.985,3.7,1.477,5.539q1.392,5.2,2.774,10.406a9.569,9.569,0,0,0,.739,2,7.093,7.093,0,0,0,5.312,3.636,9.583,9.583,0,0,0,3.844-.435l1.974-.526c.362.8.724,1.6,1.084,2.41l4.062,9.033c1.108,2.452,2.206,4.914,3.314,7.366a9.56,9.56,0,0,0,.748,1.534,5.636,5.636,0,0,0,5.747,2.367c.322-.057.634-.161.956-.246,2.716-.729,5.422-1.448,8.138-2.167.08-.017.16-.034.241-.058a5.578,5.578,0,0,0,3.4-2.68,5.489,5.489,0,0,0,.407-4.3c-.17-.5-.426-1.013-.644-1.5L42.37,72.305q-2.819-6.276-5.637-12.552l.117-.031q3.828-1.025,7.657-2.04c.887.333,1.757.675,2.645,1.017,3.106,1.2,6.23,2.4,9.336,3.6l10.254,3.948q2.982,1.15,5.965,2.291a5.4,5.4,0,0,0,6.524-2.358,5.72,5.72,0,0,0,.436-4.355c-.369-1.4-.748-2.8-1.117-4.2M58.514,5.678h0l-.01-.011.01.01m12.242,21.6c.11.036.213.077.317.116.279.143.558.271.829.424a8.382,8.382,0,0,1,.756.478l-.112-.1c.114.1.237.2.36.294a9.574,9.574,0,0,1,1.044,1.057,11.2,11.2,0,0,1,.985,1.663,9.883,9.883,0,0,1,.32.992,9.392,9.392,0,0,1,.2.984,11.089,11.089,0,0,1-.015,1.894,10.435,10.435,0,0,1-.369,1.421c-.01.03-.023.057-.033.086a1.764,1.764,0,0,1-.071.188l-.007.013c-.027.068-.051.138-.079.2l.042-.13c-.128.264-.258.528-.411.784s-.322.521-.492.767L74,38.442c-.053.064-.108.128-.159.195-.089.1-.181.2-.274.3q-1.415-5.307-2.822-10.607l-.305-1.146c.1.031.21.061.314.095M39.17,79.638q-3.75,1-7.5,2c-.228.059-.456.126-.683.189-.33-.623-.574-1.315-.85-1.941-.776-1.714-1.543-3.437-2.32-5.151Q25.3,69.127,22.77,63.5l8.159-2.176q1.161,2.584,2.322,5.169Q35.823,72.2,38.384,77.9c.257.576.526,1.156.786,1.737M33.091,54.552l-1.106.294c-.057.011-.115.022-.173.037L19.646,58.128l-.119.032-1.688.445c-.018,0-.034.012-.051.017l-1.682.447c-.909.246-1.837.492-2.746.729-.377.1-.755.214-1.137.295q-.117,0-.235,0c-.11-.027-.219-.057-.329-.086-.04-.02-.081-.04-.118-.063l-.144-.09-.187-.194c-.066-.105-.129-.214-.188-.323-.192-.585-.324-1.2-.484-1.789L9.345,53.056Q8,47.986,6.637,42.9c-.2-.758-.463-1.537-.616-2.319q0-.132,0-.264c.027-.11.057-.219.086-.329.02-.04.04-.081.064-.118s.06-.1.09-.144l.194-.187c.114-.072.232-.139.352-.2.984-.332,2.037-.538,3.02-.8,2.481-.663,4.961-1.326,7.423-1.979Q25.8,34.281,34.341,32l1.091-.29q.808,3.037,1.617,6.075L40.757,51.7q.1.376.194.751l-7.86,2.1m38.7,7.271c-2.32-.9-4.63-1.78-6.95-2.68q-7.9-3.039-15.783-6.069c-.638-.251-1.279-.5-1.921-.743q-1-3.757-2-7.513-1.9-7.158-3.806-14.288-.245-.909-.485-1.817L46.46,21.8q5.3-6.519,10.6-13.028c.578-.7,1.136-1.4,1.714-2.1h0q.625,2.342,1.249,4.678,1.763,6.61,3.527,13.228c.014.082.03.164.052.245l1.761,6.618c.928,3.494,1.865,7.006,2.8,10.5.218.8.436,1.619.644,2.433a2.585,2.585,0,0,0,.1.293q1.6,6.008,3.206,12.015c.521,1.963,1.051,3.914,1.565,5.873-.628-.246-1.27-.485-1.9-.732m2.139,1.7a.084.084,0,0,0,0,.02.041.041,0,0,1,0-.02" transform="translate(0 0)"/><path class="a" d="M452.514,220.583l.037-.074c.027-.067.053-.133.078-.2.053-.166.055-.246-.114.276" transform="translate(-377.588 -183.725)"/><path class="a" d="M438.833,170.884l-.021-.014c.564.5.217.157.021.014" transform="translate(-366.155 -142.578)"/><path class="a" d="M507.431,278.287c-.258.316-.3.378-.265.333l.254-.318.011-.015" transform="translate(-423.18 -232.209)"/><path class="a" d="M431.9,56.011a25.986,25.986,0,0,0-11.722-5.245,3.239,3.239,0,0,0-2.3.3,2.991,2.991,0,0,0-1.363,1.78c-.284,1.458.483,3.427,2.121,3.693a23.517,23.517,0,0,1,4.194,1.079c.312.114.606.237.909.35l-.178-.066c.043.017.082.034.112.047.17.076.341.161.5.237.625.294,1.25.625,1.846.975s1.184.738,1.742,1.136c.152.1.294.218.445.331l-.24-.176c.068.051.139.1.183.138.246.2.5.417.748.634a22.88,22.88,0,0,1,2.79,2.947A23.325,23.325,0,0,1,434.2,68.5a23.867,23.867,0,0,1,1.457,5.488,23.214,23.214,0,0,1-.034,4.94,24.263,24.263,0,0,1-.962,3.987c-.1.3-.218.615-.331.918-.085.218-.388.871.038-.057-.076.171-.142.341-.227.511-.284.634-.606,1.25-.947,1.856a20.526,20.526,0,0,1-1.117,1.771c-.1.152-.218.3-.322.455l-.007.01.054-.066-.065.082c-.075.1-.212.27-.254.318-.1.12-.192.242-.286.358a22.9,22.9,0,0,1-3.106,3.03,2.983,2.983,0,0,0,2.083,5.084,3.406,3.406,0,0,0,2.14-.881,25.888,25.888,0,0,0-.417-40.287" transform="translate(-347.501 -42.295)"/><path class="a" d="M457.783,93.675c-.234-.095-.569-.212,0,0" transform="translate(-381.723 -78.066)"/><path class="a" d="M485.068,109.007c-.164-.122-.309-.227,0,0" transform="translate(-404.601 -90.846)"/></g></svg>