<svg xmlns="http://www.w3.org/2000/svg" class='services-icon' id='finance' viewBox="0 0 99.58 99.591"><defs><clipPath id="finance-a"><rect class="a" width="99.58" height="99.591" transform="translate(0)"/></clipPath></defs><g class="b" transform="translate(0)"><path class="a" d="M199.7,153.789c4.016,0,7.413,2.228,7.413,4.855h5.614c0-5-4.385-9.193-10.22-10.225V145.1h-5.615v3.325c-5.825,1.039-10.2,5.226-10.2,10.222,0,5.774,5.834,10.47,13.017,10.47,4.016,0,7.413,2.228,7.413,4.855s-3.4,4.855-7.413,4.855-7.413-2.228-7.413-4.855h-5.614c0,5,4.374,9.189,10.21,10.224v3.333H202.5v-3.333c5.836-1.034,10.21-5.224,10.21-10.224,0-5.774-5.834-10.47-13.017-10.47-4.016,0-7.413-2.228-7.413-4.855s3.4-4.855,7.413-4.855" transform="translate(-149.906 -116.516)"/><path class="a" d="M261.728,17.953a31.756,31.756,0,0,1,20.49,10.979,2.8,2.8,0,0,0,3.7.5l10.26-6.873a2.822,2.822,0,0,0,1.209-1.908,2.852,2.852,0,0,0-.589-2.178A49.973,49.973,0,0,0,262.3.011a2.808,2.808,0,0,0-3.047,2.8V15.165a2.815,2.815,0,0,0,2.478,2.787m3.137-11.978a44.378,44.378,0,0,1,25.544,13.7L284.8,23.437a37.306,37.306,0,0,0-19.93-10.679Z" transform="translate(-208.182 0)"/><path class="a" d="M376.856,124.408a2.8,2.8,0,0,0-4.026-.979l-10.26,6.883a2.8,2.8,0,0,0-.939,3.606,31.62,31.62,0,0,1,3.507,14.516,32,32,0,0,1-11.2,24.306,2.8,2.8,0,0,0-.509,3.686l6.863,10.27a2.8,2.8,0,0,0,1.908,1.219,3.225,3.225,0,0,0,.429.03,2.815,2.815,0,0,0,1.758-.62,49.942,49.942,0,0,0,12.467-62.917M363.2,180.942l-3.756-5.634a37.587,37.587,0,0,0,11.309-26.873,37.093,37.093,0,0,0-3.047-14.805l5.624-3.766a44.361,44.361,0,0,1-10.13,51.079" transform="translate(-283.429 -98.733)"/><path class="a" d="M67.882,79.122a2.819,2.819,0,0,0-3.616-.939A31.489,31.489,0,0,1,49.79,81.689a31.983,31.983,0,0,1-3.756-63.736,2.815,2.815,0,0,0,2.478-2.787V2.808a2.808,2.808,0,0,0-3.047-2.8,49.882,49.882,0,1,0,28.3,93.407,2.81,2.81,0,0,0,.979-4.016ZM49.78,93.977a44.277,44.277,0,0,1-6.893-88v6.782A37.6,37.6,0,0,0,49.78,87.313a36.913,36.913,0,0,0,14.765-3.057L68.312,89.9A44.156,44.156,0,0,1,49.78,93.977" transform="translate(0 0)"/></g></svg>