<svg class='story-icon' id='compass' viewBox="0 0 85.114 95.207"><defs><clipPath id="compass-a"><rect class="a" width="85.114" height="95.207"/></clipPath></defs><g class="b"><path class="a" d="M70.415,78.379A33.677,33.677,0,1,0,103.946,112.1,33.682,33.682,0,0,0,70.415,78.379m-.074,63.3a29.627,29.627,0,1,1,29.61-29.573,29.55,29.55,0,0,1-29.61,29.573" transform="translate(-27.79 -59.351)"/><path class="a" d="M286.976,94.858a1.936,1.936,0,0,0,1.974-1.972,2.016,2.016,0,0,0-1.993-1.88,1.93,1.93,0,0,0-2.022,1.923,2,2,0,0,0,2.04,1.93" transform="translate(-215.762 -68.912)"/><path class="a" d="M134.073,143.927q-9.72,5.16-19.446,10.309a4.9,4.9,0,0,0-2.132,2.168c-2.965,5.63-5.982,11.233-8.977,16.848-.55,1.031-1.146,2.044-1.6,3.115a2.029,2.029,0,0,0,1.794,2.857,2.585,2.585,0,0,0,1.2-.365q9.98-5.291,19.96-10.581a3.337,3.337,0,0,0,1.468-1.374q5.359-10.057,10.719-20.113a2.019,2.019,0,0,0-.221-2.683c-.752-.762-1.565-.815-2.759-.182m-25.1,28.255c-.257-.411.022-.632.141-.857.984-1.862,1.993-3.71,2.978-5.571.247-.466.409-.73.819-.1a10.04,10.04,0,0,0,2.963,2.782l-6.9,3.742m10.641-6.933a3.811,3.811,0,0,1-3.915-3.857,3.887,3.887,0,1,1,7.774-.062,3.827,3.827,0,0,1-3.859,3.919m8.757-10.752c-.459.856-.908,1.717-1.371,2.571-.141.26-.314.6-.616.159a11.889,11.889,0,0,0-3.059-2.97l7.267-3.895c-.833,1.549-1.529,2.841-2.222,4.134" transform="translate(-77.042 -108.656)"/><path class="a" d="M168.954,118.4a2,2,0,0,0,1.954-1.921c.027-.387,0-.778,0-1.167h-.023c0-.454.035-.911-.007-1.361a1.972,1.972,0,0,0-3.931-.02,21.526,21.526,0,0,0-.028,2.528,2.008,2.008,0,0,0,2.031,1.941" transform="translate(-126.381 -84.9)"/><path class="a" d="M168.937,296.124a2.059,2.059,0,0,0-1.968,1.81c-.041.418-.007.843-.007,1.265h.021a13.465,13.465,0,0,0,.009,1.459,1.9,1.9,0,0,0,1.979,1.757,1.851,1.851,0,0,0,1.925-1.7,18.033,18.033,0,0,0,.027-2.819,1.964,1.964,0,0,0-1.987-1.773" transform="translate(-126.419 -224.234)"/><path class="a" d="M74.885,209.072c-.42-.031-.844-.005-1.266-.005,0,.01,0,.021,0,.032a12.6,12.6,0,0,0-1.556.011,1.943,1.943,0,0,0-.273,3.74,9.8,9.8,0,0,0,3.3.107,2.037,2.037,0,0,0,1.668-2.089,1.974,1.974,0,0,0-1.869-1.8" transform="translate(-53.379 -158.304)"/><path class="a" d="M254.271,210.916A1.971,1.971,0,0,0,256.246,213a19.318,19.318,0,0,0,2.428-.07,1.769,1.769,0,0,0,1.817-1.96,1.8,1.8,0,0,0-1.9-1.894c-.356-.018-.713,0-1.07,0v-.013c-.389,0-.779-.009-1.167,0a1.925,1.925,0,0,0-2.084,1.855" transform="translate(-192.54 -158.304)"/><path class="a" d="M73.776,81.614A42.355,42.355,0,0,0,84.053,61.976a42.826,42.826,0,0,0-5.14-31.336c-.186-.3-.367-.614-.563-.913-.84-1.281-1.9-1.642-2.938-1.011-1.075.651-1.283,1.891-.478,3.154a42.981,42.981,0,0,1,2.319,4.172,36.762,36.762,0,0,1,3.687,14.835,37.93,37.93,0,0,1-5.532,21.879A38.812,38.812,0,0,1,63.24,85.176a37.8,37.8,0,0,1-16.958,5.893A38.208,38.208,0,0,1,29.595,89a37.335,37.335,0,0,1-14.283-9.055A36.985,36.985,0,0,1,4.346,57.422C2.987,45.17,6.517,34.5,15.11,25.69A37.231,37.231,0,0,1,37.657,14.552,38.8,38.8,0,0,1,60,18.329c1.233.6,2.334,1.413,3.518,2.09a2.051,2.051,0,0,0,3.069-.983,1.946,1.946,0,0,0-.9-2.438,41.521,41.521,0,0,0-11.684-5.263c-1.476-.385-2.976-.677-4.475-.964-.67-.128-.735-.388-.525-1,1.41-4.135-.246-7.659-4.517-9.374a5.654,5.654,0,0,0-4.134.053A7.4,7.4,0,0,0,37.62,2.2a6.693,6.693,0,0,0-1.668,7.269c.294.893.207,1.189-.808,1.368A41.248,41.248,0,0,0,11.152,24,41.5,41.5,0,0,0,.137,56.146a41.411,41.411,0,0,0,8.9,22.81,41.307,41.307,0,0,0,13.392,11.29,44,44,0,0,0,9.545,3.766A46.018,46.018,0,0,0,55.9,93.166a48.724,48.724,0,0,0,6.331-2.7,40.73,40.73,0,0,0,11.548-8.856M42.516,4.166a3.106,3.106,0,0,1,3,2.984,2.983,2.983,0,0,1-5.965.036,3.112,3.112,0,0,1,2.964-3.02" transform="translate(0 0)"/></g></svg>