<svg class='how-it-works-icon' id='phone' viewBox="0 0 151.321 151.307"><defs><clipPath id="phone-a"><rect class="a" width="151.321" height="151.307"/></clipPath></defs><g class="b"><path class="c" d="M.117,28.2c-.649-3.549,1.521-6.3,3.714-8.974A98.218,98.218,0,0,1,22.032,2.56,13.006,13.006,0,0,1,28.263.088a8.762,8.762,0,0,1,8.908,3.968c4.049,5.987,8,12.039,11.987,18.07,2.423,3.666,4.728,7.414,7.271,10.995A10.364,10.364,0,0,1,57.6,43.6a78.723,78.723,0,0,1-4.659,8.871q-1.742,3.184-3.6,6.3a1.691,1.691,0,0,0,.127,2.088A127.325,127.325,0,0,0,58.889,72.4c5.615,6.27,11.676,12.1,17.765,17.89a133.674,133.674,0,0,0,13.26,11.229,2.491,2.491,0,0,0,3.214.2c4.385-2.589,8.783-5.164,13.349-7.432a14.292,14.292,0,0,1,4.832-1.415,9.192,9.192,0,0,1,6.166,1.587q8.988,5.889,17.945,11.827c3.639,2.407,7.178,4.977,10.913,7.223,5.428,3.264,6.067,8.889,3.644,13.869a33.483,33.483,0,0,1-4.5,6.271,92.93,92.93,0,0,1-13.716,14.191,29.208,29.208,0,0,1-3.379,2.328A8.193,8.193,0,0,1,124.2,151.3c-6.69.105-12.958-1.72-19.114-4.07-9.415-3.594-17.924-8.819-26.06-14.677a270.36,270.36,0,0,1-34.692-30.335,275.071,275.071,0,0,1-20.968-23.77A147.031,147.031,0,0,1,7.562,54.031,73.243,73.243,0,0,1,.369,32.866,23.44,23.44,0,0,1,.117,28.2M122.868,144.514a4.611,4.611,0,0,0,2.868-.831,26.549,26.549,0,0,0,4.789-3.781,113.508,113.508,0,0,0,12.032-13.562,8.761,8.761,0,0,0,1.726-3.163,3.091,3.091,0,0,0-1.376-3.7q-14.277-9.5-28.55-19a3.986,3.986,0,0,0-2.82-.554,12.509,12.509,0,0,0-4.768,1.862q-7.282,4.1-14.54,8.245a1.515,1.515,0,0,1-1.767-.013c-.851-.559-1.733-1.073-2.571-1.651a155.6,155.6,0,0,1-17.836-14.97A247.463,247.463,0,0,1,50.6,73.148,103.756,103.756,0,0,1,41.572,61.31a2.131,2.131,0,0,1-.065-2.529q3.56-6.05,6.96-12.193a24,24,0,0,0,2.73-5.661,4.472,4.472,0,0,0-.33-3.837C44.6,27.418,38.179,17.842,31.822,8.226a2.793,2.793,0,0,0-2.241-1.257,5.425,5.425,0,0,0-3.732,1.21,104.671,104.671,0,0,0-14.534,12.8A20.051,20.051,0,0,0,7.177,26.55,3.072,3.072,0,0,0,6.758,28a51.97,51.97,0,0,0,.836,6.622c1.51,7.185,4.552,13.771,8.081,20.133,6.352,11.449,14.359,21.712,23.039,31.458C45.452,93.78,52.632,100.924,60,107.877a224.949,224.949,0,0,0,20.035,16.966c8.428,6.272,17.2,11.952,27.023,15.86a49.708,49.708,0,0,0,15.811,3.811" transform="translate(0 0)"/><path class="c" d="M216.729,17.235q12.228,0,24.455,0a11.672,11.672,0,0,1,6.068,1.381,10.108,10.108,0,0,1,5.461,8.638c.418,10.12.087,20.246.173,30.37.016,1.845.019,3.688-.141,5.534-.394,4.546-4.65,8.829-9.214,9.008-8.559.336-17.122.226-25.684.045a1.227,1.227,0,0,0-1.225.7,34.764,34.764,0,0,1-3.676,5.455,22.3,22.3,0,0,1-12.94,7.188,36.479,36.479,0,0,1-5.12.512,3.428,3.428,0,0,1-2.173-6.375,21.436,21.436,0,0,0,2.715-2.1,6.141,6.141,0,0,0,1.773-4.108c.059-.852-.171-1.184-1.095-1.174a45.671,45.671,0,0,1-6.106-.1,10.5,10.5,0,0,1-9.442-10.586c-.022-11.24,0-22.481-.012-33.721a8.458,8.458,0,0,1,.39-2.439c1.547-5.192,5.445-8.189,10.86-8.214,8.311-.038,16.622-.01,24.932-.01ZM187.566,45.086q0,8.693,0,17.385a2.669,2.669,0,0,0,2.737,2.91c.666.044,1.336.032,2,.031,2.865,0,5.731-.043,8.6-.009,2.514.03,3.916,1.75,3.758,4.258a28.6,28.6,0,0,1-1.175,6.65c-.073.237-.183.534.037.721.235.2.479-.027.7-.136a8.994,8.994,0,0,0,.913-.517,16.87,16.87,0,0,0,6.384-7.9c1.019-2.486,1.952-3.089,4.654-3.09q11.033,0,22.066,0c1.56,0,3.122.057,4.68,0a2.873,2.873,0,0,0,3.043-2.8,24.256,24.256,0,0,0-.024-3.81c.021-8.756.005-17.512.018-26.269,0-1.272.137-2.543.133-3.815-.009-2.988-1.614-4.627-4.584-4.661-1.4-.016-2.8.128-4.2.13-10.412.012-20.824.028-31.236,0-4.615-.014-9.231.127-13.846-.113-3.021-.157-4.774,1.56-4.7,4.508.136,5.5.039,11.016.04,16.524" transform="translate(-108.417 -10.347)"/></g></svg>