<svg class='story-icon' id='clock' viewBox="0 0 83.474 94.831"><defs><clipPath id="clock-a"><rect class="a" width="83.474" height="94.831"/></clipPath></defs><g class="b"><path class="a" d="M127.666,87.211a1.716,1.716,0,0,0,1.716-1.716V82.548a1.716,1.716,0,0,0-3.431,0V85.5a1.716,1.716,0,0,0,1.716,1.716" transform="translate(-91.942 -59.007)"/><path class="a" d="M127.666,249.42a1.716,1.716,0,0,0-1.716,1.716v2.947a1.716,1.716,0,0,0,3.431,0v-2.947a1.716,1.716,0,0,0-1.716-1.716" transform="translate(-91.942 -182.074)"/><path class="a" d="M40.863,173.278H37.916a1.716,1.716,0,1,0,0,3.431h2.947a1.716,1.716,0,1,0,0-3.431" transform="translate(-26.426 -126.491)"/><path class="a" d="M204.786,174.994a1.716,1.716,0,0,0,1.716,1.716h2.947a1.716,1.716,0,0,0,0-3.431H206.5a1.716,1.716,0,0,0-1.716,1.716" transform="translate(-149.492 -126.491)"/><path class="a" d="M103.645,108.944,90.7,121.893a6.1,6.1,0,0,0-7.976,3.345H74.276a2.3,2.3,0,0,0,0,4.59H82.72a6.1,6.1,0,1,0,11.249-4.717L106.89,112.19a2.3,2.3,0,0,0-3.246-3.246m-15.274,20.1a1.509,1.509,0,1,1,1.509-1.509,1.511,1.511,0,0,1-1.509,1.509" transform="translate(-52.545 -79.038)"/><path class="a" d="M44.753,0a47.282,47.282,0,0,0-27.02,8.448l.595-2.941a2.3,2.3,0,0,0-4.5-.91l-1.866,9.228a2.3,2.3,0,0,0,1.922,2.727l9.452,1.361a2.292,2.292,0,0,0,2.6-1.945,2.3,2.3,0,0,0-1.945-2.6l-4.374-.63A42.834,42.834,0,0,1,87.584,47.421a2.3,2.3,0,1,0,4.59,0A47.474,47.474,0,0,0,44.753,0" transform="translate(-8.7)"/><path class="a" d="M269.567,256.586a2.3,2.3,0,0,0-3.165.719l-.136.214a2.3,2.3,0,1,0,3.867,2.473l.153-.241a2.3,2.3,0,0,0-.719-3.165" transform="translate(-194.107 -187.047)"/><path class="a" d="M208.309,312.653l-.222.126a2.295,2.295,0,1,0,2.254,4l.248-.141a2.3,2.3,0,1,0-2.28-3.984" transform="translate(-151.048 -228.012)"/><path class="a" d="M240.74,288.524l-.184.174a2.3,2.3,0,0,0,3.15,3.339l.208-.2a2.3,2.3,0,0,0-3.174-3.315" transform="translate(-175.078 -210.154)"/><path class="a" d="M286.638,219.369a2.3,2.3,0,0,0-2.9,1.468l-.08.241a2.3,2.3,0,1,0,4.353,1.458l.09-.272a2.3,2.3,0,0,0-1.468-2.9" transform="translate(-206.984 -160.054)"/><path class="a" d="M131.186,334.19h-.069l-.25.006a2.3,2.3,0,0,0,.046,4.59h.048l.29-.007a2.3,2.3,0,0,0-.066-4.589" transform="translate(-93.891 -243.955)"/><path class="a" d="M53.04,316.6l-.234-.118a2.3,2.3,0,1,0-2.074,4.095l.247.124a2.295,2.295,0,1,0,2.061-4.1" transform="translate(-36.115 -230.851)"/><path class="a" d="M90.988,330.234l-.256-.057a2.3,2.3,0,0,0-1.011,4.477l.27.06a2.3,2.3,0,0,0,1-4.481" transform="translate(-64.189 -240.984)"/><path class="a" d="M171.019,328.2l-.242.067a2.295,2.295,0,1,0,1.2,4.429l.281-.077a2.3,2.3,0,0,0-1.243-4.419" transform="translate(-123.429 -239.52)"/><path class="a" d="M19.542,294.136l-.192-.165a2.3,2.3,0,1,0-3.013,3.463l.217.187a2.3,2.3,0,0,0,2.987-3.485" transform="translate(-11.351 -214.184)"/><path class="a" d="M35.826,46.923A35.825,35.825,0,1,0,71.651,82.748,35.866,35.866,0,0,0,35.826,46.923m0,67.061A31.235,31.235,0,1,1,67.061,82.748a31.271,31.271,0,0,1-31.235,31.235" transform="translate(0 -34.253)"/></g></svg>