<svg class='story-icon' id='profile' viewBox="0 0 75.941 97.847"><defs><clipPath id="profile-a"><rect class="a" width="75.941" height="97.847"/></clipPath></defs><g class="b"><path class="a" d="M89.733,39.467A19.733,19.733,0,1,0,70,19.733,19.756,19.756,0,0,0,89.733,39.467m0-34.633a14.9,14.9,0,1,1-14.9,14.9,14.916,14.916,0,0,1,14.9-14.9" transform="translate(-53.082)"/><path class="a" d="M72.632,193.668a2.414,2.414,0,0,0,.075-.587V182.259A13.579,13.579,0,0,0,59.144,168.7H52.25a2.417,2.417,0,0,0-1.447.481,23.665,23.665,0,0,1-28.3,0,2.416,2.416,0,0,0-1.447-.481h-6.5a2.39,2.39,0,0,0-.3.019c-.236-.013-.465-.019-.691-.019A13.579,13.579,0,0,0,0,182.259V193.08a2.417,2.417,0,1,0,4.834,0V182.259a8.739,8.739,0,0,1,8.729-8.73c.242,0,.5.012.782.037a2.392,2.392,0,0,0,.686-.037h5.238a28.5,28.5,0,0,0,32.765,0h6.109a8.739,8.739,0,0,1,8.729,8.73v6.2a20.874,20.874,0,1,0,4.759,5.207M55.088,220.936a16.019,16.019,0,1,1,16.019-16.019,16.037,16.037,0,0,1-16.019,16.019" transform="translate(0 -127.923)"/><path class="a" d="M204.086,283.361h-5.813v-5.813a2.332,2.332,0,1,0-4.664,0v5.813H187.8a2.332,2.332,0,0,0,0,4.664h5.813v5.813a2.332,2.332,0,1,0,4.664,0v-5.813h5.813a2.332,2.332,0,0,0,0-4.664" transform="translate(-140.639 -208.698)"/></g></svg>