<svg class='story-icon' id='lightbulb' viewBox="0 0 102.119 104.994"><defs><clipPath id="lightbulb-a"><rect class="a" width="102.119" height="104.994"/></clipPath></defs><g class="b"><path class="a" d="M193.464,213.175q-3.7,0-7.406,0a3.138,3.138,0,0,1-3.453-3.412,35.837,35.837,0,0,0-2.409-13.009,18.427,18.427,0,0,0-3.959-6.01,23.859,23.859,0,0,1-7.075-15.235,24.407,24.407,0,0,1,47.246-10.457c2.966,8.415,1.7,16.282-3.642,23.455a12.421,12.421,0,0,1-1.5,1.72c-3.457,3.191-5.129,7.291-6.059,11.774a41.814,41.814,0,0,0-.83,7.738,3.147,3.147,0,0,1-3.51,3.435q-3.7,0-7.406,0M197.6,200.14c0,2.364-.012,4.728,0,7.091.014,2.022-.292,1.744,1.814,1.791.614.014.807-.206.84-.814a45.358,45.358,0,0,1,.937-7.333,26.3,26.3,0,0,1,5.247-11.579c1.189-1.42,2.632-2.63,3.68-4.166a20.114,20.114,0,0,0,3.424-14.6,20.268,20.268,0,1,0-40.1,5.931,19.9,19.9,0,0,0,6.042,11.678,19.947,19.947,0,0,1,3.829,5.454,37.618,37.618,0,0,1,3.389,13.916c.124,1.512.122,1.472,1.654,1.519.794.025,1.039-.223,1.033-1.025-.033-4.885-.017-9.77-.017-14.655,0-1.993,0-1.993-1.995-2.083a5.006,5.006,0,1,1,4.984-6.477,8.094,8.094,0,0,1,.195,2.319c-.022.682.148.995.915.988.735-.006,1.006-.254.932-.966a7.784,7.784,0,0,1,0-1.024,5.093,5.093,0,0,1,3.848-4.723,5.173,5.173,0,0,1,5.407,2.212,5.045,5.045,0,0,1-4.474,7.678c-1.756.008-1.58-.217-1.585,1.616-.007,2.416,0,4.833,0,7.249m-5.025-.005c0,2.675.022,5.35-.014,8.025-.01.731.294.866.939.872.672.006.92-.188.917-.893q-.036-7.985,0-15.971c0-.682-.2-.916-.9-.916s-.969.2-.958.938c.038,2.648.015,5.3.015,7.946m-4.5-12.058c1.3,0,1.3,0,1.3-1.268a5.441,5.441,0,0,0-.029-.781,1.791,1.791,0,0,0-3.562.157c-.071,1.227.731,1.889,2.29,1.892m10.8-.018a6.9,6.9,0,0,0,.708,0,1.7,1.7,0,0,0,1.609-1.639,1.665,1.665,0,0,0-1.352-1.852,1.734,1.734,0,0,0-2.24,1.732c-.073,1.783-.073,1.783,1.275,1.763" transform="translate(-142.432 -125.511)"/><path class="a" d="M268.977,571.349c-2.625,0-5.251.018-7.876-.007-1.521-.014-2.42-.833-2.417-2.111a1.954,1.954,0,0,1,1.636-2.016,6.16,6.16,0,0,1,1.173-.1q7.482-.009,14.964,0a6.053,6.053,0,0,1,1.25.113,1.952,1.952,0,0,1,1.561,2,1.981,1.981,0,0,1-1.56,2.006,6,6,0,0,1-1.25.111c-2.494.01-4.988,0-7.482,0Z" transform="translate(-217.916 -477.737)"/><path class="a" d="M289.5,603.11c1.417,0,2.834-.022,4.25.008a2.094,2.094,0,0,1,1.947,1.249,1.912,1.912,0,0,1-.231,2.075,1.82,1.82,0,0,1-1.152.767,6.124,6.124,0,0,1-1.092.118c-2.519.01-5.038.006-7.556.005-.131,0-.263,0-.393-.012a2.191,2.191,0,0,1-2.3-2.181,2.213,2.213,0,0,1,2.362-2.036c.707-.024,1.417-.008,2.125-.008H289.5v.016" transform="translate(-238.369 -508.044)"/><path class="a" d="M398.795,0a3.018,3.018,0,0,1,2.921,4.479c-2.122,3.972-4.415,7.856-6.722,11.725a3.13,3.13,0,0,1-4.156,1.053,3.023,3.023,0,0,1-1.292-4.072c2.181-4,4.473-7.943,6.793-11.865A2.677,2.677,0,0,1,398.795,0" transform="translate(-327.857 0)"/><path class="a" d="M180.243.013A3.141,3.141,0,0,1,183.2,1.748c2.1,3.623,4.209,7.246,6.263,10.9,1.041,1.852.545,3.787-1.075,4.628-1.652.858-3.438.209-4.489-1.617-2.038-3.54-4.106-7.064-6.118-10.619-1.392-2.459-.128-4.983,2.466-5.024" transform="translate(-149.277 -0.01)"/><path class="a" d="M9.815,219.692c2.047,0,4.093-.022,6.139.006,2.1.029,3.337,1.1,3.429,2.893.1,1.874-1.031,3.189-3.166,3.338a100.474,100.474,0,0,1-12.894.02c-2.27-.134-3.461-1.511-3.312-3.389.14-1.775,1.491-2.848,3.664-2.867,2.046-.018,4.093,0,6.14,0" transform="translate(0 -185.062)"/><path class="a" d="M534.549,219.675c2.1,0,4.2-.024,6.295.007,2.02.029,3.347,1.175,3.457,2.914a3,3,0,0,1-3.053,3.3,90.069,90.069,0,0,1-13.513-.023,2.959,2.959,0,0,1-2.808-3.338,3.015,3.015,0,0,1,3.171-2.841c2.15-.045,4.3-.011,6.452-.011Z" transform="translate(-442.19 -185.047)"/><path class="a" d="M307.817,643.224a10.615,10.615,0,0,1-1.263-.135,2.112,2.112,0,0,1-1.659-2.031,2.068,2.068,0,0,1,1.674-2.009,7.176,7.176,0,0,1,2.5-.032,2.073,2.073,0,0,1,1.841,2.027,2.039,2.039,0,0,1-1.78,2.072,12.659,12.659,0,0,1-1.316.107" transform="translate(-256.844 -538.23)"/></g></svg>