<svg xmlns="http://www.w3.org/2000/svg" xmlns:xlink="http://www.w3.org/1999/xlink" width="122.57" height="122.583" viewBox="0 0 122.57 122.583"><defs><style>.a{fill:none;}.b{clip-path:url(#a);}.c{fill:#00ae83;}</style><clipPath id="a"><rect class="a" width="122.57" height="122.583"/></clipPath></defs><g class="b"><path class="c" d="M202.7,155.8c4.943,0,9.124,2.742,9.124,5.976h6.91c0-6.156-5.4-11.315-12.579-12.586V145.1h-6.911v4.092c-7.17,1.278-12.555,6.432-12.555,12.581,0,7.107,7.181,12.887,16.022,12.887,4.943,0,9.124,2.742,9.124,5.976s-4.181,5.976-9.124,5.976-9.124-2.742-9.124-5.976h-6.911c0,6.154,5.384,11.311,12.567,12.584v4.1h6.911v-4.1c7.183-1.273,12.567-6.43,12.567-12.584,0-7.107-7.181-12.887-16.022-12.887-4.943,0-9.124-2.742-9.124-5.976s4.181-5.976,9.124-5.976" transform="translate(-141.416 -109.917)"/><path class="c" d="M262.3,22.1a39.088,39.088,0,0,1,25.22,13.514,3.45,3.45,0,0,0,4.55.615l12.628-8.46a3.474,3.474,0,0,0,1.488-2.349,3.51,3.51,0,0,0-.725-2.681A61.51,61.51,0,0,0,263,.013a3.456,3.456,0,0,0-3.75,3.443v15.21A3.465,3.465,0,0,0,262.3,22.1m3.861-14.743A54.624,54.624,0,0,1,297.6,24.212l-6.91,4.636A45.919,45.919,0,0,0,266.161,15.7Z" transform="translate(-196.392 0)"/><path class="c" d="M382.373,124.744a3.451,3.451,0,0,0-4.955-1.205l-12.628,8.472a3.451,3.451,0,0,0-1.156,4.439,38.92,38.92,0,0,1,4.316,17.867,39.387,39.387,0,0,1-13.784,29.917,3.447,3.447,0,0,0-.627,4.537l8.447,12.641a3.447,3.447,0,0,0,2.349,1.5,3.97,3.97,0,0,0,.529.037,3.465,3.465,0,0,0,2.164-.763,61.472,61.472,0,0,0,15.346-77.442m-16.809,69.585-4.624-6.935a46.265,46.265,0,0,0,13.92-33.077,45.656,45.656,0,0,0-3.75-18.223l6.923-4.636a54.6,54.6,0,0,1-12.468,62.871" transform="translate(-267.378 -93.142)"/><path class="c" d="M83.554,97.388A3.47,3.47,0,0,0,79.1,96.232a38.759,38.759,0,0,1-17.817,4.316A39.366,39.366,0,0,1,56.662,22.1a3.465,3.465,0,0,0,3.049-3.431V3.456A3.456,3.456,0,0,0,55.961.013,61.4,61.4,0,1,0,90.8,114.984,3.459,3.459,0,0,0,92,110.041ZM61.273,115.673A54.5,54.5,0,0,1,52.788,7.356V15.7a46.284,46.284,0,0,0,8.485,91.768,45.436,45.436,0,0,0,18.174-3.763l4.636,6.948a54.35,54.35,0,0,1-22.81,5.017" transform="translate(0 0)"/></g></svg>