<svg xmlns="http://www.w3.org/2000/svg" xmlns:xlink="http://www.w3.org/1999/xlink" width="119.026" height="140.168" viewBox="0 0 119.026 140.168"><defs><style>.a{fill:none;}.b{clip-path:url(#a);}.c{fill:#00ae83;}</style><clipPath id="a"><rect class="a" width="119.026" height="140.168"/></clipPath></defs><g class="b"><path class="c" d="M130.795,197.76a3.881,3.881,0,0,0,.972-7.637,24.873,24.873,0,0,1-7.045-3.072l-.084-.042a24.85,24.85,0,1,1,26.756.014.422.422,0,0,0-.1.07,24.561,24.561,0,0,1-3.184,1.705,3.885,3.885,0,1,0,3.156,7.1c.69-.31,1.381-.648,2.043-1a29.9,29.9,0,0,1,11.863,13.329,3.885,3.885,0,0,0,3.536,2.3,4,4,0,0,0,1.592-.338,3.864,3.864,0,0,0,1.944-5.129A37.634,37.634,0,0,0,160.073,190.1a32.582,32.582,0,1,0-44.129.014,37.855,37.855,0,0,0-11.483,13.54,3.869,3.869,0,0,0,1.733,5.2,3.816,3.816,0,0,0,1.733.409,3.911,3.911,0,0,0,3.48-2.142,30.01,30.01,0,0,1,11.356-12.244,32.38,32.38,0,0,0,7.059,2.762,3.919,3.919,0,0,0,.972.127" transform="translate(-78.822 -101.129)"/><path class="c" d="M199.22,284.427a16.773,16.773,0,0,0,9.919,3.269,16.094,16.094,0,0,0,9.539-3.17,3.877,3.877,0,0,0-4.523-6.3,8.526,8.526,0,0,1-10.159.085,3.88,3.88,0,0,0-4.776,6.115" transform="translate(-149.797 -210.212)"/><path class="c" d="M202.327,228.473a4.389,4.389,0,1,0-4.382,4.382,4.377,4.377,0,0,0,4.382-4.382" transform="translate(-146.62 -169.757)"/><path class="c" d="M267.527,228.473a4.389,4.389,0,1,0-4.382,4.382,4.386,4.386,0,0,0,4.382-4.382" transform="translate(-196.012 -169.757)"/><path class="c" d="M40.264,116.977a51.727,51.727,0,0,1,16.6-99.7l-3.607,3.861a3.878,3.878,0,0,0,5.664,5.3l9.623-10.286a3.876,3.876,0,0,0-.183-5.481L58.074,1.047a3.878,3.878,0,0,0-5.3,5.664l3.057,2.86A59.428,59.428,0,0,0,.221,63.858a59.208,59.208,0,0,0,37.154,60.318,4.013,4.013,0,0,0,1.437.282,3.881,3.881,0,0,0,1.451-7.482" transform="translate(0 0)"/><path class="c" d="M234.83,54.57a3.876,3.876,0,0,0-2.8,7.228,51.724,51.724,0,0,1-14.85,99.8l4.382-3.692a3.879,3.879,0,1,0-5-5.932l-12.2,10.286a3.883,3.883,0,0,0-.465,5.467l10.286,12.2a3.883,3.883,0,0,0,2.973,1.381,3.821,3.821,0,0,0,2.494-.916,3.884,3.884,0,0,0,.465-5.467l-4.608-5.467A59.477,59.477,0,0,0,234.83,54.57" transform="translate(-153.762 -41.139)"/></g></svg>