<svg xmlns="http://www.w3.org/2000/svg" xmlns:xlink="http://www.w3.org/1999/xlink" width="137.996" height="128.622" viewBox="0 0 137.996 128.622"><defs><style>.a{fill:none;}.b{clip-path:url(#a);}.c{fill:#00ae83;}</style><clipPath id="a"><rect class="a" width="137.996" height="128.622"/></clipPath></defs><g class="b"><path class="c" d="M115.022,84.376,111.9,72.688q-.873-3.273-1.745-6.548a18.753,18.753,0,0,0,6.806-7.15,19.506,19.506,0,0,0,1.678-14.114c-.02-.077-.048-.152-.072-.227a19.541,19.541,0,0,0-8.413-11.17,18.725,18.725,0,0,0-9.438-2.815q-.606-2.274-1.211-4.547c-1.081-4.076-2.177-8.18-3.272-12.257-.624-2.357-1.262-4.742-1.9-7.1-.083-.305-.166-.624-.249-.929a3.988,3.988,0,0,0-.218-.6A8.045,8.045,0,0,0,87.015.036,7.623,7.623,0,0,0,80.679,2.6c-.485.568-.929,1.151-1.4,1.719-2.648,3.244-5.3,6.516-7.944,9.775q-5.2,6.405-10.413,12.811c-2.579,3.189-5.172,6.364-7.778,9.567-.2.244-.407.495-.608.745q-3.619.967-7.239,1.931c-5.976,1.594-11.937,3.189-17.927,4.769q-7.9,2.1-15.806,4.215c-1.192.319-2.4.638-3.591.957C3.355,50.338-.36,54.733.028,59.669a28.513,28.513,0,0,0,1.165,5.366c.721,2.7,1.442,5.421,2.163,8.111q2.038,7.611,4.062,15.237A14.012,14.012,0,0,0,8.5,91.308a10.387,10.387,0,0,0,7.778,5.324,14.033,14.033,0,0,0,5.629-.638l2.891-.77c.53,1.175,1.061,2.348,1.588,3.529l5.948,13.227c1.622,3.591,3.231,7.2,4.853,10.787a14,14,0,0,0,1.1,2.246A8.254,8.254,0,0,0,46.7,128.48c.471-.083.929-.236,1.4-.361,3.977-1.067,7.94-2.12,11.918-3.173.117-.024.235-.049.353-.085a8.168,8.168,0,0,0,4.978-3.924,8.039,8.039,0,0,0,.6-6.295c-.249-.735-.624-1.484-.943-2.191l-2.953-6.572Q57.917,96.69,53.79,87.5l.172-.046q5.606-1.5,11.212-2.987c1.3.488,2.573.989,3.873,1.49,4.548,1.761,9.123,3.508,13.671,5.269l15.016,5.782q4.367,1.685,8.735,3.355a7.912,7.912,0,0,0,9.553-3.452,8.376,8.376,0,0,0,.638-6.378c-.541-2.052-1.1-4.1-1.636-6.156M85.685,8.314h0L85.671,8.3l.014.014m17.927,31.625c.161.053.311.112.464.169.409.209.818.4,1.214.621a12.275,12.275,0,0,1,1.106.7l-.164-.146c.166.153.347.291.527.43a14.02,14.02,0,0,1,1.528,1.548,16.4,16.4,0,0,1,1.442,2.435,14.477,14.477,0,0,1,.468,1.453,13.756,13.756,0,0,1,.3,1.441,16.24,16.24,0,0,1-.022,2.773,15.281,15.281,0,0,1-.541,2.08c-.015.044-.033.083-.049.126a2.586,2.586,0,0,1-.1.276l-.01.02c-.039.1-.075.2-.115.3l.062-.191c-.188.387-.378.773-.6,1.147s-.471.763-.721,1.123l-.031.048c-.077.094-.158.187-.233.285-.131.148-.265.292-.4.434q-2.073-7.771-4.132-15.533-.223-.838-.447-1.678c.154.045.308.089.46.139M57.359,116.617q-5.491,1.46-10.981,2.934c-.334.087-.667.185-1,.277-.483-.912-.84-1.925-1.245-2.842-1.137-2.509-2.26-5.033-3.4-7.543q-3.689-8.217-7.391-16.46L45.292,89.8q1.7,3.785,3.4,7.569,3.764,8.361,7.515,16.707c.377.843.77,1.692,1.151,2.543m-8.9-36.733-1.619.431c-.084.016-.168.032-.253.055q-8.9,2.375-17.817,4.75l-.175.046c-.828.217-1.644.435-2.472.652-.026.007-.049.017-.074.025l-2.463.655c-1.331.361-2.69.721-4.021,1.068-.553.149-1.105.313-1.664.432q-.172,0-.344,0c-.161-.04-.321-.084-.482-.127-.059-.03-.119-.059-.173-.093-.073-.044-.14-.088-.211-.131l-.274-.284c-.1-.154-.189-.313-.275-.474-.281-.857-.475-1.751-.709-2.619l-1.747-6.572q-1.976-7.425-3.965-14.877c-.3-1.11-.678-2.251-.9-3.4q0-.193,0-.386c.04-.161.084-.32.127-.482.03-.059.059-.119.093-.172.044-.073.088-.141.131-.211l.284-.274c.167-.1.34-.2.515-.3,1.44-.487,2.983-.788,4.422-1.172,3.633-.971,7.265-1.941,10.87-2.9q12.52-3.328,25.026-6.669l1.6-.425q1.183,4.447,2.367,8.9l5.43,20.383q.141.55.284,1.1-5.755,1.536-11.509,3.073m56.665,10.648c-3.4-1.317-6.78-2.606-10.177-3.924q-11.563-4.451-23.113-8.887c-.934-.368-1.873-.728-2.813-1.089q-1.464-5.5-2.928-11Q63.307,55.149,60.52,44.709q-.359-1.33-.71-2.661l8.224-10.122q7.757-9.546,15.529-19.078c.846-1.026,1.664-2.052,2.509-3.078h0q.915,3.43,1.83,6.85,2.582,9.679,5.164,19.37c.021.12.044.24.076.359l2.579,9.692c1.359,5.116,2.731,10.26,4.1,15.376.319,1.178.638,2.371.943,3.563a3.789,3.789,0,0,0,.145.429q2.342,8.8,4.694,17.595c.763,2.875,1.539,5.732,2.291,8.6-.92-.36-1.859-.71-2.776-1.072m3.132,2.494a.125.125,0,0,0,0,.029.061.061,0,0,1,0-.029" transform="translate(0 0)"/><path class="c" d="M452.514,220.77l.054-.109c.039-.1.078-.2.114-.3.077-.242.081-.36-.167.4" transform="translate(-342.796 -166.796)"/><path class="c" d="M438.842,170.89l-.03-.02c.826.733.318.23.03.02" transform="translate(-332.416 -129.44)"/><path class="c" d="M507.56,278.287c-.378.462-.446.554-.389.488.124-.155.246-.308.372-.466l.016-.022" transform="translate(-384.187 -210.813)"/><path class="c" d="M439.072,58.482A38.053,38.053,0,0,0,421.907,50.8a4.743,4.743,0,0,0-3.369.444,4.38,4.38,0,0,0-2,2.606c-.416,2.135.707,5.019,3.106,5.407a34.437,34.437,0,0,1,6.142,1.581c.458.166.887.347,1.331.513l-.26-.1c.062.025.12.049.163.069.25.111.5.236.735.346.915.43,1.83.915,2.7,1.428s1.733,1.081,2.551,1.664c.222.153.43.319.652.485l-.351-.257c.1.074.2.152.268.2.36.291.735.61,1.1.929a33.51,33.51,0,0,1,4.086,4.315,34.159,34.159,0,0,1,3.684,6.327,34.954,34.954,0,0,1,2.133,8.036,34,34,0,0,1-.05,7.234,35.53,35.53,0,0,1-1.409,5.838c-.153.444-.319.9-.485,1.345-.125.319-.568,1.276.056-.083-.111.25-.208.5-.333.749-.416.929-.887,1.83-1.386,2.718a30.065,30.065,0,0,1-1.636,2.593c-.153.222-.319.444-.471.666l-.01.014.079-.1-.1.12c-.11.151-.311.4-.372.466-.139.175-.282.354-.419.524a33.533,33.533,0,0,1-4.548,4.437,4.368,4.368,0,0,0,3.05,7.445,4.988,4.988,0,0,0,3.133-1.289,37.909,37.909,0,0,0-.61-58.995" transform="translate(-315.481 -38.398)"/><path class="c" d="M457.929,93.73c-.343-.138-.834-.31,0,0" transform="translate(-346.55 -70.872)"/><path class="c" d="M485.152,109.069c-.24-.179-.452-.332,0,0" transform="translate(-367.319 -82.475)"/></g></svg>