<svg xmlns="http://www.w3.org/2000/svg" xmlns:xlink="http://www.w3.org/1999/xlink" width="140.783" height="140.467" viewBox="0 0 140.783 140.467"><defs><style>.a{fill:none;}.b{clip-path:url(#a);}.c{fill:#00ae83;}</style><clipPath id="a"><rect class="a" width="140.783" height="140.467"/></clipPath></defs><g class="b"><path class="c" d="M105.354,0A35.031,35.031,0,0,0,72.679,48.049L54.756,58.617A31.428,31.428,0,0,0,0,79.484a31.019,31.019,0,0,0,12.653,25.165l.775.592a31.453,31.453,0,0,0,36.043,0,4.761,4.761,0,0,0,.775-.634,28.689,28.689,0,0,0,6.242-6.144l15.372,9.37a24.129,24.129,0,1,0,3.706-6.439L60.195,92.011a30.882,30.882,0,0,0-1.029-27.462l17.063-10.1a35.724,35.724,0,0,0,6.651,7.4A35.122,35.122,0,1,0,105.354,0m-59.7,98.815a2.313,2.313,0,0,1-.521.366,24.369,24.369,0,0,1-27.434,0l-.7-.479a19.042,19.042,0,0,1-2.212-1.775A16.594,16.594,0,0,1,25.054,82.542a9.149,9.149,0,0,1-2.888-6.763,9.243,9.243,0,1,1,18.486,0,9.088,9.088,0,0,1-2.959,6.763,16.657,16.657,0,0,1,5.467,3.692,16.484,16.484,0,0,1,4.875,10.652,21.237,21.237,0,0,1-2.381,1.93m39.368,28.716a9.249,9.249,0,0,1,9.243-9.243,5.552,5.552,0,1,1,5.552-5.551,5.554,5.554,0,0,1-5.552,5.551,9.215,9.215,0,0,1,9.243,9.173v2.776a15.788,15.788,0,0,1-1.7,1,16.374,16.374,0,0,1-15.119,0c-.592-.3-1.113-.662-1.663-1Zm38.156-71.2a27.661,27.661,0,0,1-35.677,0l-1.48-1.367A20.3,20.3,0,0,1,98.041,42.061a12.8,12.8,0,0,1-5.622-10.652,12.935,12.935,0,0,1,25.87,0,12.793,12.793,0,0,1-5.622,10.61,19.994,19.994,0,0,1,12.019,12.864,14.7,14.7,0,0,1-1.507,1.451" transform="translate(-0.001 0)"/></g></svg>