<svg class='value-icon' id='health' viewBox="0 0 192.266 218.912"><defs></defs><g transform="translate(0 0)"><path class="a" d="M31.06,3h7.2v9.736h9.272V3h7.14V28.962h-7.2V19.1H38.2v9.859H31.06Z" transform="translate(47.034 -3)"/><path class="a" d="M49.716,5h2.163V30.962H48.974V7.874L44.091,9.389,43.38,7.04Z" transform="translate(72.791 1.181)"/><path class="a" d="M50.547,11.983l-2.163-1.545a10.292,10.292,0,0,1,9.272-5.532,7.449,7.449,0,0,1,8.036,7.387c0,3.8-2.009,6.181-6.552,10.107l-6.954,6.181H65.939v2.658H47.92V28.982L57.439,20.7c3.956-3.585,5.409-5.563,5.409-8.159a4.976,4.976,0,0,0-5.409-5.007,8.314,8.314,0,0,0-6.892,4.451Z" transform="translate(82.283 0.936)"/><path class="a" d="M58.87,14H79.763v6.181H66.01v3.925H78.372v5.656H66.01V33.9H79.949v6.181H58.87Z" transform="translate(105.177 19.998)"/><path class="a" d="M69.406,29h2.163V54.962H68.664V31.874l-4.883,1.514L63.07,31.04Z" transform="translate(113.957 51.359)"/><path class="a" d="M60.53,44.023H73.82A9.55,9.55,0,0,1,80.9,46.341a5.687,5.687,0,0,1,1.669,4.2h0a5.965,5.965,0,0,1-3.987,5.841,6.181,6.181,0,0,1,5.038,6.181h0c0,4.451-3.616,7.14-9.8,7.14H60.53ZM72.058,54.377c2.163,0,3.4-.742,3.4-2.287h0c0-1.422-1.113-2.225-3.276-2.225H67.515v4.574Zm1.02,9.8c2.194,0,3.462-.834,3.462-2.349h0c0-1.391-1.113-2.318-3.523-2.318h-5.5v4.605Z" transform="translate(108.647 82.696)"/><path class="a" d="M161.247,117.182a111.879,111.879,0,0,0,8.252-15.454,59.558,59.558,0,0,0-4.111-50.811A73.126,73.126,0,0,0,125.8,18.588a92.474,92.474,0,0,0-51.028-2.164A67.347,67.347,0,0,0,48.1,27.984C32.642,39.883,26,59.447,20.96,76.848a13.445,13.445,0,0,0,.927,10.138l1.3,2.534a9.427,9.427,0,0,1-.711,9.921L7.02,121.076a2.194,2.194,0,0,0-.309.433A6.769,6.769,0,0,0,6,126.578a6.645,6.645,0,0,0,3.091,4.111l8.809,5.223-2.534,9.581a2.071,2.071,0,0,0,.587,2.071L20,151.272l-.742,3.987a2.04,2.04,0,0,0,.9,2.164s5.749,3.616,5.749,8.716v1.329c0,4.791,0,12.023,4.08,15.763a10.045,10.045,0,0,0,8.283,2.163,201.429,201.429,0,0,0,27.816-7.572l1.236-.4,9.272,20.337a2.071,2.071,0,0,0,1.916,1.051,2.04,2.04,0,0,0,.989-.216c.464-.278,1.174.742,1.329.216s1.545.185,1.3-.278L71.4,176.122l1.731-.587c9.272-3.091,16.6-5.625,17.71-6.181a2.071,2.071,0,0,0,1.453-2.689,1.854,1.854,0,0,0-.989-1.113,2.565,2.565,0,0,0-2.04,0c-19.842,6.954-43.734,14.712-51.306,15.639a6.367,6.367,0,0,1-5.007-1.082c-2.6-2.38-2.813-7.6-2.813-12.734v-1.453a14.619,14.619,0,0,0-5.78-10.632l-.773-.587.834-3.863a1.947,1.947,0,0,0-.587-2.071l-4.08-3.74,2.627-9.859a2.04,2.04,0,0,0-.927-2.287L11.286,126.7a2.627,2.627,0,0,1-.8-3.616L26.09,101.45a13.475,13.475,0,0,0,1.02-14.155l-1.3-2.473a9.55,9.55,0,0,1-.835-6.954c4.852-16.659,11.25-35.389,25.591-46.639a63.947,63.947,0,0,1,25.1-11A88.8,88.8,0,0,1,124.684,22.3,69.016,69.016,0,0,1,162.113,52.71a55.633,55.633,0,0,1,3.863,47.2,97.42,97.42,0,0,1-8.1,15.052,140.627,140.627,0,0,0-8.716,17.123,60.3,60.3,0,0,0-2.905,25.282,80.758,80.758,0,0,1-14.032-4.234,46.608,46.608,0,0,1-22.5-28.095l-.278-1.02A51.553,51.553,0,0,1,111.8,91.622a53.216,53.216,0,0,1,3.894-6.181,29.022,29.022,0,0,0,11.157.834c16.134-2.442,19.41-13.228,21.635-22.006,1.267-4.7,2.442-9.272,5.254-11.188a3.338,3.338,0,0,0,1.236-3.091,3.276,3.276,0,0,0-2.225-2.565,40.7,40.7,0,0,0-15.454-1.885A29.918,29.918,0,0,0,112.568,60.56a25.1,25.1,0,0,0,0,22.377A54.736,54.736,0,0,0,106.387,95.3a41.909,41.909,0,0,0-7.17-7.727,17.833,17.833,0,0,0-4.482-13.414A20.893,20.893,0,0,0,77.52,67.638a28.744,28.744,0,0,0-14.835,5.841,3.091,3.091,0,0,0-1.267,3.091,3.276,3.276,0,0,0,2.225,2.565c2.04.618,3.8,3.245,5.687,6,3.245,4.822,7.7,11.374,16.937,10.632A42.93,42.93,0,0,0,98.1,91.807c3.956,3.493,5.038,4.049,6.861,8.345a81.163,81.163,0,0,0,.371,22.1c.155.742.34,1.514.556,2.38,3.863,14.4,10.787,25.715,24.169,32.576a77.27,77.27,0,0,0,16.412,4.358q.309,2.534.835,5.192c.309,1.236,3.863,21.82,8.129,31.989.309.8,4.3.68,3.894-.371-4.3-10.323-5.78-21.14-8.252-32.143a62.03,62.03,0,0,1,1.514-32.576,93.368,93.368,0,0,1,8.654-16.474Zm-45.434-54.4a28.28,28.28,0,0,1,21.851-13.723,54.489,54.489,0,0,1,12.363.958l1.267.247-.742,1.082a52.543,52.543,0,0,0-6.181,12.981A37.366,37.366,0,0,1,139.4,76.694a16.1,16.1,0,0,1-12.734,6.181,41.015,41.015,0,0,1-6.181,0L117.7,82.35l1.978-2.194A58.043,58.043,0,0,1,133.74,67.143a1.514,1.514,0,0,0,.4-2.1,1.545,1.545,0,0,0-2.1-.433,61.474,61.474,0,0,0-14.681,13.63l-1.7,1.978-.9-2.225A18.544,18.544,0,0,1,115.814,62.785ZM96.4,86.677l-3.091-1.607a27.817,27.817,0,0,0-11.961-4.822,1.515,1.515,0,0,0-1.514,1.545,1.391,1.391,0,0,0,.464,1.051,1.484,1.484,0,0,0,1.051.433,26.209,26.209,0,0,1,10.787,4.667l2.813,1.793-3.091,1.236a20.028,20.028,0,0,1-6.181,1.607c-6.491.525-9.828-4.389-12.826-8.839a48.77,48.77,0,0,0-6.181-7.17l-.927-.8,1.082-.618a37.676,37.676,0,0,1,11.528-4.2,18.544,18.544,0,0,1,14.032,6.181C97.393,82.69,96.4,86.677,96.4,86.677Z" transform="translate(-5.793 19.644)"/></g></svg>