<svg class='value-icon' id='deep-work' viewBox="0 0 214.359 227.737"><defs></defs><g transform="translate(0 0)"><path class="a" d="M7.164,174.149a123.071,123.071,0,0,1,8.092-10.985h0A38.739,38.739,0,0,1,25,154.28a15.393,15.393,0,0,1,17.906,1.1l4.614-4.614a78.409,78.409,0,1,1,3.96,3.995l-4.614,4.58A15.427,15.427,0,0,1,48,177.249a38.361,38.361,0,0,1-8.919,9.745l-.241.207a124.149,124.149,0,0,1-10.916,7.955,5.268,5.268,0,0,1-2.824.826,5.441,5.441,0,0,1-2.1-.413,5.165,5.165,0,0,1-3.03-3.891l-.861-4.545-1.722,1.722a2.858,2.858,0,0,1-1.963.792,2.927,2.927,0,0,1-2-.792,2.824,2.824,0,0,1,0-3.994L15.256,183l-4.511-.861A5.2,5.2,0,0,1,7.3,174.149Zm26.274-16.77a11.915,11.915,0,0,0-5.716,1.653,24.105,24.105,0,0,0-5.2,4.3l9.814,2.479,6.577-6.577a9.366,9.366,0,0,0-5.475-1.86Zm72.142,12.844A73.76,73.76,0,1,0,51.551,146.6l13.981-13.981a53.822,53.822,0,1,1,43.7,17.734H105.51a53.857,53.857,0,0,1-36.019-13.774L55.545,150.561A73.313,73.313,0,0,0,105.579,170.224Zm-22.589-55.1a30.165,30.165,0,0,1-5.751-10.916A29.2,29.2,0,1,1,105.407,125.8a28.857,28.857,0,0,1-14.394-3.96,30.3,30.3,0,0,1-4.063-2.789l-13.5,13.5a48.209,48.209,0,1,0,32.094-84.366h-3.271A48.209,48.209,0,0,0,69.491,128.73ZM94.457,103.7a13.189,13.189,0,1,1,11.123,6.061,12.844,12.844,0,0,1-7.128-2.1l-7.438,7.472a27.548,27.548,0,0,0,2.858,1.928,23.622,23.622,0,1,0,11.742-44.111,24.1,24.1,0,0,0-6.233.826,23.622,23.622,0,0,0-16.6,28.96,24.1,24.1,0,0,0,4.2,8.437Zm9.125-9.125a2.789,2.789,0,0,1,3.96,0,2.824,2.824,0,0,1,0,3.994l-4.959,4.959a7.885,7.885,0,0,0,3,.62A7.576,7.576,0,1,0,98,96.567a6.887,6.887,0,0,0,.62,2.961ZM42.8,163.165l-6.577,6.577,2.479,9.814a24.38,24.38,0,0,0,4.3-5.2A9.814,9.814,0,0,0,42.8,163.165ZM25.587,189.921c3.237-2.135,6.129-4.236,8.609-6.2l-2.342-9.3-7.748,7.748Zm-5.441-11.742,7.748-7.748-9.332-2.342c-1.963,2.479-4.063,5.372-6.2,8.609Z" transform="translate(-6.44 31.755)"/><path class="a" d="M18.276,32.457h0a14.876,14.876,0,0,1,4.683-20.9,14.153,14.153,0,0,1,13.6-1.584l-2.548,7.2a7.782,7.782,0,0,0-7.163.551A7.2,7.2,0,0,0,25.2,28.049h0A7.2,7.2,0,0,0,35.183,30.8,7.886,7.886,0,0,0,38.627,24.3l7.4.344A14.5,14.5,0,0,1,38.8,37.071a14.7,14.7,0,0,1-20.523-4.614Z" transform="translate(16.47 6.645)"/><path class="a" d="M27.264,11.55,26.61,8.692,44.62,4.56,45.136,6.9l-6.612,11.88c5.028-.758,9.952.654,11.123,5.854a8.988,8.988,0,0,1-7.472,10.675A13.223,13.223,0,0,1,30.5,32.693l1.825-2.583a10.331,10.331,0,0,0,9.229,2.307,5.854,5.854,0,0,0,4.89-6.887c-.792-3.444-4.477-4.718-9.125-3.65l-1.825.413-1.067-1.756L41.038,8.486Z" transform="translate(42.846 -3.992)"/><path class="a" d="M37.513,17.333h0A15.151,15.151,0,0,1,55.075,4.626,14.979,14.979,0,0,1,68.367,21.6h0A15.151,15.151,0,0,1,50.8,34.309,14.979,14.979,0,0,1,37.513,17.333Zm22.727,3.2h0a7.507,7.507,0,0,0-6.3-8.781,7.369,7.369,0,0,0-8.3,6.646h0a7.576,7.576,0,0,0,6.267,8.712,7.369,7.369,0,0,0,8.3-6.577Z" transform="translate(69.134 -4.368)"/><path class="a" d="M61.883,9.027,60.575,6.478A11.432,11.432,0,0,1,72.627,5.79a8.333,8.333,0,0,1,4.2,11.329c-1.963,3.788-5.165,5.062-11.674,6.577L55.134,26.244,68.908,33.3,67.531,35.92,49.59,26.657l1.136-2.238,13.567-3.444c5.751-1.481,8.23-2.72,9.539-5.3A5.51,5.51,0,0,0,71.215,8.1a9.263,9.263,0,0,0-9.332.93Z" transform="translate(98.998 -4.395)"/><path class="a" d="M68.823,10.1l1.55-2.479L86.041,17.4l-1.274,2.032L71.716,23.185c4.1,3.03,6.612,7.472,3.788,11.983A8.988,8.988,0,0,1,62.659,37.51,13.154,13.154,0,0,1,56.22,27.386l3.134-.517A10.572,10.572,0,0,0,64.243,35,5.82,5.82,0,0,0,72.68,33.55c1.928-3.1.172-6.543-3.891-9.056l-1.584-1,.482-2,13.189-3.891Z" transform="translate(115.199 3.485)"/><path class="a" d="M85.225,19.81,89.289,26.7l-18.9,11.157,7.128,12.087-6.061,3.443L60.26,34.376Z" transform="translate(125.071 33.272)"/><path class="a" d="M58.836,15.8l-1.309-2.72a11.5,11.5,0,0,1,12.087,0,8.3,8.3,0,0,1,3.443,11.639c-1.963,3.719-5.2,4.786-11.811,6.061L51.088,32.705l13.326,7.817L62.9,43.07,45.51,32.74l1.309-2.169,13.774-2.617c5.82-1.171,8.333-2.273,9.814-4.752a5.51,5.51,0,0,0-2.169-7.713,9.332,9.332,0,0,0-9.4.31Z" transform="translate(89.029 12.628)"/><path class="a" d="M79.459,18.294,68.405,34.41l3.719,2.548L70.575,39.2l-3.719-2.548L63.137,42.33,60.52,40.539l3.753-5.613-12.6-8.609.654-2.445L77.083,16.71Zm-5.234,2.032L55.8,25.766l10.021,6.887Z" transform="translate(104.081 25.697)"/></g></svg>