<svg class='value-icon' id='no-silos' viewBox="0 0 198.164 206.867"><defs></defs><g transform="translate(0 0)"><path class="a" d="M6.5,8.38H19.516a11.909,11.909,0,0,1,8.916,2.961,8.493,8.493,0,0,1,2.408,6.508h0a8.655,8.655,0,0,1-5.629,8.4l6.508,9.5H22.9l-5.5-8.33H14.147V35.68H6.5ZM19.06,21.4c2.6,0,4.067-1.269,4.067-3.254h0c0-2.148-1.562-3.254-4.1-3.254H14.082V21.4Z" transform="translate(-6.5 -0.245)"/><path class="a" d="M24.991,8.29h2.278v27.5H24.21V11.479l-5.141,1.594L18.32,10.6Z" transform="translate(20.141 -0.35)"/><path class="a" d="M25.513,8.35H41.23v2.831H28.214l-.586,8.753a12.1,12.1,0,0,1,5.336-1.2,8.558,8.558,0,0,1,9.469,8.4,8.981,8.981,0,0,1-9.762,9.013,13.862,13.862,0,0,1-9.762-4.36l2.017-2.213a11.421,11.421,0,0,0,7.809,3.677,6.117,6.117,0,0,0,6.508-6.085,6.052,6.052,0,0,0-6.8-5.759,11.486,11.486,0,0,0-5.727,1.562l-2.083-1.367Z" transform="translate(30.487 -0.215)"/><path class="a" d="M33.68,22.4h0A14.285,14.285,0,0,1,48.453,8.216,14.155,14.155,0,0,1,63.1,22.338h0a14.708,14.708,0,0,1-29.285,0Zm21.7,0h0a7.094,7.094,0,0,0-7.029-7.354,6.963,6.963,0,0,0-6.9,7.289h0a7.061,7.061,0,0,0,7,7.386A6.963,6.963,0,0,0,55.384,22.4Z" transform="translate(54.762 -0.537)"/><path class="a" d="M48.321,5.85H64.07V8.681H51.054l-.586,8.753A12.137,12.137,0,0,1,55.837,16.1a8.525,8.525,0,0,1,9.436,8.4,8.981,8.981,0,0,1-9.762,9.013,13.927,13.927,0,0,1-9.762-4.36l2.05-2.213a11.356,11.356,0,0,0,7.744,3.742,6.117,6.117,0,0,0,6.508-6.085,6.02,6.02,0,0,0-6.7-5.629,11.584,11.584,0,0,0-5.727,1.562l-2.05-1.367Z" transform="translate(81.967 -5.85)"/><path class="a" d="M58.48,8.35h8l6.508,10.575L79.5,8.35h8v27.3H79.988V19.967l-6.8,10.705h-.325L65.9,20.032V35.65H58.48Z" transform="translate(110.659 -0.215)"/><path class="a" d="M66.387,18.522a9.762,9.762,0,0,0-6.508-2.668c-4.946,0-8.037,4.979-8,12.04a8.916,8.916,0,0,1,7.777-4.165,8.721,8.721,0,0,1,9.5,8.525A9.241,9.241,0,0,1,59.391,41.4,9.957,9.957,0,0,1,52.2,38.6,13.439,13.439,0,0,1,48.946,27.99c0-8.363,4.2-14.87,11.356-14.87a12.007,12.007,0,0,1,8.07,3.254Zm-7.061,7.842a6.15,6.15,0,1,0,0,12.2,6.215,6.215,0,0,0,6.508-6.313,6.085,6.085,0,0,0-6.508-5.89Z" transform="translate(88.923 10.536)"/><path class="a" d="M26,119.424h0l4.523,4.067Zm123.649-82.91Zm-28.83-9.762c2.18,0,4.3.2,6.28.358-1.92-.2-4.035-.325-6.215-.39ZM26,119.424h0l4.523,4.067Zm123.649-82.91Zm-28.83-9.762c2.18,0,4.3.2,6.28.358-1.92-.2-4.035-.325-6.215-.39Zm28.83,9.762Zm-28.83-9.762c2.18,0,4.3.2,6.28.358-1.92-.2-4.035-.325-6.215-.39ZM26,119.424h0l4.523,4.067Z" transform="translate(37.452 41.19)"/><path class="a" d="M192.046,45.256c0-8.232-26.552-10.12-35.793-10.12h-.228a123.292,123.292,0,0,0-17.962,1.106h-.944V31.622c0-8.3-26.52-10.152-35.793-10.152h0c-12.69,0-29.285,1.692-34.3,6.508-1.2.944-3.026,2.863-2.994,4.165l-.228,4.3H62.93a125.93,125.93,0,0,0-16.79-1.106H44.708c-9.306,0-35.793,1.887-35.793,10.12L9.273,141.7a3.254,3.254,0,0,1-.39,1.334,1.79,1.79,0,0,0,.586,1.432l35.077,32.539a1.692,1.692,0,0,0,2.408,0L80.013,145.9l18.71,17.571a1.724,1.724,0,0,0,2.408,0l19.231-17.9.553.521,32.767,30.847a1.757,1.757,0,0,0,2.408,0L191.167,144.4a1.822,1.822,0,0,0,.586-1.627,2.864,2.864,0,0,1-.358-1.171ZM68.169,31v-.2c1.269-2.115,10.543-4.881,23.233-5.629h.879V42.263l16.563.163V25.5h.846c13.732.813,22.42,3.644,23.656,5.89V59.964l-1.009-.228c-2.245-.553-4.523-.976-6.7-1.367l-1.3-.228c-1.627-.325-3.449-.651-5.076-.813a122.277,122.277,0,0,0-17.9-1.269A131.622,131.622,0,0,0,68.82,59.736L67.811,60Zm64.753,32.6V94.781l-.976-.228c-2.375-.586-4.751-1.009-7.028-1.432l-1.009-.2c-1.562-.293-3.254-.618-5.076-.781a122.184,122.184,0,0,0-17.9-1.3H95.6V59.866h.813a144.473,144.473,0,0,1,22.778,1.106l2.571.423,2.6.39,1.236.228c2.213.423,4.523.846,6.833,1.4Zm-57.4-1.367-.2,31.075h-.618L69.47,94.423l-1.464.293V63.739h.521l1.4-.358,4.621-1.139Zm-7.679,64.2V98.36l.586-.163c1.139-.325,2.929-.813,5.564-1.334h.976v29.285l-1.529.228a2.865,2.865,0,0,0-.651,0c-1.074.2-1.952.39-2.733.586l-2.473.911ZM12.527,141.28l-.163-29.285.651-.163.976-.2V107.8h-.423l-1.009.228L12.527,77.08h.651l.813-.2V73.273h-.358l-.976.228V72.492l-.2-27.528v-.2a8.3,8.3,0,0,1,4.2-2.538,16.268,16.268,0,0,1,2.115-.683,97.032,97.032,0,0,1,26.031-2.961,141.352,141.352,0,0,1,18.417,1.106h.716L64.1,70.9H63.19a155.666,155.666,0,0,0-18.71-1.106H38.525v3.482a136.31,136.31,0,0,1,24.86,1.009H64.1l.325,31.042h-.911a145.612,145.612,0,0,0-24.99-.976v3.644A139.268,139.268,0,0,1,63.581,109h.683v18.743a4,4,0,0,1-.423,1.334,1.757,1.757,0,0,0,.358,1.659h0l4.523,4.1,5.629,5.5-2.863-.423H71.1a132.106,132.106,0,0,0-26.031-2.148A142.23,142.23,0,0,0,18.481,140.3a9.67,9.67,0,0,0-2.115.39c-.716.163-1.855.39-2.8.586ZM45.619,173.2,14.642,144.469l1.562-.325A146.754,146.754,0,0,1,75,143.98l1.562.325Zm38.494-48.386h-.748l-3.059.358-2.245.293h-.879l.163-29.285h.683c1.66-.293,3.417-.618,5.369-.813h.879Zm.325-33.092h-.325l-.651.2H82.1a11.637,11.637,0,0,0-2.375.358l-1.464.26-.976.2V61.526h.813c1.594-.293,3.417-.618,5.4-.813h.911Zm8.851,32.539h-.748l-2.506.163H86.326l.2-29.448h.716a48.087,48.087,0,0,1,5.4-.325h.813Zm0-33.092h-.748l-2.7.163-2.473.2h-.879l.163-31.01h.716a50.172,50.172,0,0,1,5.4-.325h.813Zm24.99,34.3h0a149.381,149.381,0,0,0-17.9-1.4H95.4l.2-29.285h.781A144.28,144.28,0,0,1,119,95.887c.911.2,1.725.293,2.571.423l2.636.39,1.074.228c2.245.39,4.621.846,7,1.4l.618.163v12.528l-.325,17.083-.976-.228c-2.017-.456-4.067-.846-6.02-1.2l-2.6-.488a24.239,24.239,0,0,0-4.458-.846Zm66.706,20.239L155.7,172.875l-.553.488-.618-.488L124.2,144.6l1.432-.456a147.079,147.079,0,0,1,58.864.163h2.05Zm2.961-4.425-.976-.2a144.443,144.443,0,0,0-31.5-3.514,136.44,136.44,0,0,0-26.357,2.213l-3.026.553.2-.228h0l9.762-9.274a1.074,1.074,0,0,0,.456-1.5,5.176,5.176,0,0,1-.228-.651.944.944,0,0,0,0-.325v-.39l.2-18.678h.683a139.92,139.92,0,0,1,50.111,2.408h.651Zm.293-63.549-.163,30.587-1.171-.358c-2.766-.618-5.727-1.2-8.753-1.725l-3.514-.521-3.775-.456h-.716l-3.254-.293a139.231,139.231,0,0,0-23.005,0l-1.952.163H140.6l-1.92.228-2.05.228h0v-.944l.293-30.131h.716a141.058,141.058,0,0,1,50.111,2.44h.651Zm0-29.285h0v25.12h-.976a137.8,137.8,0,0,0-30.847-3.514,156.475,156.475,0,0,0-18.71,1.106h-.911V39.952l.716-.26a138.785,138.785,0,0,1,18.417-1.139h3.254c2.18,0,4.3.2,6.28.358h0c2.994.228,5.759.586,8.232.976s4.653.846,6.508,1.334a14.9,14.9,0,0,1,8.037,3.482v3.742Z" transform="translate(-1.138 29.356)"/><path class="a" d="M28.073,27.273v4.881H13.365V29.778a20.009,20.009,0,0,0-2.115.716v96.446l2.115-.39v-6.508H28.073V124.5h2.115V27.11C29.472,27.143,28.756,27.175,28.073,27.273Zm0,90.687H13.365v-7.419H28.073Zm0-9.534H13.365v-7.419H28.073Zm0-9.534H13.365V91.473H28.073Zm0-9.534H13.365V82.069H28.073Zm0-9.534H13.365V72.307H28.073Zm0-9.534H13.365V62.871H28.073Zm0-9.534H13.365V53.337H28.073Zm0-9.534H13.365V43.8H28.073Zm0-9.534H13.365V34.269H28.073Z" transform="translate(4.206 42.069)"/><path class="a" d="M60.2,36.238,65.762,41.8l-1.5,1.5L58.7,37.735,53.137,43.3l-1.5-1.5L57.2,36.238,51.64,30.674l1.5-1.464L58.7,34.774l5.564-5.564,1.5,1.464Z" transform="translate(95.243 46.802)"/><path class="a" d="M60.2,46.948l5.564,5.564-1.5,1.5L58.7,48.445,53.137,54.01l-1.5-1.5L57.2,46.948,51.64,41.384l1.5-1.464L58.7,45.484l5.564-5.564,1.5,1.464Z" transform="translate(95.243 70.941)"/><path class="a" d="M60.2,57.658l5.564,5.564-1.5,1.5L58.7,59.155l-5.564,5.564-1.5-1.5L57.2,57.658,51.64,52.094l1.5-1.464L58.7,56.194l5.564-5.564,1.5,1.464Z" transform="translate(95.243 95.081)"/></g></svg>