<svg class='value-icon' id='fun' viewBox="0 0 194.38 213.277"><g transform="translate(0 0)"><path class="a" d="M7.66,28.92H29.678v6.524H15.293v4.143H28.341v5.9H15.293v4.338H30v6.524H7.66Z" transform="translate(-7.66 49.856)"/><path class="a" d="M19.684,11.11H35.472v2.9H22.424l-.587,8.775a12.656,12.656,0,0,1,5.415-1.207A8.546,8.546,0,0,1,36.712,30a9,9,0,0,1-9.786,9.036,14.059,14.059,0,0,1-9.786-4.338L19.2,32.443a11.417,11.417,0,0,0,7.763,3.784,6.165,6.165,0,0,0,6.524-6.132,6.035,6.035,0,0,0-6.817-5.774,11.515,11.515,0,0,0-5.741,1.566l-2.088-1.37Z" transform="translate(13.783 9.571)"/><path class="a" d="M33.631,19.895h0A14.059,14.059,0,0,1,48.049,5.64a13.472,13.472,0,0,1,11.645,5.708l-5.708,4.208a7.4,7.4,0,0,0-6-3.262,6.785,6.785,0,0,0-6.622,7.274h0a6.752,6.752,0,0,0,6.524,7.307,7.535,7.535,0,0,0,6.2-3.262l5.708,4.077A14.418,14.418,0,0,1,33.7,19.7Z" transform="translate(51.082 -2.835)"/><path class="a" d="M59.212,43.036h0A14.059,14.059,0,0,1,73.63,28.781a13.374,13.374,0,0,1,11.613,5.708l-5.708,4.436a7.307,7.307,0,0,0-5.969-3.262,6.752,6.752,0,0,0-6.524,7.242h0a6.752,6.752,0,0,0,6.524,7.307,7.47,7.47,0,0,0,6.165-3.262l5.708,4.077a13.765,13.765,0,0,1-12.1,6.2,13.929,13.929,0,0,1-14.124-14.19Z" transform="translate(108.942 49.506)"/><path class="a" d="M58.787,4.8h2.251V32.364H58V8L52.818,9.6,52.1,7.116Z" transform="translate(92.862 -4.702)"/><path class="a" d="M67.625,32.823c-5.806,0-10.275-3.262-10.275-7.763a7.4,7.4,0,0,1,5.643-6.785,6.981,6.981,0,0,1-4.7-6.23c0-4.273,4.338-7.274,9.329-7.274s9.362,3,9.362,7.274a6.981,6.981,0,0,1-4.7,6.328,7.437,7.437,0,0,1,5.643,6.72C77.933,29.691,73.464,32.823,67.625,32.823Zm0-13.048c-3.98,0-7.144,2.153-7.144,5.219s2.642,5.187,7.144,5.187S74.8,27.832,74.8,24.994s-3.164-5.252-7.176-5.252Zm0-12.363c-3.556,0-6.23,1.99-6.23,4.762a6.524,6.524,0,0,0,12.493,0c0-2.773-2.675-4.8-6.263-4.8Z" transform="translate(104.737 -4.77)"/><path class="a" d="M54,20.059l-2.251-1.631a10.862,10.862,0,0,1,9.786-5.839,7.861,7.861,0,0,1,8.514,7.927c0,4.012-2.088,6.524-6.915,10.667l-7.307,6.524H70.378v2.805H51.23V38.13l9.949-8.742c4.175-3.914,5.611-6.035,5.611-8.873a5.219,5.219,0,0,0-5.513-5.252A8.807,8.807,0,0,0,54,20.059Z" transform="translate(90.894 12.854)"/><path class="a" d="M67.549,40.864c-6.2,0-10.079-6.524-10.079-14.124s3.947-14.19,10.145-14.19,10.047,6.524,10.047,14.092S73.682,40.864,67.549,40.864Zm0-25.509c-4.469,0-7.274,5.252-7.274,11.286s2.871,11.384,7.339,11.384,7.242-5.252,7.242-11.286S72.018,15.355,67.549,15.355Z" transform="translate(105.008 12.828)"/><path class="b" d="M138.187,76.98A59.629,59.629,0,1,0,31.782,113.905h93.553A59.4,59.4,0,0,0,138.187,76.98Z" transform="translate(17.832 23.554)"/><path class="b" d="M107.838,48.65H24.43A59.629,59.629,0,0,0,53.788,64.405l-4.338,44.689a6.948,6.948,0,0,0,6.915,7.7H75.578a6.948,6.948,0,0,0,6.883-7.7L78.285,64.438A59.629,59.629,0,0,0,107.838,48.65Z" transform="translate(30.273 94.485)"/><ellipse class="a" cx="11.352" cy="11.352" rx="11.352" ry="11.352" transform="translate(133.316 165.838)"/></g></svg>