<svg class='value-icon' id='ready-to-grow' viewBox="0 0 178.026 226.121"><defs></defs><g transform="translate(0 0)"><path class="a" d="M12,43.223h0A14.116,14.116,0,0,1,26.478,28.91a13.527,13.527,0,0,1,11.693,5.732l-5.9,4.422a7.435,7.435,0,0,0-6.026-3.275,6.812,6.812,0,0,0-6.55,7.271h0a6.78,6.78,0,0,0,6.55,7.336,7.566,7.566,0,0,0,6.223-3.275L38.2,51.247a13.854,13.854,0,0,1-12.184,6.19A13.952,13.952,0,0,1,12,43.223Z" transform="translate(-2.962 49.204)"/><path class="a" d="M25.214,30.447,22.921,28.81a10.906,10.906,0,0,1,9.826-5.863,7.893,7.893,0,0,1,8.516,7.828c0,4.029-2.129,6.55-6.943,10.71l-7.369,6.55H41.525v2.817H22.43V48.461l9.989-8.909c4.192-3.8,5.732-5.9,5.732-8.647a5.273,5.273,0,0,0-5.568-5.273A8.81,8.81,0,0,0,25.214,30.447Z" transform="translate(20.77 35.614)"/><path class="a" d="M31.1,30.588h0a14.8,14.8,0,0,1,29.477,0h0a14.8,14.8,0,0,1-29.477,0Zm21.813,0h0a7.14,7.14,0,0,0-7.074-7.435A7.009,7.009,0,0,0,38.9,30.489h0a7.14,7.14,0,0,0,7.042,7.4,7.009,7.009,0,0,0,6.976-7.3Z" transform="translate(40.496 22.536)"/><path class="a" d="M53.32,5.05h7.6v20.8h13.33V32.4H53.32Z" transform="translate(91.052 -5.05)"/><path class="a" d="M60.236,16.468a9.531,9.531,0,0,0-6.55-2.718c-4.978,0-8.09,5.011-8.057,12.118a8.909,8.909,0,0,1,7.828-4.192,8.778,8.778,0,0,1,9.5,8.483,9.3,9.3,0,0,1-9.826,9.2,10.153,10.153,0,0,1-7.238-2.784,13.658,13.658,0,0,1-3.275-10.71c0-8.385,4.225-14.968,11.431-14.968a12.086,12.086,0,0,1,8.123,3.275Zm-7.107,7.861a6.55,6.55,0,0,0-6.878,6.026,6.55,6.55,0,0,0,6.943,6.223,6.223,6.223,0,0,0,6.55-6.321,6.092,6.092,0,0,0-6.616-5.928Z" transform="translate(66.45 8.26)"/><path class="a" d="M46,18.74H64.636v2.293L52.092,46.121H48.817L61.2,21.458H46Z" transform="translate(74.397 26.098)"/><path class="a" d="M78.861,116.269c-3.111,0-13.1.164-19.651,6.55a10.349,10.349,0,0,0-1.146,1.277l-1.474,1.769V105.886h.819a26.2,26.2,0,0,0,16.8-6.55c7.173-7.205,6.55-19.193,6.55-19.651a2.063,2.063,0,0,0-1.9-1.932c-3.111,0-13.1.2-19.651,6.55a13.426,13.426,0,0,0-1.146,1.277L56.59,87.348V71.988l.229-.229a27.414,27.414,0,0,0,8.352-17.752c0-9.138-7.009-16.54-9.171-18.6a2.1,2.1,0,0,0-2.686-.1s-9.2,8.254-9.2,18.669A27.479,27.479,0,0,0,52.43,71.693l.229.262V87.316l-1.441-1.769-1.179-1.114c-6.55-6.55-16.638-6.714-19.651-6.55a2,2,0,0,0-2,1.9c0,3.046,0,13.265,6.55,19.651a26.4,26.4,0,0,0,16.8,6.55h.786V126l-1.441-1.8-1.048-1.376c-7.238-7.205-19.226-6.55-19.651-6.55a2,2,0,0,0-1.9,1.932c0,3.046,0,13.1,6.55,19.651a26.431,26.431,0,0,0,16.8,6.55h.786v18.734H56.59V144.5h.819a26.2,26.2,0,0,0,16.8-6.55c7.173-7.173,6.55-19.16,6.55-19.651a2.031,2.031,0,0,0-1.9-2.031Zm-22.272-15.3a22.37,22.37,0,0,1,5.339-13.756l.557-.655h0a22.534,22.534,0,0,1,13.1-4.847h.884V82.6A22.239,22.239,0,0,1,71.1,96.323a22.37,22.37,0,0,1-13.789,5.4H56.59Zm-5.077.852a22.337,22.337,0,0,1-12.348-4.291v.524l-1.441-1.67a22.468,22.468,0,0,1-5.339-13.723v-.884h.884a22.435,22.435,0,0,1,13.723,5.371,22.435,22.435,0,0,1,5.4,13.789v.884Zm0,38.582A22.239,22.239,0,0,1,37.724,135h0a22.468,22.468,0,0,1-5.339-13.723v-.819h.884a22.436,22.436,0,0,1,13.723,5.371,22.37,22.37,0,0,1,5.5,13.854v.884Zm3.439-72.841-.557.524-.557-.491A18.407,18.407,0,0,1,47.91,54.76a18.112,18.112,0,0,1,4.847-13.1c.328-.393.721-.753,1.081-1.114l.557-.491.557.491a18.472,18.472,0,0,1,1.114,26.2,11.5,11.5,0,0,1-1.015.819Zm21.584,53.615A22.239,22.239,0,0,1,71.164,134.9a22.272,22.272,0,0,1-13.887,5.5H56.59v-.884a22.108,22.108,0,0,1,5.437-13.789l.327-.295a22.435,22.435,0,0,1,13.428-4.978h.884Z" transform="translate(34.331 62.788)"/><path class="a" d="M78.861,116.269c-3.111,0-13.1.164-19.651,6.55a10.349,10.349,0,0,0-1.146,1.277l-1.474,1.769V105.886h.819a26.2,26.2,0,0,0,16.8-6.55c7.173-7.205,6.55-19.193,6.55-19.651a2.063,2.063,0,0,0-1.9-1.932c-3.111,0-13.1.2-19.651,6.55a13.426,13.426,0,0,0-1.146,1.277L56.59,87.348V71.988l.229-.229a27.414,27.414,0,0,0,8.352-17.752c0-9.138-7.009-16.54-9.171-18.6a2.1,2.1,0,0,0-2.686-.1s-9.2,8.254-9.2,18.669A27.479,27.479,0,0,0,52.43,71.693l.229.262V87.316l-1.441-1.769-1.179-1.114c-6.55-6.55-16.638-6.714-19.651-6.55a2,2,0,0,0-2,1.9c0,3.046,0,13.265,6.55,19.651a26.4,26.4,0,0,0,16.8,6.55h.786V126l-1.441-1.8-1.048-1.376c-7.238-7.205-19.226-6.55-19.651-6.55a2,2,0,0,0-1.9,1.932c0,3.046,0,13.1,6.55,19.651a26.431,26.431,0,0,0,16.8,6.55h.786v18.734H56.59V144.5h.819a26.2,26.2,0,0,0,16.8-6.55c7.173-7.173,6.55-19.16,6.55-19.651a2.031,2.031,0,0,0-1.9-2.031Zm-22.272-15.3a22.37,22.37,0,0,1,5.339-13.756l.557-.655h0a22.534,22.534,0,0,1,13.1-4.847h.884V82.6A22.239,22.239,0,0,1,71.1,96.323a22.37,22.37,0,0,1-13.789,5.4H56.59Zm-5.077.852a22.337,22.337,0,0,1-12.348-4.291v.524l-1.441-1.67a22.468,22.468,0,0,1-5.339-13.723v-.884h.884a22.435,22.435,0,0,1,13.723,5.371,22.435,22.435,0,0,1,5.4,13.789v.884Zm0,38.582A22.239,22.239,0,0,1,37.724,135h0a22.468,22.468,0,0,1-5.339-13.723v-.819h.884a22.436,22.436,0,0,1,13.723,5.371,22.37,22.37,0,0,1,5.5,13.854v.884Zm3.439-72.841-.557.524-.557-.491A18.407,18.407,0,0,1,47.91,54.76a18.112,18.112,0,0,1,4.847-13.1c.328-.393.721-.753,1.081-1.114l.557-.491.557.491a18.472,18.472,0,0,1,1.114,26.2,11.5,11.5,0,0,1-1.015.819Zm21.584,53.615A22.239,22.239,0,0,1,71.164,134.9a22.272,22.272,0,0,1-13.887,5.5H56.59v-.884a22.108,22.108,0,0,1,5.437-13.789l.327-.295a22.435,22.435,0,0,1,13.428-4.978h.884Z" transform="translate(34.331 62.788)"/><path class="a" d="M61.545,93.916a1.965,1.965,0,0,0-1.867-1.965h0c-3.013,0-13.1.2-19.651,6.55-.393.393-.786.852-1.146,1.277l-1.441,1.834v-19l.229-.229a27.577,27.577,0,0,0,8.319-17.752c0-9.105-7.009-16.376-9.138-18.57a2.063,2.063,0,0,0-2.784,0S24.83,54.253,24.83,64.7c0,8.647,6.387,15.754,8.319,17.752l.262.229v18.964l-1.474-1.8a13.919,13.919,0,0,0-1.146-1.277C23.52,91.3,11.6,92.017,11.14,92.017a2,2,0,0,0-1.9,1.9c0,3.046.164,13.1,6.55,19.651a26.2,26.2,0,0,0,16.736,6.55h.819v18.734h4.061v-18.6h.786a26.2,26.2,0,0,0,16.835-6.55C62.135,106.428,61.578,94.44,61.545,93.916ZM32.429,116.155a22.337,22.337,0,0,1-13.821-5.4h0a22.271,22.271,0,0,1-5.339-13.723v-.819h.884a22.4,22.4,0,0,1,13.69,5.371,22.435,22.435,0,0,1,5.535,13.854v.884Zm3.439-37.8-.557.524-.655-.524a18.472,18.472,0,0,1-1.114-26.2c.36-.36.721-.753,1.114-1.081l.557-.524.557.524a18.505,18.505,0,0,1,1.081,26.2ZM57.353,97.028a22.206,22.206,0,0,1-5.273,13.625h0a22.337,22.337,0,0,1-13.789,5.4h-.884v-.884a22.206,22.206,0,0,1,5.371-13.723A22.37,22.37,0,0,1,56.5,96.209h.884Z" transform="translate(-9.24 87.04)"/><path class="a" d="M61.545,93.916a1.965,1.965,0,0,0-1.867-1.965h0c-3.013,0-13.1.2-19.651,6.55-.393.393-.786.852-1.146,1.277l-1.441,1.834v-19l.229-.229a27.577,27.577,0,0,0,8.319-17.752c0-9.105-7.009-16.376-9.138-18.57a2.063,2.063,0,0,0-2.784,0S24.83,54.253,24.83,64.7c0,8.647,6.387,15.754,8.319,17.752l.262.229v18.964l-1.474-1.8a13.919,13.919,0,0,0-1.146-1.277C23.52,91.3,11.6,92.017,11.14,92.017a2,2,0,0,0-1.9,1.9c0,3.046.164,13.1,6.55,19.651a26.2,26.2,0,0,0,16.736,6.55h.819v18.734h4.061v-18.6h.786a26.2,26.2,0,0,0,16.835-6.55C62.135,106.428,61.578,94.44,61.545,93.916ZM32.429,116.155a22.337,22.337,0,0,1-13.821-5.4h0a22.271,22.271,0,0,1-5.339-13.723v-.819h.884a22.4,22.4,0,0,1,13.69,5.371,22.435,22.435,0,0,1,5.535,13.854v.884Zm3.439-37.8-.557.524-.655-.524a18.472,18.472,0,0,1-1.114-26.2c.36-.36.721-.753,1.114-1.081l.557-.524.557.524a18.505,18.505,0,0,1,1.081,26.2ZM57.353,97.028a22.206,22.206,0,0,1-5.273,13.625h0a22.337,22.337,0,0,1-13.789,5.4h-.884v-.884a22.206,22.206,0,0,1,5.371-13.723A22.37,22.37,0,0,1,56.5,96.209h.884Z" transform="translate(-9.24 87.04)"/><path class="a" d="M98.061,147.772c-3.079,0-13.265.2-19.651,6.55a10.643,10.643,0,0,0-1.146,1.277l-1.441,1.8V136.047h.786a26.464,26.464,0,0,0,16.8-6.55c7.271-7.3,6.55-19.193,6.55-19.651a2.031,2.031,0,0,0-1.9-2.1c-3.079,0-13.265,0-19.651,6.55a10.643,10.643,0,0,0-1.146,1.277l-1.441,1.769V96.286h.786a26.2,26.2,0,0,0,16.835-6.55c7.238-7.238,6.55-19.16,6.55-19.651a2.031,2.031,0,0,0-1.9-1.9c-3.046,0-13.265.164-19.651,6.55A10.649,10.649,0,0,0,77.3,76.012l-1.441,1.769V58.129l.229-.229A27.479,27.479,0,0,0,84.4,40.148c0-9.138-7.009-16.54-9.171-18.6a2.063,2.063,0,0,0-2.751,0s-9.236,8.221-9.236,18.636c0,8.647,6.55,15.754,8.319,17.752l.229.229V77.813l-1.441-1.8a10.644,10.644,0,0,0-1.146-1.277C62,67.5,49.981,68.184,49.555,68.184a2.031,2.031,0,0,0-1.9,1.9c0,3.079,0,13.265,6.55,19.651a26.2,26.2,0,0,0,16.769,6.55h.786v21.42l-1.441-1.8c-.36-.426-.721-.852-1.146-1.277-7.206-7.205-19.226-6.55-19.651-6.55a2,2,0,0,0-1.9,1.9c0,3.046.164,13.1,6.55,19.651a26.464,26.464,0,0,0,16.769,6.55h.786V157.63l-1.441-1.8a10.649,10.649,0,0,0-1.146-1.277C61.87,147.248,49.948,148,49.49,148a2.031,2.031,0,0,0-1.9,1.9c0,3.079.164,13.1,6.55,19.651A26.2,26.2,0,0,0,70.91,176.1H71.7v18.734H75.79V176h.786a26.2,26.2,0,0,0,16.835-6.55c7.238-7.238,6.55-19.16,6.55-19.651a2.031,2.031,0,0,0-1.9-2.031ZM70.844,171.91a22.206,22.206,0,0,1-13.821-5.437h0a22.272,22.272,0,0,1-5.339-13.723v-.786h.524a22.4,22.4,0,0,1,13.69,5.371,22.206,22.206,0,0,1,5.5,13.854v.884Zm0-39.925a22.37,22.37,0,0,1-13.821-5.437h0a22.173,22.173,0,0,1-5.535-13.887v-.884h.721a22.042,22.042,0,0,1,13.69,5.371A22.141,22.141,0,0,1,71.4,131v.852Zm0-39.958A22.206,22.206,0,0,1,56.892,86.46h0a22.337,22.337,0,0,1-5.339-13.723v-.884h.655A22.206,22.206,0,0,1,65.9,77.224a22.206,22.206,0,0,1,5.5,13.854v.884Zm10.317,25.285.36-.262a22.272,22.272,0,0,1,13.265-5.142H95.6v.753A18.472,18.472,0,0,1,78.05,131.953H75.495v-.786a22.337,22.337,0,0,1,5.535-13.854Zm0-39.925.36-.295a22.272,22.272,0,0,1,13.265-5.142H95.6v.819A18.472,18.472,0,0,1,78.05,92.061H75.495v-.819A22.239,22.239,0,0,1,81.03,77.388ZM74.283,53.446l-.557.491-.557-.491a18.472,18.472,0,0,1-1.31-25.94c.36-.393.721-.753,1.114-1.114l.557-.491.557.491a18.505,18.505,0,0,1,1.081,26.2Zm4,118.465H75.724v-.819a22.239,22.239,0,0,1,5.4-13.789l.36-.295a22.468,22.468,0,0,1,13.3-5.044H95.6v.819A18.44,18.44,0,0,1,78.148,171.91Z" transform="translate(78.015 31.284)"/><path class="a" d="M98.061,147.772c-3.079,0-13.265.2-19.651,6.55a10.643,10.643,0,0,0-1.146,1.277l-1.441,1.8V136.047h.786a26.464,26.464,0,0,0,16.8-6.55c7.271-7.3,6.55-19.193,6.55-19.651a2.031,2.031,0,0,0-1.9-2.1c-3.079,0-13.265,0-19.651,6.55a10.643,10.643,0,0,0-1.146,1.277l-1.441,1.769V96.286h.786a26.2,26.2,0,0,0,16.835-6.55c7.238-7.238,6.55-19.16,6.55-19.651a2.031,2.031,0,0,0-1.9-1.9c-3.046,0-13.265.164-19.651,6.55A10.649,10.649,0,0,0,77.3,76.012l-1.441,1.769V58.129l.229-.229A27.479,27.479,0,0,0,84.4,40.148c0-9.138-7.009-16.54-9.171-18.6a2.063,2.063,0,0,0-2.751,0s-9.236,8.221-9.236,18.636c0,8.647,6.55,15.754,8.319,17.752l.229.229V77.813l-1.441-1.8a10.644,10.644,0,0,0-1.146-1.277C62,67.5,49.981,68.184,49.555,68.184a2.031,2.031,0,0,0-1.9,1.9c0,3.079,0,13.265,6.55,19.651a26.2,26.2,0,0,0,16.769,6.55h.786v21.42l-1.441-1.8c-.36-.426-.721-.852-1.146-1.277-7.206-7.205-19.226-6.55-19.651-6.55a2,2,0,0,0-1.9,1.9c0,3.046.164,13.1,6.55,19.651a26.464,26.464,0,0,0,16.769,6.55h.786V157.63l-1.441-1.8a10.649,10.649,0,0,0-1.146-1.277C61.87,147.248,49.948,148,49.49,148a2.031,2.031,0,0,0-1.9,1.9c0,3.079.164,13.1,6.55,19.651A26.2,26.2,0,0,0,70.91,176.1H71.7v18.734H75.79V176h.786a26.2,26.2,0,0,0,16.835-6.55c7.238-7.238,6.55-19.16,6.55-19.651a2.031,2.031,0,0,0-1.9-2.031ZM70.844,171.91a22.206,22.206,0,0,1-13.821-5.437h0a22.272,22.272,0,0,1-5.339-13.723v-.786h.524a22.4,22.4,0,0,1,13.69,5.371,22.206,22.206,0,0,1,5.5,13.854v.884Zm0-39.925a22.37,22.37,0,0,1-13.821-5.437h0a22.173,22.173,0,0,1-5.535-13.887v-.884h.721a22.042,22.042,0,0,1,13.69,5.371A22.141,22.141,0,0,1,71.4,131v.852Zm0-39.958A22.206,22.206,0,0,1,56.892,86.46h0a22.337,22.337,0,0,1-5.339-13.723v-.884h.655A22.206,22.206,0,0,1,65.9,77.224a22.206,22.206,0,0,1,5.5,13.854v.884Zm10.317,25.285.36-.262a22.272,22.272,0,0,1,13.265-5.142H95.6v.753A18.472,18.472,0,0,1,78.05,131.953H75.495v-.786a22.337,22.337,0,0,1,5.535-13.854Zm0-39.925.36-.295a22.272,22.272,0,0,1,13.265-5.142H95.6v.819A18.472,18.472,0,0,1,78.05,92.061H75.495v-.819A22.239,22.239,0,0,1,81.03,77.388ZM74.283,53.446l-.557.491-.557-.491a18.472,18.472,0,0,1-1.31-25.94c.36-.393.721-.753,1.114-1.114l.557-.491.557.491a18.505,18.505,0,0,1,1.081,26.2Zm4,118.465H75.724v-.819a22.239,22.239,0,0,1,5.4-13.789l.36-.295a22.468,22.468,0,0,1,13.3-5.044H95.6v.819A18.44,18.44,0,0,1,78.148,171.91Z" transform="translate(78.015 31.284)"/></g></svg>