<svg class='value-icon' id='relationship-first' viewBox="0 0 206 241.882"><path class="a" d="M19.454,14.127l-5.476,1.243L12.23,8.379,21.784,5.66h6.564V38.517H19.454Z" transform="translate(-5.394 -5.66)"/><path class="a" d="M42.992,5.66V27.72H48.04v3.068H42.992v7.768H39.5V30.788H22.252l-.932-2.641L39.768,5.66Zm-3.5,5.2L25.825,27.681H39.5Z" transform="translate(20.819 -5.66)"/><path class="a" d="M32.5,33.411,38.326,27.9a6.6,6.6,0,0,0,5.088,3.029c2.291,0,3.884-1.515,3.884-4.544V5.72h8.972v20.7a12,12,0,0,1-3.224,9.166,12.273,12.273,0,0,1-8.933,3.3A13.321,13.321,0,0,1,32.5,33.411Z" transform="translate(53.06 -5.487)"/><path class="a" d="M43.64,5.72h22.1V8.477l-14.8,29.866H46.825L61.544,9.1H43.64Z" transform="translate(85.185 -5.487)"/><path class="a" d="M54.32,5.72h8.428l13.4,17.244V5.72H85.08V38.344H77.312L63.253,20.44v17.9H54.32Z" transform="translate(115.984 -5.487)"/><path class="a" d="M56.264,46.117c-6.952,0-12.234-3.884-12.234-9.282A8.816,8.816,0,0,1,50.71,28.8a8.311,8.311,0,0,1-5.593-7.535c0-5.088,5.2-8.661,11.146-8.661S67.41,16.173,67.41,21.261A8.311,8.311,0,0,1,61.818,28.8a8.816,8.816,0,0,1,6.68,8C68.5,42.389,63.332,46.117,56.264,46.117Zm0-15.535c-4.738,0-8.544,2.563-8.544,6.253s3.185,6.136,8.544,6.136,8.505-2.8,8.505-6.136S61,30.5,56.264,30.5Zm0-14.72c-4.233,0-7.457,2.369-7.457,5.709s3.3,5.981,7.457,5.981,7.457-2.408,7.457-5.981-3.224-5.787-7.457-5.787Z" transform="translate(86.31 14.353)"/><path class="a" d="M79.951,74.237h0a30.294,30.294,0,0,0,9.321-22.1A31.07,31.07,0,1,0,36.491,74.276,34.954,34.954,0,0,0,10.47,108.143v14.564a5.593,5.593,0,0,0,5.631,5.631h84.2a5.515,5.515,0,0,0,3.884-1.359,5.67,5.67,0,0,0,1.864-4.272V108.065A35.265,35.265,0,0,0,79.951,74.237ZM58.2,72.023a19.768,19.768,0,1,1,14.02-5.831A19.768,19.768,0,0,1,58.2,72.023ZM45.424,84.646H71.018A23.652,23.652,0,0,1,94.671,108.3v8.661h-72.9V108.3A23.652,23.652,0,0,1,45.424,84.646Z" transform="translate(-10.47 38.509)"/><path class="a" d="M79.951,74.237h0a30.294,30.294,0,0,0,9.321-22.1A31.07,31.07,0,1,0,36.491,74.276,34.954,34.954,0,0,0,10.47,108.143v14.564a5.593,5.593,0,0,0,5.631,5.631h84.2a5.515,5.515,0,0,0,3.884-1.359,5.67,5.67,0,0,0,1.864-4.272V108.065A35.265,35.265,0,0,0,79.951,74.237ZM58.2,72.023a19.768,19.768,0,1,1,14.02-5.831A19.768,19.768,0,0,1,58.2,72.023ZM45.424,84.646H71.018A23.652,23.652,0,0,1,94.671,108.3v8.661h-72.9V108.3A23.652,23.652,0,0,1,45.424,84.646Z" transform="translate(100 114.166)"/><path class="a" d="M102.2,40.437H53.107l8.7-8.661a5.685,5.685,0,0,0-8.039-8.039L35.358,42.184A5.942,5.942,0,0,0,33.61,46.3a6.059,6.059,0,0,0,1.709,4.117L53.767,68.866a5.826,5.826,0,0,0,2.719,1.554l1.2.311,1.165-.466a8.738,8.738,0,0,0,2.952-1.787,5.826,5.826,0,0,0,0-8.078l-8.7-8.661H96.527V78.226a5.593,5.593,0,0,0,5.67,5.709,5.67,5.67,0,0,0,5.631-5.631v-32.2a5.593,5.593,0,0,0-5.632-5.67Z" transform="translate(56.261 41.667)"/><path class="a" d="M89.872,83.992,71.114,66.01a5.787,5.787,0,0,0-8.156,0,5.9,5.9,0,0,0,.388,8.117l8.7,8.661H28.392V56.262a5.67,5.67,0,0,0-11.3,0V88.381a5.593,5.593,0,0,0,5.631,5.631H71.929l-8.583,8.739a5.709,5.709,0,0,0,0,7.768,5.942,5.942,0,0,0,4.117,1.748,6.253,6.253,0,0,0,3.884-1.67L89.795,92.109a5.981,5.981,0,0,0,1.787-4.156A5.865,5.865,0,0,0,89.872,83.992Z" transform="translate(8.621 125.266)"/></svg>