<svg class='ways-to-give-icon' id='step-1' viewBox="0 0 271 273"><defs><clipPath id="step-1-a"><rect class="a" width="133.901" height="133.901"/></clipPath><filter id="step-1-b" x="0" y="0" width="104" height="104" filterUnits="userSpaceOnUse"><feOffset dy="3" input="SourceAlpha"/><feGaussianBlur stdDeviation="3" result="c"/><feFlood flood-opacity="0.161"/><feComposite operator="in" in2="c"/><feComposite in="SourceGraphic"/></filter></defs><g transform="translate(-372 -2529)"><circle class="b" cx="131" cy="131" r="131" transform="translate(381 2540)"/><g transform="translate(445.008 2604.009)"><g class="c"><path class="d" d="M69.854,92.768H64.381V49.584a4.135,4.135,0,0,0-7.058-2.923L47.4,56.582a4.134,4.134,0,0,0,5.847,5.847l2.864-2.862v33.2H50.528a4.135,4.135,0,0,0,0,8.27H69.854a4.135,4.135,0,1,0,0-8.27" transform="translate(-7.992 -7.864)"/><path class="d" d="M96.637,75.381l10.525-10.525a4.134,4.134,0,0,0-5.847-5.847L90.79,69.534,80.265,59.01a4.134,4.134,0,0,0-5.847,5.847L84.943,75.381,74.419,85.906a4.134,4.134,0,1,0,5.847,5.847L90.79,81.228l10.524,10.525a4.134,4.134,0,0,0,5.847-5.847Z" transform="translate(-12.667 -10.001)"/><path class="d" d="M70.739,21.888a48.849,48.849,0,1,0,48.849,48.85,48.9,48.9,0,0,0-48.849-48.85m0,89.429a40.58,40.58,0,1,1,40.579-40.579,40.626,40.626,0,0,1-40.579,40.579" transform="translate(-3.788 -3.787)"/><path class="d" d="M66.951,0A66.95,66.95,0,1,0,133.9,66.95,67.026,67.026,0,0,0,66.951,0m0,125.631A58.681,58.681,0,1,1,125.632,66.95a58.747,58.747,0,0,1-58.681,58.681"/></g></g><g class="g" transform="matrix(1, 0, 0, 1, 372, 2529)"><circle class="e" cx="43" cy="43" r="43" transform="translate(9 6)"/></g><text class="f" transform="translate(424 2590)"><tspan x="-6.204" y="0">1</tspan></text></g></svg>