<svg class='ways-to-give-icon' id='step-3' viewBox="0 0 271 273"><defs><clipPath id="step-3-a"><rect class="a" width="180.385" height="129.142"/></clipPath><filter id="step-3-b" x="0" y="0" width="104" height="104" filterUnits="userSpaceOnUse"><feOffset dy="3" input="SourceAlpha"/><feGaussianBlur stdDeviation="3" result="c"/><feFlood flood-opacity="0.161"/><feComposite operator="in" in2="c"/><feComposite in="SourceGraphic"/></filter></defs><g transform="translate(-372 -2529)"><circle class="b" cx="131" cy="131" r="131" transform="translate(381 2540)"/><g transform="translate(422 2616)"><g class="c"><path class="d" d="M179.909,58.178l-32.565-56.4A3.543,3.543,0,0,0,142.5.477L126.985,9.435a3.545,3.545,0,0,0-1.3,4.843L127.5,17.42l-9.793,3.891L98.452,13.824a3.545,3.545,0,0,0-1.734-.213l-31.278,4a3.549,3.549,0,0,0-2.166,1.123c-.24.264-5.873,6.522-3.658,13.364,1.7,5.239,7.294,8.872,16.638,10.8A123.609,123.609,0,0,0,96.494,45.5c5.937.329,7.936.441,13.186,4.426C119.844,57.639,139.7,74.647,139.9,74.817a3.483,3.483,0,0,0,1.361.713,3.56,3.56,0,0,0,.391.39,4.617,4.617,0,0,1-5.838,7.153l-10.68-8.715a3.546,3.546,0,0,0-4.484,5.494l1.423,1.161,9.257,7.554a4.617,4.617,0,1,1-5.838,7.153l-11.3-9.221h0l-.978-.8a3.545,3.545,0,1,0-4.483,5.494l12.277,10.02a4.617,4.617,0,0,1-5.837,7.154l-8.262-6.743a3.491,3.491,0,0,0-.379-.25l-4.193-3.421a3.545,3.545,0,1,0-4.483,5.494l8.262,6.742a4.617,4.617,0,1,1-5.838,7.153l-8.211-6.7A11.669,11.669,0,0,0,84.614,99.8a11.679,11.679,0,0,0-5.144-15.4l3.853-3.144a11.708,11.708,0,0,0-14.8-18.142l-.25.2a11.708,11.708,0,0,0-18.656-5.846L38.687,66.384c-2.514-3.933-6.544-6.293-9.674-7.62L54.7,14.278a3.545,3.545,0,0,0-1.3-4.843L37.883.477a3.543,3.543,0,0,0-4.843,1.3L.476,58.178a3.544,3.544,0,0,0,1.3,4.842L17.289,71.98a3.542,3.542,0,0,0,1.773.475,3.543,3.543,0,0,0,3.07-1.773l3.3-5.713c2.444.923,6.1,2.779,7.7,6a11.692,11.692,0,0,0,6.672,20.155,11.669,11.669,0,0,0,10.322,12.645,11.67,11.67,0,0,0,10.316,12.647A11.708,11.708,0,0,0,79.5,126.51l8.262-6.743a11.767,11.767,0,0,0,1.88-1.95l6.152,5.02a11.7,11.7,0,0,0,18.895-6.854,11.682,11.682,0,0,0,15.051-12.217,11.67,11.67,0,0,0,10.321-12.645,11.7,11.7,0,0,0,7.027-19.82c1.509-3.44,5.33-5.388,7.861-6.337l3.3,5.717a3.545,3.545,0,0,0,4.843,1.3l15.516-8.959a3.544,3.544,0,0,0,1.3-4.842M17.764,64.066,8.389,58.653,37.408,8.391,46.784,13.8Zm19.8,18.35a4.622,4.622,0,0,1,.657-6.5L54.1,62.961a4.617,4.617,0,0,1,5.838,7.154L44.056,83.073a4.618,4.618,0,0,1-6.5-.657m10.32,12.647a4.623,4.623,0,0,1,.658-6.5L73,68.6a4.617,4.617,0,1,1,5.838,7.153L66.657,85.7h0L54.378,95.72a4.624,4.624,0,0,1-6.5-.657M58.2,107.711a4.622,4.622,0,0,1,.658-6.5L71.14,91.193a4.617,4.617,0,0,1,5.837,7.156l-4.009,3.27-.008.006L64.7,108.369a4.624,4.624,0,0,1-6.5-.658m26.754,3.451a4.586,4.586,0,0,1-1.675,3.112l-8.262,6.743a4.617,4.617,0,1,1-5.838-7.153l8.267-6.746a4.617,4.617,0,0,1,7.508,4.045M141.431,66.8c-6.039-5.132-19.464-16.456-27.463-22.527-6.979-5.3-10.781-5.508-17.082-5.857a117.214,117.214,0,0,1-19.2-2.473c-6.457-1.33-10.476-3.468-11.317-6.017-.646-1.956.584-4.228,1.431-5.474L96.723,20.76l19.714,7.664a3.555,3.555,0,0,0,2.593-.009l12.054-4.789,20.287,35.138c-3.241,1.374-7.452,3.85-9.94,8.038m21.189-2.736L133.6,13.8l9.375-5.412L172,58.653Z" transform="translate(0 0)"/></g></g><g class="g" transform="matrix(1, 0, 0, 1, 372, 2529)"><circle class="e" cx="43" cy="43" r="43" transform="translate(9 6)"/></g><text class="f" transform="translate(424 2590)"><tspan x="-9.983" y="0">3</tspan></text></g></svg>