<svg class='ways-to-give-icon' id='step-2' viewBox="0 0 271 273"><defs><clipPath id="step-2-a"><rect class="a" width="148.248" height="173.563"/></clipPath><filter id="step-2-b" x="0" y="0" width="104" height="104" filterUnits="userSpaceOnUse"><feOffset dy="3" input="SourceAlpha"/><feGaussianBlur stdDeviation="3" result="c"/><feFlood flood-opacity="0.161"/><feComposite operator="in" in2="c"/><feComposite in="SourceGraphic"/></filter></defs><g transform="translate(-372 -2529)"><circle class="b" cx="131" cy="131" r="131" transform="translate(381 2540)"/><g transform="translate(438 2576)"><g class="c"><path class="d" d="M124.671,17.729l2.658-2.949,8.928,27.543a5,5,0,1,0,9.513-3.084l-11.6-35.781a5,5,0,0,0-8.47-1.806l-8.458,9.382a5,5,0,0,0,7.428,6.695"/><path class="d" d="M143.248,94.439a5,5,0,0,0-5,5A64.124,64.124,0,1,1,14.887,74.907c.005-.011.012-.02.017-.031A66.693,66.693,0,0,1,64.188,36.187c1.441-.258,2.885-.45,4.331-.612,1.849-.161,3.715-.26,5.605-.26a4.962,4.962,0,0,0,1.183-.156,66.439,66.439,0,0,1,35.586,9.884,5,5,0,0,0,6.339-.908l.723-.8,6.794,20.957-21.494-2.528,2.726-3.791a5,5,0,0,0-1.556-7.247c-11.367-6.576-19.582-9.763-32.93-8.934a5,5,0,1,0,.619,9.98c9.071-.557,14.974,1.049,22.461,4.935L90.18,62.819A5,5,0,0,0,93.655,70.7l37.671,4.429a5,5,0,0,0,5.34-6.507L124.8,32.011a5,5,0,0,0-8.47-1.805l-3.808,4.224a76.47,76.47,0,0,0-45.034-8.8,74.117,74.117,0,1,0,80.763,73.812,5,5,0,0,0-5-5"/><path class="d" d="M30.479,99.439a5,5,0,0,0-10,0,53.645,53.645,0,1,0,107.291,0,5,5,0,0,0-10,0,43.645,43.645,0,1,1-87.291,0"/><path class="d" d="M69.687,65.738v6.239c-10.476.694-15.869,8.012-15.869,15.176,0,10.707,8.242,12.942,15.869,14.867v18.8a9.427,9.427,0,0,1-7.7-7.78H54.511c.771,7.78,6.394,12.941,15.176,13.711v6.394h4.159v-6.394c9.629-.617,15.946-6.548,15.946-14.867,0-10.63-8.243-12.864-15.946-14.867V77.755c5.469.848,8.011,4.622,8.4,8.627h7.472c-.155-8.164-6.625-13.557-15.869-14.405V65.738Zm0,30.12c-4.93-1.464-8.859-3.621-8.859-9.091,0-4.62,3.158-8.472,8.859-9.089Zm12.941,16.407c0,5.469-3.621,8.243-8.782,8.705V103.176c4.93,1.541,8.782,3.621,8.782,9.089"/></g></g><g class="g" transform="matrix(1, 0, 0, 1, 372, 2529)"><circle class="e" cx="43" cy="43" r="43" transform="translate(9 6)"/></g><text class="f" transform="translate(424 2590)"><tspan x="-9.422" y="0">2</tspan></text></g></svg>